Garamon(d-t)-Regular.ufo
<glyph name="exclam" format="2">
	<advance width="223"/>
	<unicode hex="0021"/>
	<note>
		exclam
  </note>
	<outline>
		<contour>
			<point x="128" y="689" type="line" smooth="yes"/>
			<point x="111" y="689"/>
			<point x="81" y="671"/>
			<point x="81" y="641" type="qcurve" smooth="yes"/>
			<point x="81" y="629"/>
			<point x="83" y="605"/>
			<point x="83" y="593" type="qcurve" smooth="yes"/>
			<point x="83" y="575"/>
			<point x="80" y="536"/>
			<point x="77" y="500"/>
			<point x="74" y="469"/>
			<point x="74" y="460" type="qcurve" smooth="yes"/>
			<point x="74" y="451"/>
			<point x="78" y="421"/>
			<point x="83" y="385"/>
			<point x="87" y="346"/>
			<point x="87" y="329" type="qcurve" smooth="yes"/>
			<point x="87" y="302"/>
			<point x="74" y="249"/>
			<point x="56" y="226" type="qcurve" smooth="yes"/>
			<point x="51" y="220"/>
			<point x="51" y="212" type="qcurve" smooth="yes"/>
			<point x="51" y="204"/>
			<point x="64" y="192"/>
			<point x="72" y="192" type="qcurve" smooth="yes"/>
			<point x="81" y="192"/>
			<point x="87" y="201" type="qcurve"/>
			<point x="111" y="231"/>
			<point x="129" y="297"/>
			<point x="129" y="331" type="qcurve" smooth="yes"/>
			<point x="129" y="349"/>
			<point x="125" y="389"/>
			<point x="119" y="426"/>
			<point x="115" y="456"/>
			<point x="115" y="464" type="qcurve" smooth="yes"/>
			<point x="115" y="470"/>
			<point x="118" y="501"/>
			<point x="123" y="540"/>
			<point x="126" y="583"/>
			<point x="126" y="602" type="qcurve" smooth="yes"/>
			<point x="126" y="613"/>
			<point x="122" y="634"/>
			<point x="122" y="645" type="qcurve" smooth="yes"/>
			<point x="122" y="647" type="line"/>
			<point x="154" y="647" type="line"/>
			<point x="162" y="648"/>
			<point x="172" y="659"/>
			<point x="172" y="667" type="qcurve" smooth="yes"/>
			<point x="172" y="675"/>
			<point x="161" y="689"/>
			<point x="153" y="689" type="qcurve" smooth="yes"/>
			<point x="150" y="689"/>
			<point x="146" y="688"/>
			<point x="143" y="688" type="qcurve" smooth="yes"/>
			<point x="138" y="688"/>
			<point x="136" y="689" type="qcurve"/>
		</contour>
		<contour>
			<point x="111" y="8" type="qcurve" smooth="yes"/>
			<point x="120" y="8"/>
			<point x="135" y="22"/>
			<point x="135" y="30" type="qcurve" smooth="yes"/>
			<point x="135" y="42"/>
			<point x="127" y="61"/>
			<point x="118" y="77"/>
			<point x="111" y="90"/>
			<point x="111" y="96" type="qcurve" smooth="yes"/>
			<point x="111" y="99"/>
			<point x="114" y="105"/>
			<point x="114" y="108" type="qcurve" smooth="yes"/>
			<point x="114" y="116"/>
			<point x="101" y="132"/>
			<point x="90" y="132" type="qcurve" smooth="yes"/>
			<point x="76" y="132"/>
			<point x="66" y="110"/>
			<point x="66" y="98" type="qcurve" smooth="yes"/>
			<point x="66" y="84"/>
			<point x="76" y="60"/>
			<point x="81" y="51" type="qcurve"/>
			<point x="86" y="37"/>
			<point x="97" y="8"/>
		</contour>
	</outline>
</glyph>
<glyph name="quotedbl" format="2">
	<advance width="378"/>
	<unicode hex="0022"/>
	<note>
		quotedbl
  </note>
	<outline>
		<contour>
			<point x="278" y="284" type="qcurve" smooth="yes"/>
			<point x="288" y="284"/>
			<point x="303" y="298"/>
			<point x="312" y="317"/>
			<point x="317" y="336"/>
			<point x="317" y="341" type="qcurve" smooth="yes"/>
			<point x="317" y="359"/>
			<point x="298" y="387"/>
			<point x="292" y="399" type="qcurve"/>
			<point x="278" y="410"/>
			<point x="260" y="441"/>
			<point x="248" y="474"/>
			<point x="243" y="506"/>
			<point x="243" y="517" type="qcurve" smooth="yes"/>
			<point x="243" y="550"/>
			<point x="276" y="617"/>
			<point x="311" y="656" type="qcurve"/>
			<point x="318" y="668"/>
			<point x="318" y="677" type="qcurve" smooth="yes"/>
			<point x="318" y="690"/>
			<point x="298" y="700"/>
			<point x="290" y="700" type="qcurve" smooth="yes"/>
			<point x="281" y="700"/>
			<point x="274" y="693" type="qcurve"/>
			<point x="232" y="642"/>
			<point x="191" y="556"/>
			<point x="191" y="513" type="qcurve" smooth="yes"/>
			<point x="191" y="482"/>
			<point x="212" y="420"/>
			<point x="232" y="385" type="qcurve"/>
			<point x="236" y="382"/>
			<point x="248" y="368"/>
			<point x="258" y="353"/>
			<point x="266" y="341"/>
			<point x="266" y="339" type="qcurve" smooth="yes"/>
			<point x="266" y="334"/>
			<point x="255" y="320"/>
			<point x="255" y="311" type="qcurve" smooth="yes"/>
			<point x="255" y="300"/>
			<point x="268" y="284"/>
		</contour>
		<contour>
			<point x="181" y="335" type="qcurve" smooth="yes"/>
			<point x="189" y="335"/>
			<point x="207" y="349"/>
			<point x="207" y="362" type="qcurve" smooth="yes"/>
			<point x="207" y="372"/>
			<point x="200" y="381" type="qcurve"/>
			<point x="151" y="426"/>
			<point x="107" y="494"/>
			<point x="107" y="521" type="qcurve" smooth="yes"/>
			<point x="107" y="551"/>
			<point x="153" y="613"/>
			<point x="209" y="651" type="qcurve"/>
			<point x="219" y="663"/>
			<point x="219" y="675" type="qcurve" smooth="yes"/>
			<point x="219" y="688"/>
			<point x="198" y="700"/>
			<point x="190" y="700" type="qcurve" smooth="yes"/>
			<point x="181" y="700"/>
			<point x="177" y="697" type="qcurve" smooth="yes"/>
			<point x="114" y="652"/>
			<point x="57" y="574"/>
			<point x="53" y="532" type="qcurve"/>
			<point x="53" y="490"/>
			<point x="101" y="402"/>
			<point x="163" y="344" type="qcurve" smooth="yes"/>
			<point x="167" y="340"/>
			<point x="174" y="335"/>
		</contour>
	</outline>
</glyph>
<glyph name="ampersand" format="2">
	<advance width="721"/>
	<unicode hex="0026"/>
	<note>
		ampersand
  </note>
	<outline>
		<contour>
			<point x="591" y="1" type="qcurve" smooth="yes"/>
			<point x="612" y="1"/>
			<point x="643" y="23"/>
			<point x="656" y="34" type="qcurve" smooth="yes"/>
			<point x="663" y="40" type="line"/>
			<point x="670" y="47"/>
			<point x="670" y="58" type="qcurve" smooth="yes"/>
			<point x="670" y="67"/>
			<point x="658" y="82"/>
			<point x="648" y="82" type="qcurve" smooth="yes"/>
			<point x="638" y="82"/>
			<point x="631" y="76" type="qcurve"/>
			<point x="624" y="69" type="line"/>
			<point x="613" y="59"/>
			<point x="598" y="48"/>
			<point x="590" y="48" type="qcurve" smooth="yes"/>
			<point x="579" y="48"/>
			<point x="544" y="73"/>
			<point x="506" y="109"/>
			<point x="469" y="148"/>
			<point x="457" y="162" type="qcurve"/>
			<point x="494" y="173"/>
			<point x="531" y="223"/>
			<point x="545" y="248" type="qcurve" smooth="yes"/>
			<point x="561" y="276"/>
			<point x="580" y="320"/>
			<point x="598" y="351"/>
			<point x="620" y="367"/>
			<point x="639" y="367" type="qcurve" smooth="yes"/>
			<point x="646" y="367" type="line" smooth="yes"/>
			<point x="656" y="367"/>
			<point x="670" y="380"/>
			<point x="671" y="390" type="qcurve"/>
			<point x="671" y="399"/>
			<point x="658" y="415"/>
			<point x="648" y="415" type="qcurve" smooth="yes"/>
			<point x="610" y="415"/>
			<point x="567" y="388"/>
			<point x="542" y="350"/>
			<point x="526" y="307"/>
			<point x="516" y="292" type="qcurve"/>
			<point x="505" y="274"/>
			<point x="489" y="244"/>
			<point x="472" y="222"/>
			<point x="451" y="208"/>
			<point x="435" y="206" type="qcurve"/>
			<point x="430" y="205"/>
			<point x="425" y="203"/>
			<point x="423" y="202" type="qcurve"/>
			<point x="391" y="242"/>
			<point x="328" y="326"/>
			<point x="296" y="368" type="qcurve"/>
			<point x="300" y="368" type="line" smooth="yes"/>
			<point x="310" y="368"/>
			<point x="317" y="375" type="qcurve" smooth="yes"/>
			<point x="336" y="394" type="line" smooth="yes"/>
			<point x="346" y="404"/>
			<point x="367" y="426"/>
			<point x="385" y="451"/>
			<point x="397" y="479"/>
			<point x="397" y="495" type="qcurve" smooth="yes"/>
			<point x="397" y="512"/>
			<point x="377" y="554"/>
			<point x="342" y="590"/>
			<point x="296" y="615"/>
			<point x="270" y="615" type="qcurve" smooth="yes"/>
			<point x="248" y="615"/>
			<point x="202" y="598"/>
			<point x="165" y="567"/>
			<point x="141" y="525"/>
			<point x="141" y="501" type="qcurve" smooth="yes"/>
			<point x="141" y="461"/>
			<point x="174" y="431" type="qcurve" smooth="yes"/>
			<point x="209" y="398"/>
			<point x="270" y="325"/>
			<point x="327" y="250"/>
			<point x="384" y="173"/>
			<point x="415" y="137" type="qcurve"/>
			<point x="413" y="137"/>
			<point x="411" y="138"/>
			<point x="409" y="138" type="qcurve" smooth="yes"/>
			<point x="399" y="138"/>
			<point x="377" y="112"/>
			<point x="368" y="101" type="qcurve" smooth="yes"/>
			<point x="336" y="62"/>
			<point x="277" y="38"/>
			<point x="247" y="38" type="qcurve" smooth="yes"/>
			<point x="212" y="38"/>
			<point x="155" y="63"/>
			<point x="133" y="78" type="qcurve" smooth="yes"/>
			<point x="112" y="92"/>
			<point x="98" y="133"/>
			<point x="98" y="157" type="qcurve" smooth="yes"/>
			<point x="98" y="190"/>
			<point x="102" y="230"/>
			<point x="114" y="257"/>
			<point x="137" y="277"/>
			<point x="156" y="291" type="qcurve" smooth="yes"/>
			<point x="163" y="296"/>
			<point x="182" y="309"/>
			<point x="200" y="325"/>
			<point x="212" y="342"/>
			<point x="212" y="350" type="qcurve" smooth="yes"/>
			<point x="212" y="359"/>
			<point x="197" y="373"/>
			<point x="188" y="373" type="qcurve" smooth="yes"/>
			<point x="177" y="373"/>
			<point x="146" y="342"/>
			<point x="129" y="330" type="qcurve" smooth="yes"/>
			<point x="110" y="317"/>
			<point x="80" y="292"/>
			<point x="60" y="255"/>
			<point x="50" y="200"/>
			<point x="50" y="158" type="qcurve" smooth="yes"/>
			<point x="50" y="126"/>
			<point x="71" y="63"/>
			<point x="106" y="39" type="qcurve" smooth="yes"/>
			<point x="141" y="14"/>
			<point x="208" y="-10"/>
			<point x="246" y="-10" type="qcurve" smooth="yes"/>
			<point x="270" y="-10"/>
			<point x="313" y="0"/>
			<point x="336" y="11" type="qcurve"/>
			<point x="351" y="17"/>
			<point x="385" y="46"/>
			<point x="414" y="77"/>
			<point x="434" y="106"/>
			<point x="434" y="112" type="qcurve" smooth="yes"/>
			<point x="434" y="115" type="line"/>
			<point x="450" y="97"/>
			<point x="491" y="57"/>
			<point x="533" y="23"/>
			<point x="574" y="1"/>
		</contour>
		<contour>
			<point x="269" y="568" type="qcurve" smooth="yes"/>
			<point x="283" y="568"/>
			<point x="311" y="553"/>
			<point x="334" y="531"/>
			<point x="349" y="505"/>
			<point x="349" y="494" type="qcurve" smooth="yes"/>
			<point x="349" y="479"/>
			<point x="324" y="449"/>
			<point x="304" y="429" type="qcurve" smooth="yes"/>
			<point x="295" y="420"/>
			<point x="276" y="403"/>
			<point x="276" y="392" type="qcurve"/>
			<point x="264" y="406"/>
			<point x="234" y="436"/>
			<point x="207" y="465"/>
			<point x="189" y="491"/>
			<point x="189" y="502" type="qcurve" smooth="yes"/>
			<point x="189" y="513"/>
			<point x="201" y="537"/>
			<point x="222" y="556"/>
			<point x="251" y="568"/>
		</contour>
	</outline>
</glyph>
<glyph name="quotesingle" format="2">
	<advance width="269"/>
	<unicode hex="0027"/>
	<note>
		quotesingle
  </note>
	<outline>
		<contour>
			<point x="54" y="498" type="qcurve" smooth="yes"/>
			<point x="55" y="498" type="line"/>
			<point x="85" y="500"/>
			<point x="135" y="521"/>
			<point x="175" y="552"/>
			<point x="208" y="588"/>
			<point x="222" y="605" type="qcurve"/>
			<point x="227" y="615"/>
			<point x="227" y="621" type="qcurve" smooth="yes"/>
			<point x="227" y="625" type="line"/>
			<point x="205" y="719"/>
			<point x="132" y="719" type="qcurve" smooth="yes"/>
			<point x="120" y="719"/>
			<point x="85" y="715"/>
			<point x="53" y="707"/>
			<point x="30" y="694"/>
			<point x="30" y="684" type="qcurve" smooth="yes"/>
			<point x="30" y="674"/>
			<point x="45" y="659"/>
			<point x="53" y="659" type="qcurve" smooth="yes"/>
			<point x="54" y="659"/>
			<point x="56" y="660"/>
			<point x="57" y="660" type="qcurve"/>
			<point x="84" y="666" type="line" smooth="yes"/>
			<point x="96" y="669"/>
			<point x="119" y="674"/>
			<point x="130" y="673" type="qcurve"/>
			<point x="149" y="673"/>
			<point x="171" y="652"/>
			<point x="179" y="626" type="qcurve"/>
			<point x="167" y="611"/>
			<point x="141" y="583"/>
			<point x="110" y="560"/>
			<point x="73" y="545"/>
			<point x="52" y="544" type="qcurve"/>
			<point x="43" y="543"/>
			<point x="31" y="530"/>
			<point x="31" y="521" type="qcurve" smooth="yes"/>
			<point x="31" y="511"/>
			<point x="43" y="498"/>
		</contour>
	</outline>
</glyph>
<glyph name="parenleft" format="2">
	<advance width="332"/>
	<unicode hex="0028"/>
	<note>
		parenleft
  </note>
	<outline>
		<contour>
			<point x="278" y="-274" type="qcurve" smooth="yes"/>
			<point x="289" y="-274"/>
			<point x="303" y="-259"/>
			<point x="311" y="-238"/>
			<point x="314" y="-217"/>
			<point x="314" y="-211" type="qcurve" smooth="yes"/>
			<point x="314" y="-190"/>
			<point x="295" y="-155"/>
			<point x="269" y="-127"/>
			<point x="245" y="-106"/>
			<point x="240" y="-99" type="qcurve" smooth="yes"/>
			<point x="177" y="-11"/>
			<point x="113" y="208"/>
			<point x="113" y="320" type="qcurve" smooth="yes"/>
			<point x="113" y="385"/>
			<point x="136" y="511"/>
			<point x="184" y="625"/>
			<point x="258" y="724"/>
			<point x="309" y="762" type="qcurve" smooth="yes"/>
			<point x="319" y="770"/>
			<point x="319" y="783" type="qcurve" smooth="yes"/>
			<point x="319" y="793"/>
			<point x="304" y="808"/>
			<point x="294" y="808" type="qcurve" smooth="yes"/>
			<point x="286" y="808"/>
			<point x="278" y="803" type="qcurve"/>
			<point x="221" y="761"/>
			<point x="139" y="654"/>
			<point x="85" y="529"/>
			<point x="60" y="393"/>
			<point x="60" y="323" type="qcurve" smooth="yes"/>
			<point x="60" y="202"/>
			<point x="131" y="-34"/>
			<point x="198" y="-128" type="qcurve"/>
			<point x="208" y="-145"/>
			<point x="231" y="-167"/>
			<point x="251" y="-184"/>
			<point x="263" y="-200"/>
			<point x="263" y="-211" type="qcurve" smooth="yes"/>
			<point x="263" y="-218"/>
			<point x="253" y="-239"/>
			<point x="253" y="-248" type="qcurve" smooth="yes"/>
			<point x="253" y="-257"/>
			<point x="267" y="-274"/>
		</contour>
	</outline>
</glyph>
<glyph name="parenright" format="2">
	<advance width="372"/>
	<unicode hex="0029"/>
	<note>
		parenright
  </note>
	<outline>
		<contour>
			<point x="75" y="-190" type="qcurve"/>
			<point x="87" y="-189"/>
			<point x="112" y="-162"/>
			<point x="123" y="-149" type="qcurve" smooth="yes"/>
			<point x="222" y="-38"/>
			<point x="312" y="213"/>
			<point x="312" y="339" type="qcurve" smooth="yes"/>
			<point x="312" y="414"/>
			<point x="280" y="558"/>
			<point x="216" y="687"/>
			<point x="121" y="799"/>
			<point x="59" y="843" type="qcurve"/>
			<point x="54" y="847"/>
			<point x="45" y="847" type="qcurve" smooth="yes"/>
			<point x="34" y="847"/>
			<point x="19" y="832"/>
			<point x="19" y="821" type="qcurve" smooth="yes"/>
			<point x="19" y="809"/>
			<point x="30" y="801" type="qcurve" smooth="yes"/>
			<point x="87" y="762"/>
			<point x="173" y="659"/>
			<point x="232" y="540"/>
			<point x="261" y="408"/>
			<point x="261" y="339" type="qcurve" smooth="yes"/>
			<point x="261" y="221"/>
			<point x="177" y="-11"/>
			<point x="85" y="-115" type="qcurve" smooth="yes"/>
			<point x="75" y="-126"/>
			<point x="49" y="-152"/>
			<point x="49" y="-164" type="qcurve" smooth="yes"/>
			<point x="49" y="-173"/>
			<point x="62" y="-190"/>
		</contour>
	</outline>
</glyph>
<glyph name="asterisk" format="2">
	<advance width="333"/>
	<unicode hex="002A"/>
	<note>
		asterisk
  </note>
	<outline>
		<contour>
			<point x="243" y="483" type="line"/>
			<point x="248" y="478"/>
			<point x="256" y="478" type="qcurve" smooth="yes"/>
			<point x="271" y="478"/>
			<point x="271" y="494" type="qcurve" smooth="yes"/>
			<point x="271" y="501"/>
			<point x="255" y="522"/>
			<point x="234" y="542"/>
			<point x="212" y="560"/>
			<point x="206" y="565" type="qcurve"/>
			<point x="225" y="565"/>
			<point x="260" y="563"/>
			<point x="278" y="558" type="qcurve"/>
			<point x="281" y="558" type="line" smooth="yes"/>
			<point x="292" y="558"/>
			<point x="297" y="569" type="qcurve"/>
			<point x="297" y="580"/>
			<point x="275" y="591"/>
			<point x="243" y="596"/>
			<point x="209" y="597"/>
			<point x="197" y="597" type="qcurve"/>
			<point x="214" y="617"/>
			<point x="247" y="652"/>
			<point x="267" y="668" type="qcurve"/>
			<point x="270" y="668" type="line"/>
			<point x="275" y="671"/>
			<point x="275" y="677" type="qcurve" smooth="yes"/>
			<point x="275" y="682"/>
			<point x="264" y="696"/>
			<point x="258" y="696" type="qcurve" smooth="yes"/>
			<point x="248" y="696"/>
			<point x="224" y="676"/>
			<point x="199" y="649"/>
			<point x="178" y="621"/>
			<point x="171" y="613" type="qcurve"/>
			<point x="171" y="639"/>
			<point x="175" y="687"/>
			<point x="182" y="712" type="qcurve"/>
			<point x="182" y="717" type="line" smooth="yes"/>
			<point x="182" y="723"/>
			<point x="170" y="732"/>
			<point x="162" y="732" type="qcurve" smooth="yes"/>
			<point x="154" y="732"/>
			<point x="146" y="712"/>
			<point x="141" y="684"/>
			<point x="140" y="654"/>
			<point x="140" y="644" type="qcurve" smooth="yes"/>
			<point x="140" y="637"/>
			<point x="141" y="625"/>
			<point x="141" y="618" type="qcurve"/>
			<point x="133" y="624"/>
			<point x="112" y="647"/>
			<point x="92" y="668"/>
			<point x="75" y="684"/>
			<point x="71" y="684" type="qcurve" smooth="yes"/>
			<point x="64" y="684"/>
			<point x="57" y="674"/>
			<point x="57" y="669" type="qcurve" smooth="yes"/>
			<point x="57" y="662"/>
			<point x="71" y="642"/>
			<point x="92" y="621"/>
			<point x="114" y="601"/>
			<point x="122" y="595" type="qcurve"/>
			<point x="99" y="595"/>
			<point x="57" y="598"/>
			<point x="36" y="605" type="qcurve"/>
			<point x="22" y="605"/>
			<point x="16" y="594"/>
			<point x="16" y="585" type="qcurve" smooth="yes"/>
			<point x="16" y="578"/>
			<point x="40" y="570"/>
			<point x="73" y="565"/>
			<point x="106" y="564"/>
			<point x="116" y="564" type="qcurve" smooth="yes"/>
			<point x="131" y="564" type="line"/>
			<point x="124" y="556"/>
			<point x="102" y="536"/>
			<point x="81" y="518"/>
			<point x="66" y="503"/>
			<point x="66" y="499" type="qcurve" smooth="yes"/>
			<point x="66" y="493"/>
			<point x="80" y="483"/>
			<point x="85" y="483" type="qcurve" smooth="yes"/>
			<point x="91" y="483"/>
			<point x="106" y="494"/>
			<point x="121" y="508"/>
			<point x="135" y="523"/>
			<point x="140" y="528" type="qcurve"/>
			<point x="139" y="513"/>
			<point x="132" y="479"/>
			<point x="132" y="464" type="qcurve" smooth="yes"/>
			<point x="132" y="454"/>
			<point x="143" y="450" type="qcurve"/>
			<point x="154" y="450"/>
			<point x="166" y="473"/>
			<point x="171" y="506"/>
			<point x="172" y="541"/>
			<point x="172" y="554" type="qcurve"/>
			<point x="192" y="537"/>
			<point x="227" y="505"/>
			<point x="243" y="485" type="qcurve"/>
		</contour>
	</outline>
</glyph>
<glyph name="plus" format="2">
	<advance width="445"/>
	<unicode hex="002B"/>
	<note>
		plus
  </note>
	<outline>
		<contour>
			<point x="177" y="459" type="qcurve" smooth="yes"/>
			<point x="177" y="453" type="line"/>
			<point x="182" y="429"/>
			<point x="187" y="353"/>
			<point x="189" y="313" type="qcurve"/>
			<point x="171" y="313"/>
			<point x="120" y="312"/>
			<point x="73" y="306"/>
			<point x="39" y="292"/>
			<point x="39" y="278" type="qcurve" smooth="yes"/>
			<point x="39" y="265"/>
			<point x="51" y="252"/>
			<point x="57" y="252" type="qcurve" smooth="yes"/>
			<point x="61" y="252" type="line"/>
			<point x="81" y="258"/>
			<point x="129" y="263"/>
			<point x="154" y="263" type="qcurve" smooth="yes"/>
			<point x="163" y="263"/>
			<point x="181" y="263"/>
			<point x="190" y="262" type="qcurve"/>
			<point x="190" y="116" type="line" smooth="yes"/>
			<point x="190" y="106"/>
			<point x="207" y="90"/>
			<point x="218" y="90" type="qcurve" smooth="yes"/>
			<point x="229" y="90"/>
			<point x="244" y="106"/>
			<point x="247" y="116" type="qcurve"/>
			<point x="243" y="217" type="line"/>
			<point x="243" y="261" type="line"/>
			<point x="264" y="261" type="line" smooth="yes"/>
			<point x="272" y="261"/>
			<point x="283" y="277"/>
			<point x="283" y="287" type="qcurve" smooth="yes"/>
			<point x="283" y="306"/>
			<point x="264" y="313" type="qcurve"/>
			<point x="242" y="313" type="line"/>
			<point x="240" y="341"/>
			<point x="239" y="400"/>
			<point x="233" y="450"/>
			<point x="219" y="482"/>
			<point x="206" y="482" type="qcurve" smooth="yes"/>
			<point x="189" y="482"/>
			<point x="177" y="467"/>
		</contour>
		<contour>
			<point x="334" y="256" type="qcurve"/>
			<point x="339" y="255"/>
			<point x="346" y="255" type="qcurve" smooth="yes"/>
			<point x="348" y="255"/>
			<point x="360" y="257"/>
			<point x="375" y="259"/>
			<point x="387" y="261"/>
			<point x="389" y="261" type="qcurve" smooth="yes"/>
			<point x="403" y="261" type="line"/>
			<point x="404" y="261" type="line"/>
			<point x="407" y="261" type="line" smooth="yes"/>
			<point x="413" y="261"/>
			<point x="423" y="273"/>
			<point x="423" y="284" type="qcurve" smooth="yes"/>
			<point x="423" y="301"/>
			<point x="402" y="311"/>
			<point x="390" y="311" type="qcurve" smooth="yes"/>
			<point x="385" y="311"/>
			<point x="368" y="309"/>
			<point x="351" y="306"/>
			<point x="337" y="304"/>
			<point x="335" y="304" type="qcurve" smooth="yes"/>
			<point x="331" y="304"/>
			<point x="321" y="308"/>
			<point x="311" y="308" type="qcurve" smooth="yes"/>
			<point x="304" y="308"/>
			<point x="294" y="294"/>
			<point x="294" y="283" type="qcurve" smooth="yes"/>
			<point x="294" y="274"/>
			<point x="303" y="263"/>
			<point x="316" y="257"/>
			<point x="329" y="256"/>
		</contour>
	</outline>
</glyph>
<glyph name="comma" format="2">
	<advance width="272"/>
	<unicode hex="002C"/>
	<note>
		comma
  </note>
	<outline>
		<contour>
			<point x="84" y="-109" type="qcurve" smooth="yes"/>
			<point x="93" y="-109"/>
			<point x="101" y="-102" type="qcurve" smooth="yes"/>
			<point x="124" y="-81" type="line" smooth="yes"/>
			<point x="171" y="-39"/>
			<point x="218" y="12"/>
			<point x="218" y="40" type="qcurve" smooth="yes"/>
			<point x="218" y="70"/>
			<point x="163" y="116"/>
			<point x="112" y="148" type="qcurve"/>
			<point x="104" y="152"/>
			<point x="98" y="152" type="qcurve" smooth="yes"/>
			<point x="88" y="152"/>
			<point x="73" y="137"/>
			<point x="73" y="126" type="qcurve" smooth="yes"/>
			<point x="73" y="115"/>
			<point x="102" y="92"/>
			<point x="138" y="69"/>
			<point x="167" y="48"/>
			<point x="167" y="40" type="qcurve" smooth="yes"/>
			<point x="167" y="29"/>
			<point x="120" y="-14"/>
			<point x="89" y="-43" type="qcurve" smooth="yes"/>
			<point x="66" y="-64" type="line"/>
			<point x="57" y="-73"/>
			<point x="57" y="-83" type="qcurve" smooth="yes"/>
			<point x="57" y="-92"/>
			<point x="73" y="-109"/>
		</contour>
	</outline>
</glyph>
<glyph name="hyphen" format="2">
	<advance width="354"/>
	<unicode hex="002D"/>
	<note>
		hyphen
  </note>
	<outline>
		<contour>
			<point x="309" y="321" type="qcurve" smooth="yes"/>
			<point x="286" y="321"/>
			<point x="241" y="314"/>
			<point x="191" y="307"/>
			<point x="136" y="300"/>
			<point x="103" y="300" type="qcurve" smooth="yes"/>
			<point x="76" y="300"/>
			<point x="59" y="304" type="qcurve"/>
			<point x="49" y="304"/>
			<point x="33" y="291"/>
			<point x="30" y="282" type="qcurve"/>
			<point x="31" y="274"/>
			<point x="43" y="258"/>
			<point x="51" y="258" type="qcurve" smooth="yes"/>
			<point x="53" y="258" type="line"/>
			<point x="65" y="255"/>
			<point x="85" y="254"/>
			<point x="98" y="254" type="qcurve" smooth="yes"/>
			<point x="127" y="254"/>
			<point x="179" y="259"/>
			<point x="209" y="263" type="qcurve"/>
			<point x="221" y="263"/>
			<point x="264" y="264"/>
			<point x="304" y="271"/>
			<point x="334" y="284"/>
			<point x="334" y="296" type="qcurve" smooth="yes"/>
			<point x="334" y="305"/>
			<point x="318" y="321"/>
		</contour>
	</outline>
</glyph>
<glyph name="period" format="2">
	<advance width="175"/>
	<unicode hex="002E"/>
	<note>
		period
  </note>
	<outline>
		<contour>
			<point x="135" y="52" type="qcurve" smooth="yes"/>
			<point x="135" y="74"/>
			<point x="104" y="106"/>
			<point x="81" y="106" type="qcurve" smooth="yes"/>
			<point x="58" y="106"/>
			<point x="27" y="74"/>
			<point x="27" y="52" type="qcurve" smooth="yes"/>
			<point x="27" y="29"/>
			<point x="58" y="-2"/>
			<point x="81" y="-2" type="qcurve" smooth="yes"/>
			<point x="104" y="-2"/>
			<point x="135" y="29"/>
		</contour>
	</outline>
</glyph>
<glyph name="slash" format="2">
	<advance width="364"/>
	<unicode hex="002F"/>
	<note>
		slash
  </note>
	<outline>
		<contour>
			<point x="346" y="524" type="qcurve"/>
			<point x="347" y="530" type="line"/>
			<point x="341" y="537" type="line"/>
			<point x="342" y="545" type="line"/>
			<point x="337" y="551"/>
			<point x="326" y="561"/>
			<point x="316" y="563" type="qcurve"/>
			<point x="309" y="563" type="line"/>
			<point x="304" y="563" type="line" smooth="yes"/>
			<point x="293" y="563"/>
			<point x="278" y="547"/>
			<point x="278" y="536" type="qcurve" smooth="yes"/>
			<point x="278" y="531"/>
			<point x="281" y="524"/>
			<point x="281" y="519" type="qcurve" smooth="yes"/>
			<point x="281" y="517" type="line"/>
			<point x="288" y="517" type="line"/>
			<point x="268" y="433"/>
			<point x="195" y="294"/>
			<point x="156" y="234" type="qcurve"/>
			<point x="137" y="207"/>
			<point x="116" y="146"/>
			<point x="94" y="89"/>
			<point x="63" y="42"/>
			<point x="33" y="29" type="qcurve"/>
			<point x="12" y="19"/>
			<point x="12" y="3" type="qcurve" smooth="yes"/>
			<point x="12" y="-15"/>
			<point x="28" y="-21"/>
			<point x="33" y="-21" type="qcurve"/>
			<point x="47" y="-23" type="line"/>
			<point x="78" y="-13"/>
			<point x="118" y="20"/>
			<point x="146" y="62"/>
			<point x="164" y="109"/>
			<point x="172" y="133" type="qcurve"/>
			<point x="175" y="153"/>
			<point x="190" y="192"/>
			<point x="203" y="206" type="qcurve"/>
			<point x="222" y="239"/>
			<point x="263" y="311"/>
			<point x="302" y="390"/>
			<point x="335" y="476"/>
		</contour>
	</outline>
</glyph>
<glyph name="zero" format="2">
	<advance width="511"/>
	<unicode hex="0030"/>
	<note>
		zero
  </note>
	<outline>
		<contour>
			<point x="248" y="-16" type="qcurve" smooth="yes"/>
			<point x="333" y="-16"/>
			<point x="448" y="78"/>
			<point x="474" y="166" type="qcurve"/>
			<point x="476" y="171"/>
			<point x="476" y="179" type="qcurve" smooth="yes"/>
			<point x="476" y="187" type="line"/>
			<point x="480" y="198"/>
			<point x="491" y="208"/>
			<point x="491" y="219" type="qcurve" smooth="yes"/>
			<point x="491" y="224"/>
			<point x="490" y="226" type="qcurve"/>
			<point x="490" y="228"/>
			<point x="491" y="231"/>
			<point x="491" y="233" type="qcurve" smooth="yes"/>
			<point x="491" y="236"/>
			<point x="489" y="242" type="qcurve" smooth="yes"/>
			<point x="452" y="348"/>
			<point x="337" y="461"/>
			<point x="259" y="461" type="qcurve" smooth="yes"/>
			<point x="210" y="461"/>
			<point x="123" y="422"/>
			<point x="58" y="359"/>
			<point x="20" y="278"/>
			<point x="20" y="237" type="qcurve" smooth="yes"/>
			<point x="20" y="195"/>
			<point x="35" y="150" type="qcurve" smooth="yes"/>
			<point x="61" y="69"/>
			<point x="170" y="-15"/>
		</contour>
		<contour>
			<point x="258" y="409" type="qcurve" smooth="yes"/>
			<point x="376" y="409"/>
			<point x="438" y="230" type="qcurve"/>
			<point x="432" y="223"/>
			<point x="426" y="207"/>
			<point x="424" y="192"/>
			<point x="424" y="182"/>
			<point x="423" y="181" type="qcurve"/>
			<point x="416" y="156"/>
			<point x="390" y="105"/>
			<point x="348" y="63"/>
			<point x="289" y="37"/>
			<point x="248" y="37" type="qcurve" smooth="yes"/>
			<point x="213" y="37"/>
			<point x="150" y="63"/>
			<point x="102" y="113"/>
			<point x="73" y="188"/>
			<point x="73" y="236" type="qcurve" smooth="yes"/>
			<point x="73" y="269"/>
			<point x="104" y="331"/>
			<point x="155" y="379"/>
			<point x="222" y="409"/>
		</contour>
	</outline>
</glyph>
<glyph name="one" format="2">
	<advance width="388"/>
	<unicode hex="0031"/>
	<note>
		one
  </note>
	<outline>
		<contour>
			<point x="338" y="-31" type="qcurve" smooth="yes"/>
			<point x="347" y="-31"/>
			<point x="364" y="-17"/>
			<point x="364" y="-5" type="qcurve" smooth="yes"/>
			<point x="364" y="10"/>
			<point x="326" y="33"/>
			<point x="275" y="49"/>
			<point x="223" y="57"/>
			<point x="209" y="58" type="qcurve"/>
			<point x="208" y="63"/>
			<point x="208" y="73" type="qcurve" smooth="yes"/>
			<point x="208" y="108"/>
			<point x="227" y="180"/>
			<point x="227" y="218" type="qcurve" smooth="yes"/>
			<point x="227" y="227"/>
			<point x="226" y="247"/>
			<point x="221" y="265"/>
			<point x="209" y="276"/>
			<point x="199" y="276" type="qcurve" smooth="yes"/>
			<point x="186" y="276"/>
			<point x="172" y="262"/>
			<point x="172" y="251" type="qcurve" smooth="yes"/>
			<point x="172" y="243"/>
			<point x="176" y="226"/>
			<point x="176" y="218" type="qcurve" smooth="yes"/>
			<point x="176" y="185"/>
			<point x="155" y="110"/>
			<point x="155" y="73" type="qcurve" smooth="yes"/>
			<point x="155" y="69"/>
			<point x="155" y="61"/>
			<point x="156" y="56" type="qcurve"/>
			<point x="143" y="54"/>
			<point x="102" y="44"/>
			<point x="62" y="29"/>
			<point x="33" y="8"/>
			<point x="33" y="-5" type="qcurve" smooth="yes"/>
			<point x="33" y="-16"/>
			<point x="48" y="-31"/>
			<point x="58" y="-31" type="qcurve" smooth="yes"/>
			<point x="63" y="-31"/>
			<point x="71" y="-27" type="qcurve" smooth="yes"/>
			<point x="132" y="6"/>
			<point x="195" y="6" type="qcurve" smooth="yes"/>
			<point x="261" y="6"/>
			<point x="326" y="-28" type="qcurve" smooth="yes"/>
			<point x="332" y="-31"/>
		</contour>
		<contour>
			<point x="142" y="404" type="qcurve" smooth="yes"/>
			<point x="164" y="404"/>
			<point x="207" y="409"/>
			<point x="229" y="412" type="qcurve" smooth="yes"/>
			<point x="243" y="414"/>
			<point x="279" y="415"/>
			<point x="311" y="420"/>
			<point x="333" y="433"/>
			<point x="333" y="446" type="qcurve" smooth="yes"/>
			<point x="333" y="457"/>
			<point x="318" y="472"/>
			<point x="307" y="472" type="qcurve" smooth="yes"/>
			<point x="264" y="472"/>
			<point x="181" y="456"/>
			<point x="142" y="456" type="qcurve" smooth="yes"/>
			<point x="103" y="456"/>
			<point x="69" y="470" type="qcurve"/>
			<point x="66" y="472"/>
			<point x="59" y="472" type="qcurve" smooth="yes"/>
			<point x="48" y="472"/>
			<point x="32" y="456"/>
			<point x="32" y="445" type="qcurve" smooth="yes"/>
			<point x="32" y="432"/>
			<point x="58" y="416"/>
			<point x="93" y="407"/>
			<point x="130" y="404"/>
		</contour>
	</outline>
</glyph>
<glyph name="two" format="2">
	<advance width="539"/>
	<unicode hex="0032"/>
	<note>
		two
  </note>
	<outline>
		<contour>
			<point x="67" y="-6" type="qcurve" smooth="yes"/>
			<point x="69" y="-6"/>
			<point x="77" y="-4" type="qcurve"/>
			<point x="165" y="35"/>
			<point x="236" y="35" type="qcurve" smooth="yes"/>
			<point x="256" y="35"/>
			<point x="297" y="26"/>
			<point x="337" y="15"/>
			<point x="375" y="6"/>
			<point x="393" y="6" type="qcurve" smooth="yes"/>
			<point x="446" y="6"/>
			<point x="512" y="79"/>
			<point x="512" y="137" type="qcurve" smooth="yes"/>
			<point x="512" y="156"/>
			<point x="503" y="181"/>
			<point x="485" y="181" type="qcurve" smooth="yes"/>
			<point x="474" y="181"/>
			<point x="459" y="166"/>
			<point x="459" y="155" type="qcurve" smooth="yes"/>
			<point x="459" y="150"/>
			<point x="460" y="140"/>
			<point x="460" y="135" type="qcurve" smooth="yes"/>
			<point x="460" y="100"/>
			<point x="425" y="58"/>
			<point x="393" y="58" type="qcurve" smooth="yes"/>
			<point x="384" y="58"/>
			<point x="366" y="62"/>
			<point x="357" y="65" type="qcurve" smooth="yes"/>
			<point x="300" y="84"/>
			<point x="250" y="86" type="qcurve"/>
			<point x="260" y="121"/>
			<point x="307" y="172"/>
			<point x="336" y="198" type="qcurve" smooth="yes"/>
			<point x="377" y="236"/>
			<point x="436" y="311"/>
			<point x="436" y="349" type="qcurve" smooth="yes"/>
			<point x="436" y="374"/>
			<point x="412" y="415"/>
			<point x="374" y="445"/>
			<point x="328" y="462"/>
			<point x="306" y="462" type="qcurve" smooth="yes"/>
			<point x="276" y="462"/>
			<point x="245" y="452" type="qcurve" smooth="yes"/>
			<point x="224" y="445"/>
			<point x="194" y="420"/>
			<point x="170" y="395"/>
			<point x="149" y="376"/>
			<point x="136" y="376" type="qcurve" smooth="yes"/>
			<point x="134" y="376"/>
			<point x="132" y="377"/>
			<point x="130" y="377" type="qcurve" smooth="yes"/>
			<point x="119" y="377"/>
			<point x="103" y="364"/>
			<point x="103" y="352" type="qcurve" smooth="yes"/>
			<point x="103" y="337"/>
			<point x="121" y="325"/>
			<point x="135" y="325" type="qcurve" smooth="yes"/>
			<point x="166" y="325"/>
			<point x="205" y="355"/>
			<point x="221" y="372" type="qcurve" smooth="yes"/>
			<point x="243" y="395"/>
			<point x="284" y="410"/>
			<point x="305" y="410" type="qcurve" smooth="yes"/>
			<point x="317" y="410"/>
			<point x="345" y="401"/>
			<point x="369" y="384"/>
			<point x="384" y="362"/>
			<point x="384" y="349" type="qcurve" smooth="yes"/>
			<point x="384" y="319"/>
			<point x="333" y="264"/>
			<point x="267" y="204"/>
			<point x="206" y="132"/>
			<point x="196" y="85" type="qcurve"/>
			<point x="196" y="84" type="line"/>
			<point x="175" y="81"/>
			<point x="121" y="69"/>
			<point x="73" y="53"/>
			<point x="40" y="33"/>
			<point x="40" y="21" type="qcurve" smooth="yes"/>
			<point x="40" y="8"/>
			<point x="56" y="-6"/>
		</contour>
	</outline>
</glyph>
<glyph name="three" format="2">
	<advance width="397"/>
	<unicode hex="0033"/>
	<note>
		three
  </note>
	<outline>
		<contour>
			<point x="94" y="76" type="qcurve" smooth="yes"/>
			<point x="105" y="76"/>
			<point x="128" y="86"/>
			<point x="149" y="101"/>
			<point x="167" y="118"/>
			<point x="173" y="124" type="qcurve"/>
			<point x="202" y="114"/>
			<point x="245" y="98"/>
			<point x="274" y="75"/>
			<point x="288" y="41"/>
			<point x="288" y="14" type="qcurve" smooth="yes"/>
			<point x="288" y="-42"/>
			<point x="249" y="-133"/>
			<point x="176" y="-197"/>
			<point x="69" y="-232"/>
			<point x="1" y="-233" type="qcurve" smooth="yes"/>
			<point x="-10" y="-233"/>
			<point x="-25" y="-248"/>
			<point x="-25" y="-259" type="qcurve" smooth="yes"/>
			<point x="-25" y="-270"/>
			<point x="-9" y="-285"/>
			<point x="2" y="-285" type="qcurve" smooth="yes"/>
			<point x="47" y="-285"/>
			<point x="127" y="-274"/>
			<point x="169" y="-254" type="qcurve" smooth="yes"/>
			<point x="249" y="-216"/>
			<point x="341" y="-84"/>
			<point x="341" y="14" type="qcurve" smooth="yes"/>
			<point x="341" y="76"/>
			<point x="272" y="154"/>
			<point x="206" y="169" type="qcurve"/>
			<point x="216" y="185"/>
			<point x="233" y="215"/>
			<point x="249" y="243"/>
			<point x="268" y="268"/>
			<point x="281" y="278" type="qcurve" smooth="yes"/>
			<point x="297" y="291"/>
			<point x="309" y="317"/>
			<point x="309" y="331" type="qcurve" smooth="yes"/>
			<point x="309" y="352"/>
			<point x="288" y="390"/>
			<point x="279" y="401" type="qcurve"/>
			<point x="260" y="432"/>
			<point x="219" y="461"/>
			<point x="190" y="461" type="qcurve" smooth="yes"/>
			<point x="159" y="461"/>
			<point x="126" y="437" type="qcurve" smooth="yes"/>
			<point x="115" y="429"/>
			<point x="90" y="408"/>
			<point x="67" y="385"/>
			<point x="52" y="363"/>
			<point x="52" y="356" type="qcurve" smooth="yes"/>
			<point x="52" y="346"/>
			<point x="69" y="330"/>
			<point x="79" y="330" type="qcurve" smooth="yes"/>
			<point x="89" y="330"/>
			<point x="97" y="338" type="qcurve" smooth="yes"/>
			<point x="116" y="357" type="line" smooth="yes"/>
			<point x="136" y="377"/>
			<point x="172" y="409"/>
			<point x="191" y="409" type="qcurve" smooth="yes"/>
			<point x="210" y="409"/>
			<point x="226" y="387" type="qcurve"/>
			<point x="233" y="373"/>
			<point x="245" y="356"/>
			<point x="253" y="346"/>
			<point x="257" y="338"/>
			<point x="257" y="333" type="qcurve" smooth="yes"/>
			<point x="257" y="326"/>
			<point x="247" y="318" type="qcurve"/>
			<point x="221" y="295"/>
			<point x="187" y="238"/>
			<point x="154" y="183"/>
			<point x="115" y="137"/>
			<point x="85" y="126" type="qcurve"/>
			<point x="68" y="119"/>
			<point x="68" y="102" type="qcurve" smooth="yes"/>
			<point x="68" y="88"/>
			<point x="84" y="76"/>
		</contour>
	</outline>
</glyph>
<glyph name="four" format="2">
	<advance width="569"/>
	<unicode hex="0034"/>
	<note>
		four
  </note>
	<outline>
		<contour>
			<point x="530" y="51" type="qcurve" smooth="yes"/>
			<point x="376" y="51" type="line"/>
			<point x="375" y="67"/>
			<point x="375" y="98"/>
			<point x="375" y="115" type="qcurve" smooth="yes"/>
			<point x="375" y="212"/>
			<point x="395" y="405"/>
			<point x="427" y="499" type="qcurve" smooth="yes"/>
			<point x="429" y="505"/>
			<point x="429" y="508" type="qcurve" smooth="yes"/>
			<point x="429" y="518"/>
			<point x="415" y="533"/>
			<point x="402" y="533" type="qcurve" smooth="yes"/>
			<point x="389" y="533"/>
			<point x="369" y="494"/>
			<point x="354" y="439"/>
			<point x="343" y="381"/>
			<point x="340" y="363" type="qcurve"/>
			<point x="332" y="368"/>
			<point x="326" y="368" type="qcurve" smooth="yes"/>
			<point x="323" y="368"/>
			<point x="317" y="366" type="qcurve" smooth="yes"/>
			<point x="260" y="347"/>
			<point x="183" y="279"/>
			<point x="121" y="192"/>
			<point x="61" y="93"/>
			<point x="21" y="43" type="qcurve" smooth="yes"/>
			<point x="15" y="35"/>
			<point x="15" y="27" type="qcurve" smooth="yes"/>
			<point x="15" y="15"/>
			<point x="31" y="0"/>
			<point x="41" y="0" type="qcurve" smooth="yes"/>
			<point x="324" y="0" type="line"/>
			<point x="324" y="-54"/>
			<point x="330" y="-160"/>
			<point x="330" y="-214" type="qcurve" smooth="yes"/>
			<point x="330" y="-225"/>
			<point x="345" y="-240"/>
			<point x="356" y="-240" type="qcurve" smooth="yes"/>
			<point x="367" y="-240"/>
			<point x="382" y="-225"/>
			<point x="382" y="-214" type="qcurve" smooth="yes"/>
			<point x="382" y="-172"/>
			<point x="380" y="-90"/>
			<point x="379" y="-48" type="qcurve"/>
			<point x="376" y="0" type="line"/>
			<point x="534" y="0" type="line"/>
			<point x="542" y="6"/>
			<point x="542" y="25" type="qcurve" smooth="yes"/>
			<point x="542" y="36"/>
			<point x="535" y="51"/>
		</contour>
		<contour>
			<point x="131" y="51" type="line"/>
			<point x="131" y="52" type="line"/>
			<point x="94" y="52" type="line"/>
			<point x="107" y="72"/>
			<point x="134" y="113"/>
			<point x="147" y="133" type="qcurve" smooth="yes"/>
			<point x="162" y="157" type="line" smooth="yes"/>
			<point x="197" y="212"/>
			<point x="274" y="297"/>
			<point x="334" y="317" type="qcurve"/>
			<point x="328" y="269"/>
			<point x="323" y="171"/>
			<point x="323" y="122" type="qcurve" smooth="yes"/>
			<point x="323" y="104"/>
			<point x="323" y="68"/>
			<point x="324" y="51" type="qcurve"/>
		</contour>
	</outline>
</glyph>
<glyph name="five" format="2">
	<advance width="364"/>
	<unicode hex="0035"/>
	<note>
		five
  </note>
	<outline>
		<contour>
			<point x="19" y="-317" type="qcurve" smooth="yes"/>
			<point x="24" y="-317"/>
			<point x="30" y="-314" type="qcurve" smooth="yes"/>
			<point x="274" y="-199"/>
			<point x="274" y="-29" type="qcurve" smooth="yes"/>
			<point x="274" y="109"/>
			<point x="112" y="285" type="qcurve"/>
			<point x="126" y="316"/>
			<point x="153" y="348"/>
			<point x="180" y="348" type="qcurve" smooth="yes"/>
			<point x="191" y="348"/>
			<point x="221" y="342"/>
			<point x="234" y="342" type="qcurve" smooth="yes"/>
			<point x="248" y="342"/>
			<point x="284" y="350"/>
			<point x="317" y="373"/>
			<point x="339" y="414"/>
			<point x="339" y="447" type="qcurve" smooth="yes"/>
			<point x="339" y="456"/>
			<point x="326" y="469"/>
			<point x="316" y="471" type="qcurve"/>
			<point x="305" y="471"/>
			<point x="289" y="460"/>
			<point x="287" y="448" type="qcurve" smooth="yes"/>
			<point x="283" y="419"/>
			<point x="256" y="395"/>
			<point x="233" y="395" type="qcurve" smooth="yes"/>
			<point x="218" y="395"/>
			<point x="191" y="400"/>
			<point x="179" y="400" type="qcurve" smooth="yes"/>
			<point x="152" y="400"/>
			<point x="115" y="381"/>
			<point x="88" y="353"/>
			<point x="70" y="318"/>
			<point x="63" y="303" type="qcurve" smooth="yes"/>
			<point x="57" y="291" type="line"/>
			<point x="56" y="288"/>
			<point x="55" y="283"/>
			<point x="55" y="280" type="qcurve" smooth="yes"/>
			<point x="55" y="270"/>
			<point x="62" y="262" type="qcurve"/>
			<point x="222" y="95"/>
			<point x="222" y="-29" type="qcurve" smooth="yes"/>
			<point x="222" y="-167"/>
			<point x="8" y="-267" type="qcurve" smooth="yes"/>
			<point x="-8" y="-275"/>
			<point x="-8" y="-291" type="qcurve" smooth="yes"/>
			<point x="-8" y="-303"/>
			<point x="9" y="-317"/>
		</contour>
	</outline>
</glyph>
<glyph name="six" format="2">
	<advance width="563"/>
	<unicode hex="0036"/>
	<note>
		six
  </note>
	<outline>
		<contour>
			<point x="288" y="-38" type="qcurve" smooth="yes"/>
			<point x="301" y="-38" type="line"/>
			<point x="342" y="-35"/>
			<point x="413" y="1"/>
			<point x="466" y="64"/>
			<point x="496" y="152"/>
			<point x="496" y="206" type="qcurve" smooth="yes"/>
			<point x="496" y="247"/>
			<point x="467" y="320"/>
			<point x="413" y="378"/>
			<point x="337" y="419"/>
			<point x="290" y="429" type="qcurve" smooth="yes"/>
			<point x="259" y="436"/>
			<point x="200" y="441"/>
			<point x="171" y="444" type="qcurve"/>
			<point x="195" y="490"/>
			<point x="266" y="573"/>
			<point x="356" y="642"/>
			<point x="463" y="694"/>
			<point x="523" y="709" type="qcurve" smooth="yes"/>
			<point x="543" y="714"/>
			<point x="543" y="732" type="qcurve" smooth="yes"/>
			<point x="543" y="745"/>
			<point x="529" y="760"/>
			<point x="518" y="760" type="qcurve" smooth="yes"/>
			<point x="513" y="760"/>
			<point x="511" y="759" type="qcurve"/>
			<point x="414" y="735"/>
			<point x="253" y="637"/>
			<point x="138" y="506"/>
			<point x="74" y="349"/>
			<point x="74" y="267" type="qcurve" smooth="yes"/>
			<point x="74" y="248"/>
			<point x="80" y="188"/>
			<point x="97" y="120"/>
			<point x="127" y="52"/>
			<point x="175" y="-3"/>
			<point x="242" y="-38"/>
		</contour>
		<contour>
			<point x="150" y="395" type="qcurve"/>
			<point x="179" y="385"/>
			<point x="249" y="384"/>
			<point x="280" y="378" type="qcurve" smooth="yes"/>
			<point x="316" y="370"/>
			<point x="377" y="339"/>
			<point x="421" y="295"/>
			<point x="445" y="240"/>
			<point x="445" y="210" type="qcurve" smooth="yes"/>
			<point x="445" y="192"/>
			<point x="435" y="127"/>
			<point x="402" y="63"/>
			<point x="339" y="15"/>
			<point x="287" y="15" type="qcurve" smooth="yes"/>
			<point x="229" y="15"/>
			<point x="158" y="94"/>
			<point x="136" y="184" type="qcurve" smooth="yes"/>
			<point x="126" y="223"/>
			<point x="126" y="266" type="qcurve" smooth="yes"/>
			<point x="126" y="332"/>
		</contour>
	</outline>
</glyph>
<glyph name="seven" format="2">
	<advance width="453"/>
	<unicode hex="0037"/>
	<note>
		seven
  </note>
	<outline>
		<contour>
			<point x="153" y="-255" type="qcurve" smooth="yes"/>
			<point x="171" y="-255"/>
			<point x="177" y="-239" type="qcurve" smooth="yes"/>
			<point x="209" y="-158"/>
			<point x="267" y="3"/>
			<point x="325" y="162"/>
			<point x="387" y="320"/>
			<point x="424" y="398" type="qcurve" smooth="yes"/>
			<point x="427" y="404"/>
			<point x="427" y="409" type="qcurve" smooth="yes"/>
			<point x="427" y="418"/>
			<point x="413" y="435"/>
			<point x="402" y="435" type="qcurve" smooth="yes"/>
			<point x="388" y="435"/>
			<point x="380" y="425" type="qcurve"/>
			<point x="338" y="439"/>
			<point x="249" y="444"/>
			<point x="207" y="444" type="qcurve" smooth="yes"/>
			<point x="173" y="444"/>
			<point x="107" y="441"/>
			<point x="73" y="441" type="qcurve" smooth="yes"/>
			<point x="62" y="441"/>
			<point x="41" y="443"/>
			<point x="30" y="443" type="qcurve" smooth="yes"/>
			<point x="18" y="443"/>
			<point x="2" y="429"/>
			<point x="2" y="418" type="qcurve" smooth="yes"/>
			<point x="2" y="405"/>
			<point x="16" y="393"/>
			<point x="38" y="388"/>
			<point x="62" y="389"/>
			<point x="73" y="389" type="qcurve" smooth="yes"/>
			<point x="108" y="389"/>
			<point x="176" y="392"/>
			<point x="208" y="392" type="qcurve" smooth="yes"/>
			<point x="246" y="392"/>
			<point x="319" y="386"/>
			<point x="357" y="377" type="qcurve"/>
			<point x="324" y="303"/>
			<point x="267" y="154"/>
			<point x="213" y="5"/>
			<point x="158" y="-145"/>
			<point x="128" y="-219" type="qcurve"/>
			<point x="126" y="-225"/>
			<point x="126" y="-229" type="qcurve" smooth="yes"/>
			<point x="126" y="-240"/>
			<point x="142" y="-255"/>
		</contour>
	</outline>
</glyph>
<glyph name="eight" format="2">
	<advance width="480"/>
	<unicode hex="0038"/>
	<note>
		eight
  </note>
	<outline>
		<contour>
			<point x="246" y="-36" type="qcurve" smooth="yes"/>
			<point x="280" y="-36"/>
			<point x="343" y="-8"/>
			<point x="391" y="42"/>
			<point x="420" y="111"/>
			<point x="420" y="151" type="qcurve" smooth="yes"/>
			<point x="420" y="184"/>
			<point x="400" y="238"/>
			<point x="366" y="283"/>
			<point x="322" y="319"/>
			<point x="298" y="334" type="qcurve"/>
			<point x="309" y="353"/>
			<point x="335" y="393"/>
			<point x="349" y="406" type="qcurve" smooth="yes"/>
			<point x="367" y="423"/>
			<point x="397" y="477"/>
			<point x="397" y="516" type="qcurve" smooth="yes"/>
			<point x="397" y="545"/>
			<point x="378" y="604"/>
			<point x="339" y="652"/>
			<point x="279" y="682"/>
			<point x="237" y="682" type="qcurve" smooth="yes"/>
			<point x="196" y="682"/>
			<point x="135" y="657"/>
			<point x="93" y="615"/>
			<point x="72" y="557"/>
			<point x="72" y="524" type="qcurve" smooth="yes"/>
			<point x="72" y="510"/>
			<point x="84" y="491"/>
			<point x="98" y="491" type="qcurve" smooth="yes"/>
			<point x="99" y="491" type="line" smooth="yes"/>
			<point x="110" y="491"/>
			<point x="124" y="505"/>
			<point x="124" y="516" type="qcurve" smooth="yes"/>
			<point x="124" y="527" type="line" smooth="yes"/>
			<point x="124" y="572"/>
			<point x="178" y="629"/>
			<point x="238" y="629" type="qcurve" smooth="yes"/>
			<point x="272" y="629"/>
			<point x="315" y="605"/>
			<point x="337" y="569"/>
			<point x="345" y="530"/>
			<point x="345" y="515" type="qcurve" smooth="yes"/>
			<point x="345" y="473"/>
			<point x="314" y="445" type="qcurve" smooth="yes"/>
			<point x="298" y="431"/>
			<point x="276" y="397"/>
			<point x="265" y="379" type="qcurve" smooth="yes"/>
			<point x="252" y="359" type="line"/>
			<point x="231" y="371"/>
			<point x="191" y="390"/>
			<point x="153" y="410"/>
			<point x="117" y="432"/>
			<point x="100" y="446" type="qcurve"/>
			<point x="93" y="453"/>
			<point x="83" y="453" type="qcurve" smooth="yes"/>
			<point x="74" y="453"/>
			<point x="57" y="439"/>
			<point x="57" y="427" type="qcurve" smooth="yes"/>
			<point x="57" y="415"/>
			<point x="83" y="390"/>
			<point x="119" y="367"/>
			<point x="159" y="347"/>
			<point x="173" y="340" type="qcurve"/>
			<point x="169" y="336"/>
			<point x="167" y="330" type="qcurve" smooth="yes"/>
			<point x="158" y="304"/>
			<point x="136" y="255"/>
			<point x="113" y="235" type="qcurve" smooth="yes"/>
			<point x="61" y="189"/>
			<point x="61" y="129" type="qcurve" smooth="yes"/>
			<point x="61" y="94"/>
			<point x="98" y="33"/>
			<point x="153" y="-11"/>
			<point x="218" y="-36"/>
		</contour>
		<contour>
			<point x="217" y="319" type="qcurve"/>
			<point x="243" y="306"/>
			<point x="297" y="275"/>
			<point x="340" y="235"/>
			<point x="367" y="184"/>
			<point x="367" y="151" type="qcurve" smooth="yes"/>
			<point x="367" y="121"/>
			<point x="346" y="71"/>
			<point x="312" y="35"/>
			<point x="268" y="16"/>
			<point x="246" y="16" type="qcurve" smooth="yes"/>
			<point x="229" y="16"/>
			<point x="183" y="32"/>
			<point x="142" y="62"/>
			<point x="114" y="104"/>
			<point x="114" y="129" type="qcurve" smooth="yes"/>
			<point x="114" y="165"/>
			<point x="148" y="196" type="qcurve" smooth="yes"/>
			<point x="177" y="222"/>
			<point x="206" y="284"/>
			<point x="216" y="314" type="qcurve"/>
			<point x="217" y="315"/>
		</contour>
	</outline>
</glyph>
<glyph name="nine" format="2">
	<advance width="459"/>
	<unicode hex="0039"/>
	<note>
		nine
  </note>
	<outline>
		<contour>
			<point x="8" y="-299" type="qcurve" smooth="yes"/>
			<point x="10" y="-299" type="line"/>
			<point x="150" y="-289"/>
			<point x="327" y="-150"/>
			<point x="375" y="-12" type="qcurve" smooth="yes"/>
			<point x="385" y="17"/>
			<point x="410" y="75"/>
			<point x="431" y="133"/>
			<point x="445" y="192"/>
			<point x="445" y="223" type="qcurve" smooth="yes"/>
			<point x="445" y="269"/>
			<point x="402" y="360"/>
			<point x="332" y="433"/>
			<point x="244" y="478"/>
			<point x="198" y="478" type="qcurve" smooth="yes"/>
			<point x="169" y="478"/>
			<point x="142" y="471" type="qcurve" smooth="yes"/>
			<point x="121" y="466"/>
			<point x="74" y="413"/>
			<point x="35" y="340"/>
			<point x="10" y="255"/>
			<point x="10" y="218" type="qcurve" smooth="yes"/>
			<point x="10" y="201"/>
			<point x="15" y="184" type="qcurve"/>
			<point x="35" y="125"/>
			<point x="102" y="57"/>
			<point x="185" y="19"/>
			<point x="279" y="6"/>
			<point x="325" y="3" type="qcurve"/>
			<point x="284" y="-117"/>
			<point x="127" y="-239"/>
			<point x="6" y="-247" type="qcurve" smooth="yes"/>
			<point x="-5" y="-248"/>
			<point x="-18" y="-261"/>
			<point x="-18" y="-272" type="qcurve" smooth="yes"/>
			<point x="-18" y="-284"/>
			<point x="-4" y="-299"/>
		</contour>
		<contour>
			<point x="199" y="425" type="qcurve" smooth="yes"/>
			<point x="233" y="425"/>
			<point x="302" y="390"/>
			<point x="358" y="332"/>
			<point x="393" y="259"/>
			<point x="393" y="222" type="qcurve" smooth="yes"/>
			<point x="393" y="181"/>
			<point x="363" y="98"/>
			<point x="344" y="54" type="qcurve"/>
			<point x="291" y="57"/>
			<point x="202" y="70"/>
			<point x="132" y="101"/>
			<point x="80" y="156"/>
			<point x="64" y="201" type="qcurve"/>
			<point x="62" y="209"/>
			<point x="62" y="217" type="qcurve" smooth="yes"/>
			<point x="62" y="229"/>
			<point x="68" y="264"/>
			<point x="79" y="303"/>
			<point x="95" y="345"/>
			<point x="106" y="364" type="qcurve" smooth="yes"/>
			<point x="123" y="394"/>
			<point x="149" y="418"/>
			<point x="154" y="420" type="qcurve"/>
			<point x="166" y="422"/>
			<point x="188" y="425"/>
		</contour>
	</outline>
</glyph>
<glyph name="colon" format="2">
	<advance width="157"/>
	<unicode hex="003A"/>
	<note>
		colon
  </note>
	<outline>
		<contour>
			<point x="43" y="264" type="qcurve" smooth="yes"/>
			<point x="51" y="264"/>
			<point x="66" y="276"/>
			<point x="68" y="287" type="qcurve" smooth="yes"/>
			<point x="70" y="299"/>
			<point x="91" y="315"/>
			<point x="114" y="329"/>
			<point x="133" y="344"/>
			<point x="133" y="353" type="qcurve" smooth="yes"/>
			<point x="133" y="365"/>
			<point x="115" y="382"/>
			<point x="106" y="382" type="qcurve" smooth="yes"/>
			<point x="96" y="382"/>
			<point x="65" y="367"/>
			<point x="35" y="342"/>
			<point x="14" y="310"/>
			<point x="14" y="293" type="qcurve" smooth="yes"/>
			<point x="14" y="284"/>
			<point x="32" y="264"/>
		</contour>
		<contour>
			<point x="39" y="64" type="line" smooth="yes"/>
			<point x="50" y="64"/>
			<point x="60" y="78"/>
			<point x="71" y="99"/>
			<point x="90" y="121"/>
			<point x="111" y="129" type="qcurve"/>
			<point x="128" y="137"/>
			<point x="128" y="153" type="qcurve" smooth="yes"/>
			<point x="128" y="162"/>
			<point x="113" y="181"/>
			<point x="100" y="181" type="qcurve" smooth="yes"/>
			<point x="88" y="181"/>
			<point x="57" y="165"/>
			<point x="30" y="140"/>
			<point x="12" y="107"/>
			<point x="12" y="89" type="qcurve" smooth="yes"/>
			<point x="12" y="80"/>
			<point x="24" y="66"/>
			<point x="32" y="64" type="qcurve"/>
		</contour>
	</outline>
</glyph>
<glyph name="less" format="2">
	<advance width="314"/>
	<unicode hex="003C"/>
	<note>
		less
  </note>
	<outline>
		<contour>
			<point x="219" y="61" type="qcurve" smooth="yes"/>
			<point x="227" y="61"/>
			<point x="243" y="74"/>
			<point x="243" y="86" type="qcurve" smooth="yes"/>
			<point x="243" y="98"/>
			<point x="235" y="103" type="qcurve"/>
			<point x="210" y="125"/>
			<point x="176" y="174"/>
			<point x="148" y="228"/>
			<point x="119" y="286"/>
			<point x="100" y="317" type="qcurve" smooth="yes"/>
			<point x="95" y="325"/>
			<point x="84" y="335"/>
			<point x="75" y="335" type="qcurve" smooth="yes"/>
			<point x="67" y="335"/>
			<point x="50" y="318"/>
			<point x="50" y="309" type="qcurve" smooth="yes"/>
			<point x="50" y="306"/>
			<point x="52" y="302" type="qcurve"/>
			<point x="73" y="267"/>
			<point x="105" y="203"/>
			<point x="137" y="145"/>
			<point x="175" y="91"/>
			<point x="202" y="67" type="qcurve"/>
			<point x="208" y="61"/>
		</contour>
		<contour>
			<point x="48" y="373" type="qcurve"/>
			<point x="49" y="369"/>
			<point x="59" y="357"/>
			<point x="67" y="357" type="qcurve" smooth="yes"/>
			<point x="74" y="357"/>
			<point x="85" y="365"/>
			<point x="92" y="370" type="qcurve" smooth="yes"/>
			<point x="128" y="395"/>
			<point x="168" y="448"/>
			<point x="198" y="498"/>
			<point x="230" y="543"/>
			<point x="258" y="561" type="qcurve"/>
			<point x="271" y="571"/>
			<point x="271" y="581" type="qcurve" smooth="yes"/>
			<point x="271" y="592"/>
			<point x="256" y="606"/>
			<point x="245" y="606" type="qcurve" smooth="yes"/>
			<point x="237" y="606"/>
			<point x="232" y="602" type="qcurve"/>
			<point x="202" y="582"/>
			<point x="164" y="533"/>
			<point x="130" y="480"/>
			<point x="91" y="427"/>
			<point x="58" y="405" type="qcurve"/>
			<point x="55" y="402"/>
			<point x="47" y="384"/>
			<point x="47" y="377" type="qcurve" smooth="yes"/>
			<point x="47" y="374"/>
		</contour>
	</outline>
</glyph>
<glyph name="equal" format="2">
	<advance width="272"/>
	<unicode hex="003D"/>
	<note>
		equal
  </note>
	<outline>
		<contour>
			<point x="108" y="270" type="qcurve" smooth="yes"/>
			<point x="123" y="270"/>
			<point x="153" y="274"/>
			<point x="168" y="276" type="qcurve"/>
			<point x="179" y="278"/>
			<point x="205" y="279"/>
			<point x="227" y="282"/>
			<point x="242" y="292"/>
			<point x="242" y="303" type="qcurve" smooth="yes"/>
			<point x="242" y="312"/>
			<point x="229" y="325"/>
			<point x="220" y="325" type="qcurve" smooth="yes"/>
			<point x="191" y="325"/>
			<point x="134" y="313"/>
			<point x="107" y="313" type="qcurve" smooth="yes"/>
			<point x="93" y="313"/>
			<point x="64" y="325"/>
			<point x="52" y="325" type="qcurve" smooth="yes"/>
			<point x="44" y="325"/>
			<point x="30" y="312"/>
			<point x="30" y="303" type="qcurve" smooth="yes"/>
			<point x="30" y="292"/>
			<point x="48" y="279"/>
			<point x="74" y="272"/>
			<point x="100" y="270"/>
		</contour>
		<contour>
			<point x="145" y="94" type="qcurve" smooth="yes"/>
			<point x="152" y="94"/>
			<point x="183" y="98"/>
			<point x="214" y="108"/>
			<point x="237" y="125"/>
			<point x="237" y="138" type="qcurve" smooth="yes"/>
			<point x="237" y="147"/>
			<point x="225" y="161"/>
			<point x="215" y="161" type="qcurve" smooth="yes"/>
			<point x="209" y="161"/>
			<point x="201" y="156" type="qcurve"/>
			<point x="187" y="145"/>
			<point x="159" y="137"/>
			<point x="145" y="137" type="qcurve" smooth="yes"/>
			<point x="125" y="137"/>
			<point x="77" y="150"/>
			<point x="56" y="150" type="qcurve" smooth="yes"/>
			<point x="48" y="150"/>
			<point x="34" y="137"/>
			<point x="34" y="128" type="qcurve" smooth="yes"/>
			<point x="34" y="119"/>
			<point x="57" y="106"/>
			<point x="92" y="98"/>
			<point x="130" y="94"/>
		</contour>
	</outline>
</glyph>
<glyph name="greater" format="2">
	<advance width="292"/>
	<unicode hex="003E"/>
	<note>
		greater
  </note>
	<outline>
		<contour>
			<point x="57" y="162" type="qcurve" smooth="yes"/>
			<point x="68" y="162"/>
			<point x="74" y="168" type="qcurve"/>
			<point x="101" y="192"/>
			<point x="152" y="260"/>
			<point x="200" y="337"/>
			<point x="244" y="416"/>
			<point x="264" y="451" type="qcurve"/>
			<point x="266" y="455"/>
			<point x="266" y="458" type="qcurve" smooth="yes"/>
			<point x="266" y="467"/>
			<point x="249" y="484"/>
			<point x="240" y="484" type="qcurve" smooth="yes"/>
			<point x="232" y="484"/>
			<point x="221" y="474"/>
			<point x="216" y="466" type="qcurve" smooth="yes"/>
			<point x="197" y="435"/>
			<point x="156" y="362"/>
			<point x="113" y="290"/>
			<point x="66" y="226"/>
			<point x="41" y="204" type="qcurve"/>
			<point x="32" y="198"/>
			<point x="32" y="187" type="qcurve" smooth="yes"/>
			<point x="32" y="175"/>
			<point x="49" y="162"/>
		</contour>
		<contour>
			<point x="256" y="507" type="qcurve"/>
			<point x="264" y="512"/>
			<point x="269" y="524"/>
			<point x="269" y="526" type="qcurve" smooth="yes"/>
			<point x="269" y="533"/>
			<point x="262" y="552"/>
			<point x="259" y="554" type="qcurve" smooth="yes"/>
			<point x="226" y="576"/>
			<point x="181" y="637"/>
			<point x="140" y="700"/>
			<point x="97" y="757"/>
			<point x="67" y="777" type="qcurve"/>
			<point x="62" y="781"/>
			<point x="53" y="781" type="qcurve" smooth="yes"/>
			<point x="42" y="781"/>
			<point x="28" y="767"/>
			<point x="28" y="756" type="qcurve" smooth="yes"/>
			<point x="28" y="746"/>
			<point x="40" y="737" type="qcurve"/>
			<point x="68" y="718"/>
			<point x="105" y="664"/>
			<point x="143" y="604"/>
			<point x="188" y="544"/>
			<point x="224" y="519" type="qcurve" smooth="yes"/>
			<point x="231" y="514"/>
			<point x="242" y="506"/>
			<point x="249" y="506" type="qcurve" smooth="yes"/>
			<point x="253" y="506"/>
		</contour>
	</outline>
</glyph>
<glyph name="question" format="2">
	<advance width="416"/>
	<unicode hex="003F"/>
	<note>
		question
  </note>
	<outline>
		<contour>
			<point x="124" y="203" type="qcurve" smooth="yes"/>
			<point x="126" y="203" type="line"/>
			<point x="137" y="205"/>
			<point x="155" y="218"/>
			<point x="155" y="228" type="qcurve" smooth="yes"/>
			<point x="155" y="232" type="line"/>
			<point x="155" y="245" type="line"/>
			<point x="153" y="254"/>
			<point x="151" y="272"/>
			<point x="151" y="280" type="qcurve" smooth="yes"/>
			<point x="151" y="296"/>
			<point x="162" y="314"/>
			<point x="180" y="322"/>
			<point x="204" y="325"/>
			<point x="218" y="327" type="qcurve"/>
			<point x="301" y="329"/>
			<point x="389" y="416"/>
			<point x="389" y="493" type="qcurve" smooth="yes"/>
			<point x="389" y="556"/>
			<point x="339" y="643"/>
			<point x="288" y="663" type="qcurve" smooth="yes"/>
			<point x="262" y="673"/>
			<point x="187" y="698"/>
			<point x="145" y="698" type="qcurve" smooth="yes"/>
			<point x="134" y="698"/>
			<point x="100" y="694"/>
			<point x="68" y="684"/>
			<point x="45" y="668"/>
			<point x="45" y="657" type="qcurve" smooth="yes"/>
			<point x="45" y="644"/>
			<point x="65" y="628"/>
			<point x="77" y="628" type="qcurve" smooth="yes"/>
			<point x="92" y="628"/>
			<point x="128" y="643"/>
			<point x="146" y="643" type="qcurve" smooth="yes"/>
			<point x="175" y="643"/>
			<point x="233" y="625"/>
			<point x="262" y="613" type="qcurve" smooth="yes"/>
			<point x="281" y="605"/>
			<point x="306" y="578"/>
			<point x="320" y="544"/>
			<point x="325" y="507"/>
			<point x="325" y="489" type="qcurve" smooth="yes"/>
			<point x="325" y="456"/>
			<point x="305" y="415"/>
			<point x="273" y="391"/>
			<point x="233" y="382"/>
			<point x="213" y="381" type="qcurve" smooth="yes"/>
			<point x="144" y="378"/>
			<point x="88" y="322"/>
			<point x="88" y="278" type="qcurve" smooth="yes"/>
			<point x="88" y="268"/>
			<point x="89" y="250"/>
			<point x="90" y="241" type="qcurve"/>
			<point x="92" y="228" type="line"/>
			<point x="92" y="217"/>
			<point x="111" y="203"/>
		</contour>
		<contour>
			<point x="187" y="-23" type="qcurve" smooth="yes"/>
			<point x="198" y="-23"/>
			<point x="219" y="-11"/>
			<point x="219" y="3" type="qcurve" smooth="yes"/>
			<point x="219" y="13"/>
			<point x="202" y="28"/>
			<point x="181" y="38"/>
			<point x="162" y="45"/>
			<point x="160" y="46" type="qcurve"/>
			<point x="161" y="47"/>
			<point x="170" y="56"/>
			<point x="179" y="66"/>
			<point x="187" y="79"/>
			<point x="187" y="85" type="qcurve" smooth="yes"/>
			<point x="187" y="97"/>
			<point x="166" y="111"/>
			<point x="155" y="111" type="qcurve" smooth="yes"/>
			<point x="143" y="111"/>
			<point x="120" y="96"/>
			<point x="102" y="75"/>
			<point x="91" y="53"/>
			<point x="91" y="46" type="qcurve" smooth="yes"/>
			<point x="91" y="20"/>
			<point x="134" y="-6"/>
			<point x="172" y="-21" type="qcurve"/>
			<point x="178" y="-23"/>
		</contour>
	</outline>
</glyph>
<glyph name="B" format="2">
	<advance width="622"/>
	<unicode hex="0042"/>
	<note>
		B
  </note>
	<outline>
		<contour>
			<point x="38" y="-21" type="qcurve" smooth="yes"/>
			<point x="44" y="-21"/>
			<point x="50" y="-18" type="qcurve" smooth="yes"/>
			<point x="78" y="-3"/>
			<point x="132" y="8"/>
			<point x="161" y="8" type="qcurve" smooth="yes"/>
			<point x="203" y="8"/>
			<point x="291" y="-6"/>
			<point x="336" y="-6" type="qcurve" smooth="yes"/>
			<point x="376" y="-6"/>
			<point x="460" y="22"/>
			<point x="528" y="72"/>
			<point x="572" y="142"/>
			<point x="572" y="184" type="qcurve" smooth="yes"/>
			<point x="572" y="207"/>
			<point x="563" y="258"/>
			<point x="543" y="306"/>
			<point x="511" y="347"/>
			<point x="489" y="362" type="qcurve"/>
			<point x="505" y="399"/>
			<point x="531" y="477"/>
			<point x="531" y="517" type="qcurve" smooth="yes"/>
			<point x="531" y="553"/>
			<point x="501" y="624"/>
			<point x="463" y="658" type="qcurve"/>
			<point x="455" y="664"/>
			<point x="446" y="664" type="qcurve" smooth="yes"/>
			<point x="435" y="664"/>
			<point x="421" y="649"/>
			<point x="421" y="638" type="qcurve" smooth="yes"/>
			<point x="421" y="627"/>
			<point x="430" y="620" type="qcurve"/>
			<point x="458" y="594"/>
			<point x="480" y="542"/>
			<point x="480" y="515" type="qcurve" smooth="yes"/>
			<point x="480" y="483"/>
			<point x="458" y="416"/>
			<point x="443" y="381" type="qcurve"/>
			<point x="412" y="387"/>
			<point x="320" y="393"/>
			<point x="279" y="393" type="qcurve" smooth="yes"/>
			<point x="259" y="393"/>
			<point x="222" y="390"/>
			<point x="202" y="385" type="qcurve"/>
			<point x="203" y="433"/>
			<point x="216" y="525"/>
			<point x="236" y="570" type="qcurve"/>
			<point x="239" y="574"/>
			<point x="239" y="581" type="qcurve" smooth="yes"/>
			<point x="239" y="591"/>
			<point x="223" y="606"/>
			<point x="212" y="606" type="qcurve" smooth="yes"/>
			<point x="200" y="606"/>
			<point x="182" y="580"/>
			<point x="169" y="538"/>
			<point x="160" y="487"/>
			<point x="154" y="437"/>
			<point x="152" y="393"/>
			<point x="152" y="380" type="qcurve" smooth="yes"/>
			<point x="152" y="320"/>
			<point x="163" y="202"/>
			<point x="163" y="142" type="qcurve" smooth="yes"/>
			<point x="163" y="122"/>
			<point x="158" y="81"/>
			<point x="158" y="61" type="qcurve"/>
			<point x="158" y="61"/>
			<point x="159" y="59" type="qcurve"/>
			<point x="145" y="59"/>
			<point x="96" y="53"/>
			<point x="48" y="41"/>
			<point x="13" y="20"/>
			<point x="13" y="4" type="qcurve" smooth="yes"/>
			<point x="13" y="-8"/>
			<point x="29" y="-21"/>
		</contour>
		<contour>
			<point x="255" y="52" type="qcurve"/>
			<point x="243" y="53"/>
			<point x="220" y="55"/>
			<point x="208" y="56" type="qcurve"/>
			<point x="208" y="77"/>
			<point x="213" y="120"/>
			<point x="213" y="141" type="qcurve" smooth="yes"/>
			<point x="213" y="189"/>
			<point x="205" y="285"/>
			<point x="203" y="334" type="qcurve"/>
			<point x="204" y="334" type="line"/>
			<point x="224" y="339"/>
			<point x="262" y="342"/>
			<point x="282" y="342" type="qcurve" smooth="yes"/>
			<point x="308" y="342"/>
			<point x="360" y="338"/>
			<point x="388" y="338" type="qcurve" smooth="yes"/>
			<point x="459" y="336"/>
			<point x="522" y="254"/>
			<point x="522" y="184" type="qcurve" smooth="yes"/>
			<point x="522" y="153"/>
			<point x="486" y="101"/>
			<point x="430" y="64"/>
			<point x="365" y="44"/>
			<point x="336" y="44" type="qcurve" smooth="yes"/>
			<point x="316" y="44"/>
			<point x="276" y="49"/>
		</contour>
	</outline>
</glyph>
<glyph name="C" format="2">
	<advance width="661"/>
	<unicode hex="0043"/>
	<note>
		C
  </note>
	<outline>
		<contour>
			<point x="408" y="-24" type="qcurve" smooth="yes"/>
			<point x="474" y="-24"/>
			<point x="555" y="6"/>
			<point x="602" y="54"/>
			<point x="623" y="114"/>
			<point x="630" y="144" type="qcurve" smooth="yes"/>
			<point x="632" y="154"/>
			<point x="642" y="183"/>
			<point x="642" y="191" type="qcurve" smooth="yes"/>
			<point x="642" y="200"/>
			<point x="630" y="216"/>
			<point x="618" y="216" type="qcurve" smooth="yes"/>
			<point x="609" y="216"/>
			<point x="594" y="206"/>
			<point x="592" y="198" type="qcurve" smooth="yes"/>
			<point x="581" y="156"/>
			<point x="564" y="91"/>
			<point x="529" y="48"/>
			<point x="464" y="26"/>
			<point x="406" y="26" type="qcurve" smooth="yes"/>
			<point x="341" y="26"/>
			<point x="224" y="77"/>
			<point x="134" y="164"/>
			<point x="81" y="281"/>
			<point x="81" y="348" type="qcurve" smooth="yes"/>
			<point x="81" y="399"/>
			<point x="127" y="515"/>
			<point x="204" y="612"/>
			<point x="302" y="676"/>
			<point x="353" y="676" type="qcurve" smooth="yes"/>
			<point x="383" y="676"/>
			<point x="448" y="659"/>
			<point x="509" y="628"/>
			<point x="562" y="585"/>
			<point x="581" y="559" type="qcurve" smooth="yes"/>
			<point x="589" y="548"/>
			<point x="601" y="548" type="qcurve" smooth="yes"/>
			<point x="612" y="548"/>
			<point x="627" y="564"/>
			<point x="627" y="574" type="qcurve" smooth="yes"/>
			<point x="627" y="583"/>
			<point x="623" y="588" type="qcurve"/>
			<point x="600" y="619"/>
			<point x="537" y="670"/>
			<point x="466" y="706"/>
			<point x="390" y="726"/>
			<point x="354" y="726" type="qcurve" smooth="yes"/>
			<point x="293" y="726"/>
			<point x="176" y="656"/>
			<point x="85" y="546"/>
			<point x="30" y="413"/>
			<point x="30" y="350" type="qcurve" smooth="yes"/>
			<point x="30" y="272"/>
			<point x="90" y="136"/>
			<point x="194" y="35"/>
			<point x="331" y="-24"/>
		</contour>
	</outline>
</glyph>
<glyph name="D" format="2">
	<advance width="779"/>
	<unicode hex="0044"/>
	<note>
		D
  </note>
	<outline>
		<contour>
			<point x="396" y="-11" type="qcurve" smooth="yes"/>
			<point x="550" y="-11"/>
			<point x="641" y="93" type="qcurve" smooth="yes"/>
			<point x="660" y="115"/>
			<point x="700" y="169"/>
			<point x="732" y="232"/>
			<point x="752" y="303"/>
			<point x="752" y="343" type="qcurve" smooth="yes"/>
			<point x="752" y="378"/>
			<point x="733" y="456"/>
			<point x="711" y="499" type="qcurve" smooth="yes"/>
			<point x="655" y="607"/>
			<point x="508" y="708"/>
			<point x="407" y="708" type="qcurve" smooth="yes"/>
			<point x="400" y="708"/>
			<point x="388" y="707"/>
			<point x="381" y="707" type="qcurve"/>
			<point x="293" y="699"/>
			<point x="121" y="684"/>
			<point x="33" y="677" type="qcurve" smooth="yes"/>
			<point x="22" y="676"/>
			<point x="10" y="662"/>
			<point x="10" y="651" type="qcurve" smooth="yes"/>
			<point x="10" y="640"/>
			<point x="25" y="625"/>
			<point x="35" y="625" type="qcurve" smooth="yes"/>
			<point x="64" y="625"/>
			<point x="122" y="636"/>
			<point x="150" y="636" type="qcurve"/>
			<point x="146" y="632"/>
			<point x="146" y="621" type="qcurve" smooth="yes"/>
			<point x="146" y="490" type="line" smooth="yes"/>
			<point x="146" y="461"/>
			<point x="147" y="403"/>
			<point x="146" y="374" type="qcurve" smooth="yes"/>
			<point x="146" y="319"/>
			<point x="144" y="209"/>
			<point x="144" y="153" type="qcurve" smooth="yes"/>
			<point x="144" y="117"/>
			<point x="167" y="57"/>
			<point x="224" y="14"/>
			<point x="321" y="-11"/>
		</contour>
		<contour>
			<point x="189" y="639" type="qcurve"/>
			<point x="243" y="645"/>
			<point x="355" y="656"/>
			<point x="408" y="656" type="qcurve" smooth="yes"/>
			<point x="493" y="655"/>
			<point x="616" y="570"/>
			<point x="666" y="475" type="qcurve" smooth="yes"/>
			<point x="701" y="407"/>
			<point x="701" y="344" type="qcurve" smooth="yes"/>
			<point x="701" y="239"/>
			<point x="602" y="127" type="qcurve" smooth="yes"/>
			<point x="527" y="40"/>
			<point x="396" y="40" type="qcurve" smooth="yes"/>
			<point x="367" y="40"/>
			<point x="303" y="48"/>
			<point x="268" y="56" type="qcurve" smooth="yes"/>
			<point x="228" y="65"/>
			<point x="196" y="107"/>
			<point x="196" y="153" type="qcurve" smooth="yes"/>
			<point x="196" y="205"/>
			<point x="198" y="309"/>
			<point x="198" y="362" type="qcurve" smooth="yes"/>
			<point x="198" y="490" type="line" smooth="yes"/>
			<point x="198" y="505"/>
			<point x="199" y="554"/>
			<point x="198" y="600"/>
			<point x="194" y="636"/>
		</contour>
	</outline>
</glyph>
<glyph name="E" format="2">
	<advance width="753"/>
	<unicode hex="0045"/>
	<note>
		E
  </note>
	<outline>
		<contour>
			<point x="660" y="546" type="qcurve" smooth="yes"/>
			<point x="671" y="546"/>
			<point x="686" y="561"/>
			<point x="686" y="572" type="qcurve" smooth="yes"/>
			<point x="686" y="574"/>
			<point x="684" y="582" type="qcurve"/>
			<point x="667" y="621"/>
			<point x="619" y="670"/>
			<point x="563" y="697"/>
			<point x="500" y="706"/>
			<point x="468" y="706" type="qcurve" smooth="yes"/>
			<point x="410" y="706"/>
			<point x="291" y="685"/>
			<point x="234" y="685" type="qcurve" smooth="yes"/>
			<point x="203" y="685"/>
			<point x="144" y="697"/>
			<point x="115" y="714" type="qcurve"/>
			<point x="111" y="718"/>
			<point x="102" y="718" type="qcurve" smooth="yes"/>
			<point x="91" y="718"/>
			<point x="76" y="702"/>
			<point x="76" y="691" type="qcurve" smooth="yes"/>
			<point x="76" y="676"/>
			<point x="106" y="655"/>
			<point x="150" y="642"/>
			<point x="198" y="634"/>
			<point x="216" y="633" type="qcurve"/>
			<point x="216" y="632" type="line" smooth="yes"/>
			<point x="216" y="621"/>
			<point x="217" y="602"/>
			<point x="217" y="592" type="qcurve" smooth="yes"/>
			<point x="217" y="564"/>
			<point x="214" y="507"/>
			<point x="214" y="478" type="qcurve" smooth="yes"/>
			<point x="214" y="463"/>
			<point x="216" y="414"/>
			<point x="225" y="368"/>
			<point x="242" y="335"/>
			<point x="257" y="335" type="qcurve" smooth="yes"/>
			<point x="541" y="335" type="line"/>
			<point x="541" y="211" type="line" smooth="yes"/>
			<point x="541" y="200"/>
			<point x="556" y="185"/>
			<point x="567" y="185" type="qcurve" smooth="yes"/>
			<point x="578" y="185"/>
			<point x="593" y="200"/>
			<point x="593" y="211" type="qcurve" smooth="yes"/>
			<point x="593" y="512" type="line" smooth="yes"/>
			<point x="593" y="523"/>
			<point x="578" y="538"/>
			<point x="567" y="538" type="qcurve" smooth="yes"/>
			<point x="556" y="538"/>
			<point x="541" y="523"/>
			<point x="541" y="512" type="qcurve" smooth="yes"/>
			<point x="541" y="387" type="line"/>
			<point x="540" y="388"/>
			<point x="536" y="388" type="qcurve" smooth="yes"/>
			<point x="276" y="388" type="line"/>
			<point x="270" y="410"/>
			<point x="266" y="455"/>
			<point x="266" y="478" type="qcurve" smooth="yes"/>
			<point x="266" y="510"/>
			<point x="269" y="574"/>
			<point x="269" y="608" type="qcurve" smooth="yes"/>
			<point x="269" y="615"/>
			<point x="269" y="628"/>
			<point x="267" y="634" type="qcurve"/>
			<point x="319" y="637"/>
			<point x="419" y="654"/>
			<point x="465" y="654" type="qcurve" smooth="yes"/>
			<point x="530" y="654"/>
			<point x="612" y="617"/>
			<point x="636" y="562" type="qcurve"/>
			<point x="642" y="546"/>
		</contour>
		<contour>
			<point x="506" y="-10" type="qcurve" smooth="yes"/>
			<point x="552" y="-10"/>
			<point x="634" y="15"/>
			<point x="696" y="63"/>
			<point x="732" y="134"/>
			<point x="732" y="181" type="qcurve" smooth="yes"/>
			<point x="732" y="192"/>
			<point x="717" y="207"/>
			<point x="706" y="207" type="qcurve" smooth="yes"/>
			<point x="684" y="207"/>
			<point x="681" y="185" type="qcurve" smooth="yes"/>
			<point x="671" y="110"/>
			<point x="583" y="42"/>
			<point x="505" y="42" type="qcurve" smooth="yes"/>
			<point x="453" y="42"/>
			<point x="341" y="56"/>
			<point x="287" y="56" type="qcurve" smooth="yes"/>
			<point x="227" y="56"/>
			<point x="109" y="48"/>
			<point x="49" y="43" type="qcurve" smooth="yes"/>
			<point x="38" y="42" type="line" smooth="yes"/>
			<point x="27" y="41"/>
			<point x="14" y="26"/>
			<point x="14" y="16" type="qcurve" smooth="yes"/>
			<point x="14" y="4"/>
			<point x="31" y="-10"/>
			<point x="43" y="-10" type="qcurve"/>
			<point x="54" y="-9" type="line" smooth="yes"/>
			<point x="115" y="-4"/>
			<point x="232" y="4"/>
			<point x="292" y="4" type="qcurve" smooth="yes"/>
			<point x="346" y="4"/>
			<point x="455" y="-10"/>
		</contour>
	</outline>
</glyph>
<glyph name="F" format="2">
	<advance width="606"/>
	<unicode hex="0046"/>
	<note>
		F
  </note>
	<outline>
		<contour>
			<point x="522" y="244" type="qcurve" smooth="yes"/>
			<point x="533" y="244"/>
			<point x="548" y="261"/>
			<point x="548" y="270" type="qcurve" smooth="yes"/>
			<point x="548" y="275"/>
			<point x="545" y="281" type="qcurve" smooth="yes"/>
			<point x="536" y="298"/>
			<point x="529" y="332"/>
			<point x="529" y="349" type="qcurve" smooth="yes"/>
			<point x="529" y="381"/>
			<point x="547" y="445"/>
			<point x="547" y="477" type="qcurve" smooth="yes"/>
			<point x="547" y="486"/>
			<point x="532" y="501"/>
			<point x="520" y="501" type="qcurve" smooth="yes"/>
			<point x="509" y="501"/>
			<point x="497" y="479"/>
			<point x="491" y="447"/>
			<point x="486" y="411"/>
			<point x="483" y="397" type="qcurve"/>
			<point x="482" y="398"/>
			<point x="479" y="398" type="qcurve" smooth="yes"/>
			<point x="241" y="398" type="line"/>
			<point x="241" y="505" type="line" smooth="yes"/>
			<point x="241" y="516"/>
			<point x="227" y="531"/>
			<point x="216" y="531" type="qcurve" smooth="yes"/>
			<point x="205" y="531"/>
			<point x="191" y="516"/>
			<point x="191" y="505" type="qcurve" smooth="yes"/>
			<point x="191" y="72" type="line"/>
			<point x="181" y="73"/>
			<point x="162" y="73"/>
			<point x="152" y="73" type="qcurve" smooth="yes"/>
			<point x="137" y="73"/>
			<point x="91" y="71"/>
			<point x="47" y="63"/>
			<point x="16" y="48"/>
			<point x="16" y="35" type="qcurve" smooth="yes"/>
			<point x="16" y="24"/>
			<point x="29" y="8"/>
			<point x="40" y="8" type="qcurve" smooth="yes"/>
			<point x="45" y="8"/>
			<point x="48" y="9" type="qcurve" smooth="yes"/>
			<point x="75" y="17"/>
			<point x="128" y="23"/>
			<point x="155" y="23" type="qcurve" smooth="yes"/>
			<point x="209" y="23"/>
			<point x="325" y="8"/>
			<point x="382" y="8" type="qcurve" smooth="yes"/>
			<point x="391" y="8" type="line" smooth="yes"/>
			<point x="402" y="8"/>
			<point x="416" y="23"/>
			<point x="416" y="34" type="qcurve" smooth="yes"/>
			<point x="416" y="59"/>
			<point x="391" y="59" type="qcurve" smooth="yes"/>
			<point x="378" y="59" type="line" smooth="yes"/>
			<point x="343" y="59"/>
			<point x="273" y="65"/>
			<point x="239" y="68" type="qcurve"/>
			<point x="241" y="76"/>
			<point x="241" y="77" type="qcurve" smooth="yes"/>
			<point x="241" y="347" type="line"/>
			<point x="479" y="347" type="line"/>
			<point x="479" y="336"/>
			<point x="483" y="302"/>
			<point x="493" y="268"/>
			<point x="510" y="244"/>
		</contour>
		<contour>
			<point x="519" y="648" type="qcurve" smooth="yes"/>
			<point x="528" y="648" type="line" smooth="yes"/>
			<point x="539" y="648"/>
			<point x="553" y="663"/>
			<point x="553" y="674" type="qcurve" smooth="yes"/>
			<point x="553" y="699"/>
			<point x="528" y="699" type="qcurve" smooth="yes"/>
			<point x="515" y="699" type="line" smooth="yes"/>
			<point x="458" y="699"/>
			<point x="347" y="713"/>
			<point x="290" y="713" type="qcurve" smooth="yes"/>
			<point x="275" y="713"/>
			<point x="228" y="711"/>
			<point x="185" y="703"/>
			<point x="153" y="688"/>
			<point x="153" y="675" type="qcurve" smooth="yes"/>
			<point x="153" y="664"/>
			<point x="166" y="648"/>
			<point x="177" y="648" type="qcurve" smooth="yes"/>
			<point x="182" y="648"/>
			<point x="185" y="649" type="qcurve" smooth="yes"/>
			<point x="212" y="657"/>
			<point x="265" y="663"/>
			<point x="292" y="663" type="qcurve" smooth="yes"/>
			<point x="346" y="663"/>
			<point x="462" y="648"/>
		</contour>
	</outline>
</glyph>
<glyph name="G" format="2">
	<advance width="751"/>
	<unicode hex="0047"/>
	<note>
		G
  </note>
	<outline>
		<contour>
			<point x="372" y="-2" type="qcurve" smooth="yes"/>
			<point x="393" y="-2"/>
			<point x="434" y="4"/>
			<point x="455" y="12" type="qcurve"/>
			<point x="468" y="16" type="line" smooth="yes"/>
			<point x="509" y="30"/>
			<point x="555" y="56"/>
			<point x="577" y="105"/>
			<point x="582" y="187"/>
			<point x="582" y="258" type="qcurve"/>
			<point x="586" y="260" type="line"/>
			<point x="616" y="272"/>
			<point x="672" y="292"/>
			<point x="701" y="292" type="qcurve" smooth="yes"/>
			<point x="711" y="292" type="line" smooth="yes"/>
			<point x="721" y="292"/>
			<point x="736" y="304"/>
			<point x="736" y="315" type="qcurve" smooth="yes"/>
			<point x="736" y="329"/>
			<point x="719" y="340"/>
			<point x="702" y="340" type="qcurve" smooth="yes"/>
			<point x="664" y="340"/>
			<point x="600" y="318"/>
			<point x="568" y="304" type="qcurve" smooth="yes"/>
			<point x="549" y="296" type="line"/>
			<point x="535" y="291"/>
			<point x="535" y="274" type="qcurve" smooth="yes"/>
			<point x="535" y="205"/>
			<point x="532" y="129"/>
			<point x="517" y="89"/>
			<point x="483" y="71"/>
			<point x="452" y="61" type="qcurve" smooth="yes"/>
			<point x="440" y="57" type="line" smooth="yes"/>
			<point x="423" y="51"/>
			<point x="389" y="46"/>
			<point x="372" y="46" type="qcurve" smooth="yes"/>
			<point x="316" y="46"/>
			<point x="211" y="99"/>
			<point x="128" y="184"/>
			<point x="78" y="290"/>
			<point x="78" y="343" type="qcurve" smooth="yes"/>
			<point x="78" y="402"/>
			<point x="128" y="521"/>
			<point x="214" y="617"/>
			<point x="325" y="677"/>
			<point x="387" y="677" type="qcurve" smooth="yes"/>
			<point x="463" y="677"/>
			<point x="564" y="585"/>
			<point x="577" y="508" type="qcurve"/>
			<point x="579" y="499"/>
			<point x="592" y="487"/>
			<point x="600" y="487" type="qcurve" smooth="yes"/>
			<point x="611" y="487"/>
			<point x="624" y="502"/>
			<point x="624" y="510" type="qcurve" smooth="yes"/>
			<point x="624" y="516" type="line"/>
			<point x="616" y="562"/>
			<point x="575" y="639"/>
			<point x="513" y="695"/>
			<point x="433" y="725"/>
			<point x="386" y="725" type="qcurve" smooth="yes"/>
			<point x="338" y="725"/>
			<point x="248" y="694"/>
			<point x="169" y="639"/>
			<point x="103" y="565"/>
			<point x="56" y="480"/>
			<point x="30" y="389"/>
			<point x="30" y="344" type="qcurve" smooth="yes"/>
			<point x="30" y="282"/>
			<point x="87" y="159"/>
			<point x="182" y="60"/>
			<point x="305" y="-2"/>
		</contour>
		<contour>
			<point x="517" y="278" type="qcurve" smooth="yes"/>
			<point x="527" y="278"/>
			<point x="541" y="292"/>
			<point x="541" y="301" type="qcurve" smooth="yes"/>
			<point x="541" y="313"/>
			<point x="526" y="329"/>
			<point x="505" y="337"/>
			<point x="485" y="340"/>
			<point x="479" y="340" type="qcurve" smooth="yes"/>
			<point x="471" y="340"/>
			<point x="459" y="339"/>
			<point x="454" y="339" type="qcurve" smooth="yes"/>
			<point x="447" y="339"/>
			<point x="438" y="344"/>
			<point x="431" y="349"/>
			<point x="425" y="354"/>
			<point x="420" y="354" type="qcurve" smooth="yes"/>
			<point x="410" y="354"/>
			<point x="394" y="341"/>
			<point x="394" y="331" type="qcurve" smooth="yes"/>
			<point x="394" y="319"/>
			<point x="409" y="303"/>
			<point x="429" y="294"/>
			<point x="450" y="291"/>
			<point x="456" y="291" type="qcurve" smooth="yes"/>
			<point x="464" y="291"/>
			<point x="479" y="293"/>
			<point x="484" y="293" type="qcurve" smooth="yes"/>
			<point x="495" y="293"/>
			<point x="506" y="278"/>
		</contour>
	</outline>
</glyph>
<glyph name="H" format="2">
	<advance width="833"/>
	<unicode hex="0048"/>
	<note>
		H
  </note>
	<outline>
		<contour>
			<point x="306" y="-8" type="qcurve" smooth="yes"/>
			<point x="317" y="-8"/>
			<point x="331" y="6"/>
			<point x="331" y="17" type="qcurve" smooth="yes"/>
			<point x="331" y="31"/>
			<point x="300" y="55"/>
			<point x="257" y="74"/>
			<point x="213" y="85"/>
			<point x="200" y="87" type="qcurve"/>
			<point x="200" y="316" type="line"/>
			<point x="588" y="316" type="line"/>
			<point x="588" y="81" type="line"/>
			<point x="571" y="79"/>
			<point x="520" y="72"/>
			<point x="473" y="59"/>
			<point x="440" y="40"/>
			<point x="440" y="27" type="qcurve" smooth="yes"/>
			<point x="440" y="14"/>
			<point x="456" y="2"/>
			<point x="466" y="2" type="qcurve" smooth="yes"/>
			<point x="472" y="2"/>
			<point x="474" y="4" type="qcurve"/>
			<point x="513" y="19"/>
			<point x="593" y="33"/>
			<point x="638" y="33" type="qcurve" smooth="yes"/>
			<point x="706" y="33"/>
			<point x="782" y="17" type="qcurve"/>
			<point x="784" y="16"/>
			<point x="787" y="16" type="qcurve" smooth="yes"/>
			<point x="797" y="16"/>
			<point x="811" y="30"/>
			<point x="811" y="43" type="qcurve" smooth="yes"/>
			<point x="811" y="62"/>
			<point x="792" y="67" type="qcurve"/>
			<point x="750" y="75"/>
			<point x="674" y="84"/>
			<point x="638" y="84" type="qcurve"/>
			<point x="638" y="624" type="line"/>
			<point x="652" y="624"/>
			<point x="706" y="627"/>
			<point x="759" y="635"/>
			<point x="798" y="651"/>
			<point x="798" y="665" type="qcurve" smooth="yes"/>
			<point x="798" y="678"/>
			<point x="784" y="691"/>
			<point x="774" y="691" type="qcurve" smooth="yes"/>
			<point x="768" y="691" type="line"/>
			<point x="727" y="682"/>
			<point x="654" y="674"/>
			<point x="619" y="674" type="qcurve" smooth="yes"/>
			<point x="584" y="674"/>
			<point x="519" y="682"/>
			<point x="487" y="691" type="qcurve"/>
			<point x="485" y="691"/>
			<point x="483" y="692"/>
			<point x="481" y="692" type="qcurve" smooth="yes"/>
			<point x="473" y="692"/>
			<point x="456" y="678"/>
			<point x="456" y="666" type="qcurve" smooth="yes"/>
			<point x="456" y="653"/>
			<point x="485" y="637"/>
			<point x="526" y="628"/>
			<point x="571" y="625"/>
			<point x="588" y="624" type="qcurve"/>
			<point x="588" y="366" type="line"/>
			<point x="587" y="367"/>
			<point x="583" y="367" type="qcurve" smooth="yes"/>
			<point x="200" y="367" type="line"/>
			<point x="200" y="625" type="line"/>
			<point x="223" y="631"/>
			<point x="279" y="641"/>
			<point x="299" y="641" type="qcurve" smooth="yes"/>
			<point x="305" y="641" type="line" smooth="yes"/>
			<point x="331" y="641"/>
			<point x="331" y="665" type="qcurve" smooth="yes"/>
			<point x="331" y="682"/>
			<point x="309" y="692"/>
			<point x="292" y="692" type="qcurve" smooth="yes"/>
			<point x="274" y="692"/>
			<point x="238" y="686"/>
			<point x="203" y="678"/>
			<point x="171" y="672"/>
			<point x="158" y="672" type="qcurve" smooth="yes"/>
			<point x="134" y="672"/>
			<point x="97" y="694"/>
			<point x="80" y="723" type="qcurve"/>
			<point x="72" y="735"/>
			<point x="58" y="735" type="qcurve" smooth="yes"/>
			<point x="47" y="735"/>
			<point x="33" y="720"/>
			<point x="33" y="710" type="qcurve" smooth="yes"/>
			<point x="33" y="706"/>
			<point x="37" y="698" type="qcurve" smooth="yes"/>
			<point x="60" y="655"/>
			<point x="119" y="624"/>
			<point x="150" y="622" type="qcurve"/>
			<point x="150" y="88" type="line"/>
			<point x="138" y="87"/>
			<point x="93" y="79"/>
			<point x="50" y="65"/>
			<point x="18" y="45"/>
			<point x="18" y="32" type="qcurve" smooth="yes"/>
			<point x="18" y="21"/>
			<point x="33" y="6"/>
			<point x="43" y="6" type="qcurve" smooth="yes"/>
			<point x="48" y="6"/>
			<point x="54" y="9" type="qcurve" smooth="yes"/>
			<point x="115" y="38"/>
			<point x="172" y="38" type="qcurve" smooth="yes"/>
			<point x="237" y="38"/>
			<point x="291" y="-3" type="qcurve" smooth="yes"/>
			<point x="298" y="-8"/>
		</contour>
	</outline>
</glyph>
<glyph name="I" format="2">
	<advance width="409"/>
	<unicode hex="0049"/>
	<note>
		I
  </note>
	<outline>
		<contour>
			<point x="45" y="-4" type="qcurve" smooth="yes"/>
			<point x="51" y="-4" type="line"/>
			<point x="130" y="13"/>
			<point x="206" y="13" type="qcurve" smooth="yes"/>
			<point x="245" y="13"/>
			<point x="322" y="4"/>
			<point x="361" y="-4" type="qcurve"/>
			<point x="363" y="-5"/>
			<point x="367" y="-5" type="qcurve" smooth="yes"/>
			<point x="377" y="-5"/>
			<point x="391" y="9"/>
			<point x="391" y="21" type="qcurve" smooth="yes"/>
			<point x="391" y="35"/>
			<point x="353" y="52"/>
			<point x="301" y="60"/>
			<point x="247" y="63"/>
			<point x="231" y="63" type="qcurve"/>
			<point x="231" y="65" type="line" smooth="yes"/>
			<point x="231" y="131"/>
			<point x="233" y="259"/>
			<point x="233" y="324" type="qcurve" smooth="yes"/>
			<point x="233" y="374"/>
			<point x="229" y="472"/>
			<point x="229" y="522" type="qcurve" smooth="yes"/>
			<point x="229" y="588"/>
			<point x="282" y="645"/>
			<point x="346" y="645" type="qcurve" smooth="yes"/>
			<point x="365" y="645" type="line" smooth="yes"/>
			<point x="376" y="645"/>
			<point x="391" y="657"/>
			<point x="391" y="669" type="qcurve" smooth="yes"/>
			<point x="391" y="690"/>
			<point x="361" y="696"/>
			<point x="346" y="696" type="qcurve" smooth="yes"/>
			<point x="296" y="696"/>
			<point x="233" y="667"/>
			<point x="210" y="639" type="qcurve"/>
			<point x="194" y="648"/>
			<point x="164" y="669"/>
			<point x="132" y="687"/>
			<point x="95" y="699"/>
			<point x="73" y="699" type="qcurve" smooth="yes"/>
			<point x="65" y="699"/>
			<point x="47" y="697"/>
			<point x="31" y="691"/>
			<point x="20" y="679"/>
			<point x="20" y="669" type="qcurve" smooth="yes"/>
			<point x="20" y="658"/>
			<point x="35" y="645"/>
			<point x="44" y="645" type="qcurve" smooth="yes"/>
			<point x="52" y="645"/>
			<point x="67" y="649"/>
			<point x="74" y="649" type="qcurve" smooth="yes"/>
			<point x="89" y="649"/>
			<point x="117" y="639"/>
			<point x="144" y="623"/>
			<point x="171" y="603"/>
			<point x="187" y="593" type="qcurve"/>
			<point x="178" y="563"/>
			<point x="178" y="526" type="qcurve" smooth="yes"/>
			<point x="178" y="475"/>
			<point x="183" y="375"/>
			<point x="183" y="324" type="qcurve" smooth="yes"/>
			<point x="183" y="258"/>
			<point x="181" y="131"/>
			<point x="181" y="65" type="qcurve" smooth="yes"/>
			<point x="181" y="63" type="line"/>
			<point x="163" y="63"/>
			<point x="109" y="60"/>
			<point x="57" y="52"/>
			<point x="20" y="35"/>
			<point x="20" y="21" type="qcurve" smooth="yes"/>
			<point x="20" y="10"/>
			<point x="36" y="-4"/>
		</contour>
	</outline>
</glyph>
<glyph name="J" format="2">
	<advance width="477"/>
	<unicode hex="004A"/>
	<note>
		J
  </note>
	<outline>
		<contour>
			<point x="30" y="-247" type="qcurve" smooth="yes"/>
			<point x="95" y="-246"/>
			<point x="187" y="-219"/>
			<point x="245" y="-160"/>
			<point x="272" y="-67"/>
			<point x="273" y="-1" type="qcurve" smooth="yes"/>
			<point x="274" y="62"/>
			<point x="275" y="190"/>
			<point x="275" y="254" type="qcurve" smooth="yes"/>
			<point x="275" y="343"/>
			<point x="274" y="517"/>
			<point x="274" y="604" type="qcurve" smooth="yes"/>
			<point x="274" y="613"/>
			<point x="270" y="617" type="qcurve"/>
			<point x="291" y="618"/>
			<point x="347" y="623"/>
			<point x="398" y="633"/>
			<point x="434" y="650"/>
			<point x="434" y="663" type="qcurve" smooth="yes"/>
			<point x="434" y="674"/>
			<point x="420" y="688"/>
			<point x="410" y="688" type="qcurve" smooth="yes"/>
			<point x="405" y="688" type="line"/>
			<point x="367" y="680"/>
			<point x="288" y="667"/>
			<point x="248" y="667" type="qcurve" smooth="yes"/>
			<point x="210" y="667"/>
			<point x="136" y="682"/>
			<point x="100" y="701" type="qcurve" smooth="yes"/>
			<point x="94" y="704"/>
			<point x="89" y="704" type="qcurve" smooth="yes"/>
			<point x="80" y="704"/>
			<point x="63" y="689"/>
			<point x="63" y="678" type="qcurve" smooth="yes"/>
			<point x="63" y="662"/>
			<point x="104" y="640"/>
			<point x="158" y="625"/>
			<point x="213" y="618"/>
			<point x="227" y="617" type="qcurve"/>
			<point x="224" y="611"/>
			<point x="224" y="604" type="qcurve" smooth="yes"/>
			<point x="224" y="516"/>
			<point x="225" y="342"/>
			<point x="225" y="254" type="qcurve" smooth="yes"/>
			<point x="225" y="190"/>
			<point x="225" y="63"/>
			<point x="223" y="0" type="qcurve" smooth="yes"/>
			<point x="222" y="-57"/>
			<point x="203" y="-132"/>
			<point x="158" y="-177"/>
			<point x="85" y="-196"/>
			<point x="30" y="-196" type="qcurve" smooth="yes"/>
			<point x="19" y="-196"/>
			<point x="5" y="-211"/>
			<point x="5" y="-222" type="qcurve" smooth="yes"/>
			<point x="5" y="-233"/>
			<point x="20" y="-247"/>
		</contour>
	</outline>
</glyph>
<glyph name="K" format="2">
	<advance width="896"/>
	<unicode hex="004B"/>
	<note>
		K
  </note>
	<outline>
		<contour>
			<point x="386" y="43" type="qcurve" smooth="yes"/>
			<point x="335" y="54"/>
			<point x="272" y="68"/>
			<point x="247" y="70" type="qcurve"/>
			<point x="256" y="108"/>
			<point x="260" y="180"/>
			<point x="260" y="217" type="qcurve" smooth="yes"/>
			<point x="260" y="241"/>
			<point x="259" y="289"/>
			<point x="259" y="312" type="qcurve"/>
			<point x="271" y="317"/>
			<point x="295" y="322"/>
			<point x="307" y="322" type="qcurve" smooth="yes"/>
			<point x="346" y="322"/>
			<point x="375" y="293" type="qcurve" smooth="yes"/>
			<point x="403" y="265"/>
			<point x="462" y="214"/>
			<point x="523" y="164"/>
			<point x="582" y="114"/>
			<point x="610" y="87" type="qcurve" smooth="yes"/>
			<point x="616" y="81" type="line" smooth="yes"/>
			<point x="634" y="63"/>
			<point x="659" y="35"/>
			<point x="686" y="17"/>
			<point x="722" y="8"/>
			<point x="751" y="8" type="qcurve" smooth="yes"/>
			<point x="766" y="8"/>
			<point x="797" y="13"/>
			<point x="814" y="18" type="qcurve" smooth="yes"/>
			<point x="847" y="27" type="line"/>
			<point x="853" y="28"/>
			<point x="867" y="30"/>
			<point x="878" y="34"/>
			<point x="886" y="43"/>
			<point x="886" y="53" type="qcurve" smooth="yes"/>
			<point x="886" y="77"/>
			<point x="864" y="81" type="qcurve"/>
			<point x="858" y="80"/>
			<point x="846" y="78"/>
			<point x="840" y="77" type="qcurve"/>
			<point x="839" y="76" type="line"/>
			<point x="839" y="77"/>
			<point x="840" y="77" type="qcurve"/>
			<point x="808" y="70"/>
			<point x="756" y="54"/>
			<point x="739" y="54" type="qcurve" smooth="yes"/>
			<point x="727" y="54"/>
			<point x="707" y="62"/>
			<point x="688" y="78"/>
			<point x="666" y="101"/>
			<point x="651" y="117" type="qcurve" smooth="yes"/>
			<point x="645" y="123" type="line" smooth="yes"/>
			<point x="616" y="151"/>
			<point x="556" y="201"/>
			<point x="497" y="250"/>
			<point x="438" y="300"/>
			<point x="411" y="329" type="qcurve"/>
			<point x="398" y="342"/>
			<point x="383" y="351" type="qcurve"/>
			<point x="402" y="388"/>
			<point x="465" y="442"/>
			<point x="534" y="494"/>
			<point x="600" y="554"/>
			<point x="622" y="597" type="qcurve"/>
			<point x="625" y="601"/>
			<point x="625" y="608" type="qcurve" smooth="yes"/>
			<point x="625" y="617"/>
			<point x="611" y="634"/>
			<point x="600" y="634" type="qcurve" smooth="yes"/>
			<point x="585" y="634"/>
			<point x="577" y="619" type="qcurve"/>
			<point x="559" y="582"/>
			<point x="494" y="528"/>
			<point x="423" y="474"/>
			<point x="356" y="413"/>
			<point x="335" y="369" type="qcurve"/>
			<point x="320" y="372"/>
			<point x="306" y="372" type="qcurve" smooth="yes"/>
			<point x="263" y="372"/>
			<point x="223" y="350" type="qcurve" smooth="yes"/>
			<point x="209" y="342"/>
			<point x="209" y="307"/>
			<point x="209" y="292" type="qcurve" smooth="yes"/>
			<point x="209" y="283"/>
			<point x="209" y="265"/>
			<point x="210" y="256" type="qcurve"/>
			<point x="210" y="207"/>
			<point x="207" y="114"/>
			<point x="196" y="69" type="qcurve"/>
			<point x="193" y="66"/>
			<point x="168" y="55"/>
			<point x="139" y="44"/>
			<point x="110" y="37"/>
			<point x="103" y="37" type="qcurve" smooth="yes"/>
			<point x="88" y="37"/>
			<point x="68" y="47" type="qcurve"/>
			<point x="68" y="46"/>
			<point x="69" y="46"/>
			<point x="69" y="45" type="qcurve"/>
			<point x="69" y="47"/>
			<point x="56" y="52"/>
			<point x="56" y="53" type="qcurve"/>
			<point x="52" y="53" type="line" smooth="yes"/>
			<point x="41" y="53"/>
			<point x="27" y="37"/>
			<point x="27" y="26" type="qcurve" smooth="yes"/>
			<point x="27" y="15"/>
			<point x="34" y="7" type="qcurve"/>
			<point x="52" y="-1" type="line" smooth="yes"/>
			<point x="63" y="-6"/>
			<point x="89" y="-14"/>
			<point x="104" y="-14" type="qcurve" smooth="yes"/>
			<point x="125" y="-14"/>
			<point x="146" y="-4" type="qcurve" smooth="yes"/>
			<point x="175" y="10"/>
			<point x="214" y="21"/>
			<point x="234" y="21" type="qcurve" smooth="yes"/>
			<point x="258" y="21"/>
			<point x="320" y="5"/>
			<point x="375" y="-7" type="qcurve"/>
			<point x="377" y="-8"/>
			<point x="381" y="-8" type="qcurve" smooth="yes"/>
			<point x="391" y="-8"/>
			<point x="405" y="6"/>
			<point x="405" y="18" type="qcurve" smooth="yes"/>
			<point x="405" y="26"/>
			<point x="394" y="41"/>
		</contour>
		<contour>
			<point x="247" y="616" type="qcurve" smooth="yes"/>
			<point x="262" y="616"/>
			<point x="315" y="621"/>
			<point x="368" y="632"/>
			<point x="406" y="652"/>
			<point x="406" y="667" type="qcurve" smooth="yes"/>
			<point x="406" y="679"/>
			<point x="390" y="693"/>
			<point x="380" y="693" type="qcurve" smooth="yes"/>
			<point x="377" y="693"/>
			<point x="371" y="691" type="qcurve"/>
			<point x="339" y="677"/>
			<point x="277" y="666"/>
			<point x="247" y="666" type="qcurve" smooth="yes"/>
			<point x="205" y="666"/>
			<point x="129" y="681"/>
			<point x="96" y="691" type="qcurve" smooth="yes"/>
			<point x="93" y="692"/>
			<point x="87" y="692" type="qcurve" smooth="yes"/>
			<point x="77" y="692"/>
			<point x="64" y="679"/>
			<point x="64" y="666" type="qcurve" smooth="yes"/>
			<point x="64" y="653"/>
			<point x="103" y="634"/>
			<point x="159" y="622"/>
			<point x="222" y="616"/>
		</contour>
		<contour>
			<point x="819" y="674" type="qcurve" smooth="yes"/>
			<point x="819" y="684"/>
			<point x="806" y="699"/>
			<point x="797" y="701" type="qcurve"/>
			<point x="792" y="700"/>
			<point x="776" y="699"/>
			<point x="774" y="697" type="qcurve"/>
			<point x="775" y="698"/>
			<point x="776" y="698"/>
			<point x="777" y="699" type="qcurve"/>
			<point x="754" y="697"/>
			<point x="710" y="695"/>
			<point x="688" y="695" type="qcurve" smooth="yes"/>
			<point x="608" y="695"/>
			<point x="537" y="708" type="qcurve"/>
			<point x="531" y="708" type="line" smooth="yes"/>
			<point x="521" y="708"/>
			<point x="507" y="694"/>
			<point x="507" y="682" type="qcurve" smooth="yes"/>
			<point x="507" y="662"/>
			<point x="528" y="659" type="qcurve"/>
			<point x="610" y="644"/>
			<point x="695" y="644" type="qcurve" smooth="yes"/>
			<point x="711" y="644"/>
			<point x="753" y="644"/>
			<point x="792" y="648"/>
			<point x="819" y="661"/>
		</contour>
	</outline>
</glyph>
<glyph name="L" format="2">
	<advance width="646"/>
	<unicode hex="004C"/>
	<note>
		L
  </note>
	<outline>
		<contour>
			<point x="194" y="636" type="qcurve"/>
			<point x="193" y="635"/>
			<point x="193" y="629" type="qcurve" smooth="yes"/>
			<point x="193" y="101" type="line"/>
			<point x="63" y="48" type="line" smooth="yes"/>
			<point x="55" y="45"/>
			<point x="47" y="32"/>
			<point x="47" y="24" type="qcurve" smooth="yes"/>
			<point x="47" y="11"/>
			<point x="62" y="-1"/>
			<point x="72" y="-1" type="qcurve"/>
			<point x="72" y="-1"/>
			<point x="82" y="1" type="qcurve"/>
			<point x="224" y="59" type="line"/>
			<point x="229" y="47"/>
			<point x="257" y="31"/>
			<point x="292" y="22"/>
			<point x="325" y="19"/>
			<point x="334" y="19" type="qcurve" smooth="yes"/>
			<point x="363" y="19"/>
			<point x="417" y="27"/>
			<point x="443" y="27" type="qcurve" smooth="yes"/>
			<point x="465" y="27"/>
			<point x="505" y="17"/>
			<point x="522" y="17" type="qcurve" smooth="yes"/>
			<point x="549" y="17"/>
			<point x="587" y="43"/>
			<point x="611" y="81"/>
			<point x="623" y="124"/>
			<point x="623" y="141" type="qcurve" smooth="yes"/>
			<point x="623" y="151"/>
			<point x="609" y="168"/>
			<point x="598" y="168" type="qcurve" smooth="yes"/>
			<point x="590" y="168"/>
			<point x="575" y="157"/>
			<point x="573" y="149" type="qcurve"/>
			<point x="567" y="109"/>
			<point x="547" y="67"/>
			<point x="521" y="67" type="qcurve" smooth="yes"/>
			<point x="506" y="67"/>
			<point x="462" y="77"/>
			<point x="440" y="77" type="qcurve" smooth="yes"/>
			<point x="412" y="77"/>
			<point x="358" y="69"/>
			<point x="332" y="69" type="qcurve" smooth="yes"/>
			<point x="313" y="69"/>
			<point x="279" y="77"/>
			<point x="262" y="89" type="qcurve"/>
			<point x="255" y="93"/>
			<point x="248" y="93" type="qcurve" smooth="yes"/>
			<point x="243" y="93" type="line"/>
			<point x="243" y="629" type="line" smooth="yes"/>
			<point x="243" y="635"/>
			<point x="242" y="637" type="qcurve"/>
			<point x="258" y="637"/>
			<point x="289" y="640"/>
			<point x="305" y="642" type="qcurve"/>
			<point x="320" y="643"/>
			<point x="359" y="643"/>
			<point x="394" y="647"/>
			<point x="418" y="659"/>
			<point x="418" y="672" type="qcurve" smooth="yes"/>
			<point x="418" y="684"/>
			<point x="405" y="699"/>
			<point x="393" y="699" type="qcurve"/>
			<point x="342" y="697"/>
			<point x="242" y="686"/>
			<point x="193" y="686" type="qcurve" smooth="yes"/>
			<point x="157" y="686"/>
			<point x="87" y="697"/>
			<point x="53" y="712" type="qcurve"/>
			<point x="47" y="714"/>
			<point x="43" y="714" type="qcurve" smooth="yes"/>
			<point x="33" y="714"/>
			<point x="18" y="700"/>
			<point x="18" y="688" type="qcurve" smooth="yes"/>
			<point x="18" y="671"/>
			<point x="61" y="651"/>
			<point x="119" y="640"/>
			<point x="178" y="636"/>
		</contour>
	</outline>
</glyph>
<glyph name="M" format="2">
	<advance width="946"/>
	<unicode hex="004D"/>
	<note>
		M
  </note>
	<outline>
		<contour>
			<point x="605" y="0" type="qcurve" smooth="yes"/>
			<point x="610" y="0"/>
			<point x="616" y="2" type="qcurve"/>
			<point x="642" y="13"/>
			<point x="692" y="22"/>
			<point x="718" y="22" type="qcurve" smooth="yes"/>
			<point x="750" y="22"/>
			<point x="815" y="13"/>
			<point x="850" y="8" type="qcurve"/>
			<point x="861" y="5"/>
			<point x="888" y="-1"/>
			<point x="897" y="-1" type="qcurve" smooth="yes"/>
			<point x="908" y="-1"/>
			<point x="921" y="15"/>
			<point x="921" y="25" type="qcurve" smooth="yes"/>
			<point x="921" y="38"/>
			<point x="886" y="54"/>
			<point x="836" y="64"/>
			<point x="781" y="69"/>
			<point x="762" y="71" type="qcurve"/>
			<point x="789" y="191"/>
			<point x="789" y="305" type="qcurve" smooth="yes"/>
			<point x="789" y="358"/>
			<point x="778" y="456"/>
			<point x="766" y="501" type="qcurve" smooth="yes"/>
			<point x="755" y="545"/>
			<point x="755" y="573" type="qcurve" smooth="yes"/>
			<point x="755" y="593"/>
			<point x="764" y="621"/>
			<point x="789" y="642"/>
			<point x="835" y="658"/>
			<point x="872" y="664" type="qcurve" smooth="yes"/>
			<point x="892" y="667"/>
			<point x="892" y="687" type="qcurve" smooth="yes"/>
			<point x="892" y="698"/>
			<point x="878" y="715"/>
			<point x="867" y="715" type="qcurve" smooth="yes"/>
			<point x="863" y="715" type="line"/>
			<point x="829" y="708"/>
			<point x="772" y="690"/>
			<point x="731" y="661"/>
			<point x="707" y="616"/>
			<point x="706" y="581" type="qcurve"/>
			<point x="692" y="581"/>
			<point x="685" y="571" type="qcurve"/>
			<point x="660" y="531" type="line" smooth="yes"/>
			<point x="634" y="490"/>
			<point x="583" y="407"/>
			<point x="536" y="323"/>
			<point x="496" y="235"/>
			<point x="481" y="188" type="qcurve"/>
			<point x="449" y="230"/>
			<point x="403" y="324"/>
			<point x="362" y="424"/>
			<point x="320" y="526"/>
			<point x="293" y="575" type="qcurve" smooth="yes"/>
			<point x="273" y="611"/>
			<point x="232" y="659"/>
			<point x="184" y="688"/>
			<point x="128" y="700"/>
			<point x="92" y="700" type="qcurve" smooth="yes"/>
			<point x="79" y="700"/>
			<point x="55" y="690"/>
			<point x="55" y="673" type="qcurve" smooth="yes"/>
			<point x="55" y="663"/>
			<point x="66" y="649"/>
			<point x="75" y="649" type="qcurve" smooth="yes"/>
			<point x="80" y="649"/>
			<point x="92" y="650"/>
			<point x="97" y="650" type="qcurve" smooth="yes"/>
			<point x="122" y="650"/>
			<point x="163" y="642"/>
			<point x="199" y="619"/>
			<point x="232" y="580"/>
			<point x="249" y="549" type="qcurve" smooth="yes"/>
			<point x="278" y="500"/>
			<point x="321" y="395"/>
			<point x="365" y="290"/>
			<point x="416" y="188"/>
			<point x="454" y="142" type="qcurve" smooth="yes"/>
			<point x="461" y="133"/>
			<point x="466" y="132" type="qcurve"/>
			<point x="459" y="102"/>
			<point x="449" y="40"/>
			<point x="449" y="7" type="qcurve" smooth="yes"/>
			<point x="449" y="-3"/>
			<point x="462" y="-15"/>
			<point x="472" y="-15" type="qcurve" smooth="yes"/>
			<point x="475" y="-15" type="line" smooth="yes"/>
			<point x="484" y="-15"/>
			<point x="497" y="-1"/>
			<point x="499" y="8" type="qcurve"/>
			<point x="502" y="79"/>
			<point x="539" y="208"/>
			<point x="595" y="329"/>
			<point x="666" y="444"/>
			<point x="704" y="503" type="qcurve" smooth="yes"/>
			<point x="712" y="515" type="line"/>
			<point x="713" y="503"/>
			<point x="718" y="489" type="qcurve"/>
			<point x="739" y="403"/>
			<point x="739" y="303" type="qcurve" smooth="yes"/>
			<point x="739" y="194"/>
			<point x="713" y="75" type="qcurve"/>
			<point x="712" y="74"/>
			<point x="712" y="72" type="qcurve"/>
			<point x="698" y="72"/>
			<point x="653" y="67"/>
			<point x="610" y="57"/>
			<point x="579" y="39"/>
			<point x="579" y="25" type="qcurve" smooth="yes"/>
			<point x="579" y="14"/>
			<point x="594" y="0"/>
		</contour>
		<contour>
			<point x="342" y="0" type="line" smooth="yes"/>
			<point x="353" y="0"/>
			<point x="367" y="12"/>
			<point x="367" y="23" type="qcurve" smooth="yes"/>
			<point x="367" y="38"/>
			<point x="334" y="54"/>
			<point x="289" y="62"/>
			<point x="239" y="64"/>
			<point x="223" y="64" type="qcurve"/>
			<point x="223" y="66" type="line"/>
			<point x="225" y="86"/>
			<point x="225" y="122"/>
			<point x="225" y="140" type="qcurve" smooth="yes"/>
			<point x="225" y="190" type="line" smooth="yes"/>
			<point x="227" y="272"/>
			<point x="237" y="428"/>
			<point x="263" y="503" type="qcurve" smooth="yes"/>
			<point x="265" y="509"/>
			<point x="265" y="512" type="qcurve" smooth="yes"/>
			<point x="265" y="523"/>
			<point x="249" y="536"/>
			<point x="238" y="536" type="qcurve" smooth="yes"/>
			<point x="222" y="536"/>
			<point x="216" y="520" type="qcurve" smooth="yes"/>
			<point x="196" y="463"/>
			<point x="182" y="351"/>
			<point x="178" y="239"/>
			<point x="177" y="127"/>
			<point x="170" y="70" type="qcurve"/>
			<point x="170" y="64" type="line"/>
			<point x="153" y="64"/>
			<point x="104" y="62"/>
			<point x="58" y="54"/>
			<point x="25" y="38"/>
			<point x="25" y="23" type="qcurve" smooth="yes"/>
			<point x="25" y="13"/>
			<point x="39" y="-1"/>
			<point x="50" y="-1" type="qcurve" smooth="yes"/>
			<point x="53" y="-1"/>
			<point x="55" y="0" type="qcurve"/>
			<point x="125" y="15"/>
			<point x="196" y="15" type="qcurve" smooth="yes"/>
			<point x="266" y="15"/>
			<point x="338" y="0" type="qcurve"/>
		</contour>
	</outline>
</glyph>
<glyph name="O" format="2">
	<advance width="720"/>
	<unicode hex="004F"/>
	<note>
		O
  </note>
	<outline>
		<contour>
			<point x="348" y="-16" type="qcurve" smooth="yes"/>
			<point x="351" y="-16" type="line" smooth="yes"/>
			<point x="415" y="-16"/>
			<point x="536" y="32"/>
			<point x="631" y="114"/>
			<point x="688" y="226"/>
			<point x="688" y="291" type="qcurve" smooth="yes"/>
			<point x="688" y="306"/>
			<point x="685" y="338"/>
			<point x="681" y="354" type="qcurve"/>
			<point x="681" y="355" type="line"/>
			<point x="682" y="357"/>
			<point x="682" y="364" type="qcurve"/>
			<point x="679" y="443"/>
			<point x="630" y="572"/>
			<point x="545" y="664"/>
			<point x="429" y="713"/>
			<point x="360" y="713" type="qcurve" smooth="yes"/>
			<point x="293" y="713"/>
			<point x="174" y="652"/>
			<point x="84" y="552"/>
			<point x="32" y="420"/>
			<point x="32" y="350" type="qcurve" smooth="yes"/>
			<point x="32" y="272"/>
			<point x="82" y="138"/>
			<point x="169" y="40"/>
			<point x="283" y="-16"/>
		</contour>
		<contour>
			<point x="362" y="663" type="line" smooth="yes"/>
			<point x="421" y="663"/>
			<point x="518" y="621"/>
			<point x="588" y="542"/>
			<point x="629" y="431"/>
			<point x="632" y="362" type="qcurve"/>
			<point x="632" y="357"/>
			<point x="633" y="355" type="qcurve"/>
			<point x="632" y="353"/>
			<point x="632" y="349" type="qcurve" smooth="yes"/>
			<point x="632" y="334"/>
			<point x="639" y="305"/>
			<point x="639" y="291" type="qcurve" smooth="yes"/>
			<point x="639" y="232"/>
			<point x="587" y="137"/>
			<point x="504" y="70"/>
			<point x="401" y="34"/>
			<point x="350" y="34" type="qcurve" smooth="yes"/>
			<point x="348" y="34" type="line" smooth="yes"/>
			<point x="292" y="34"/>
			<point x="195" y="83"/>
			<point x="123" y="168"/>
			<point x="82" y="284"/>
			<point x="82" y="352" type="qcurve" smooth="yes"/>
			<point x="82" y="410"/>
			<point x="125" y="520"/>
			<point x="198" y="606"/>
			<point x="296" y="660"/>
			<point x="351" y="663" type="qcurve"/>
		</contour>
	</outline>
</glyph>
<glyph name="P" format="2">
	<advance width="581"/>
	<unicode hex="0050"/>
	<note>
		P
  </note>
	<outline>
		<contour>
			<point x="362" y="312" type="qcurve" smooth="yes"/>
			<point x="405" y="312"/>
			<point x="478" y="344"/>
			<point x="531" y="400"/>
			<point x="561" y="477"/>
			<point x="561" y="523" type="qcurve" smooth="yes"/>
			<point x="561" y="595"/>
			<point x="514" y="648" type="qcurve" smooth="yes"/>
			<point x="490" y="675"/>
			<point x="433" y="705"/>
			<point x="367" y="719"/>
			<point x="292" y="722"/>
			<point x="249" y="722" type="qcurve" smooth="yes"/>
			<point x="223" y="722"/>
			<point x="171" y="721"/>
			<point x="145" y="721" type="qcurve" smooth="yes"/>
			<point x="53" y="721" type="line" smooth="yes"/>
			<point x="42" y="721"/>
			<point x="27" y="706"/>
			<point x="27" y="695" type="qcurve" smooth="yes"/>
			<point x="27" y="683"/>
			<point x="39" y="672"/>
			<point x="58" y="668"/>
			<point x="80" y="669"/>
			<point x="90" y="669" type="qcurve" smooth="yes"/>
			<point x="104" y="669"/>
			<point x="132" y="669"/>
			<point x="146" y="671" type="qcurve"/>
			<point x="172" y="671" type="line"/>
			<point x="162" y="664"/>
			<point x="162" y="653" type="qcurve" smooth="yes"/>
			<point x="162" y="650"/>
			<point x="163" y="648" type="qcurve"/>
			<point x="173" y="565"/>
			<point x="178" y="401"/>
			<point x="178" y="318" type="qcurve" smooth="yes"/>
			<point x="178" y="217" type="line"/>
			<point x="178" y="87" type="line"/>
			<point x="149" y="78"/>
			<point x="93" y="56"/>
			<point x="75" y="50" type="qcurve" smooth="yes"/>
			<point x="55" y="44"/>
			<point x="55" y="25" type="qcurve" smooth="yes"/>
			<point x="55" y="13"/>
			<point x="73" y="-1"/>
			<point x="81" y="-1" type="qcurve" smooth="yes"/>
			<point x="94" y="-1"/>
			<point x="126" y="12"/>
			<point x="162" y="29"/>
			<point x="198" y="42"/>
			<point x="215" y="42" type="qcurve" smooth="yes"/>
			<point x="234" y="42"/>
			<point x="272" y="28"/>
			<point x="307" y="12"/>
			<point x="340" y="-2"/>
			<point x="354" y="-2" type="qcurve" smooth="yes"/>
			<point x="362" y="-2"/>
			<point x="380" y="12"/>
			<point x="380" y="24" type="qcurve" smooth="yes"/>
			<point x="380" y="44"/>
			<point x="361" y="48" type="qcurve" smooth="yes"/>
			<point x="344" y="52"/>
			<point x="308" y="66"/>
			<point x="273" y="80"/>
			<point x="241" y="92"/>
			<point x="229" y="94" type="qcurve"/>
			<point x="229" y="125"/>
			<point x="230" y="186"/>
			<point x="230" y="217" type="qcurve" smooth="yes"/>
			<point x="230" y="323" type="line"/>
			<point x="262" y="318"/>
			<point x="335" y="312"/>
		</contour>
		<contour>
			<point x="275" y="372" type="qcurve"/>
			<point x="264" y="372"/>
			<point x="241" y="373"/>
			<point x="230" y="375" type="qcurve"/>
			<point x="229" y="445"/>
			<point x="223" y="584"/>
			<point x="215" y="653" type="qcurve"/>
			<point x="210" y="665"/>
			<point x="203" y="671" type="qcurve"/>
			<point x="241" y="671"/>
			<point x="315" y="670"/>
			<point x="353" y="668" type="qcurve" smooth="yes"/>
			<point x="385" y="667"/>
			<point x="442" y="645"/>
			<point x="485" y="606"/>
			<point x="510" y="553"/>
			<point x="510" y="522" type="qcurve" smooth="yes"/>
			<point x="510" y="488"/>
			<point x="488" y="430"/>
			<point x="448" y="387"/>
			<point x="394" y="363"/>
			<point x="362" y="363" type="qcurve" smooth="yes"/>
			<point x="341" y="363"/>
			<point x="296" y="370"/>
		</contour>
	</outline>
</glyph>
<glyph name="Q" format="2">
	<advance width="670"/>
	<unicode hex="0051"/>
	<note>
		Q
  </note>
	<outline>
		<contour>
			<point x="705" y="-172" type="qcurve" smooth="yes"/>
			<point x="724" y="-172"/>
			<point x="752" y="-165"/>
			<point x="752" y="-145" type="qcurve" smooth="yes"/>
			<point x="752" y="-134"/>
			<point x="737" y="-120"/>
			<point x="727" y="-120" type="qcurve" smooth="yes"/>
			<point x="721" y="-120"/>
			<point x="710" y="-121"/>
			<point x="705" y="-121" type="qcurve" smooth="yes"/>
			<point x="665" y="-121"/>
			<point x="591" y="-94"/>
			<point x="521" y="-55"/>
			<point x="453" y="-10"/>
			<point x="419" y="9" type="qcurve"/>
			<point x="421" y="11" type="line" smooth="yes"/>
			<point x="427" y="17"/>
			<point x="429" y="22" type="qcurve"/>
			<point x="431" y="21"/>
			<point x="435" y="21" type="qcurve" smooth="yes"/>
			<point x="441" y="21"/>
			<point x="447" y="24" type="qcurve"/>
			<point x="651" y="137"/>
			<point x="651" y="335" type="qcurve" smooth="yes"/>
			<point x="651" y="428"/>
			<point x="607" y="543" type="qcurve" smooth="yes"/>
			<point x="572" y="635"/>
			<point x="444" y="723"/>
			<point x="347" y="723" type="qcurve" smooth="yes"/>
			<point x="179" y="723"/>
			<point x="14" y="529"/>
			<point x="14" y="346" type="qcurve" smooth="yes"/>
			<point x="14" y="203"/>
			<point x="181" y="26"/>
			<point x="356" y="-23" type="qcurve"/>
			<point x="360" y="-25"/>
			<point x="366" y="-25" type="qcurve" smooth="yes"/>
			<point x="371" y="-25"/>
			<point x="378" y="-25"/>
			<point x="384" y="-23" type="qcurve"/>
			<point x="387" y="-30"/>
			<point x="395" y="-35" type="qcurve" smooth="yes"/>
			<point x="429" y="-55"/>
			<point x="499" y="-103"/>
			<point x="576" y="-144"/>
			<point x="659" y="-172"/>
		</contour>
		<contour>
			<point x="350" y="673" type="qcurve" smooth="yes"/>
			<point x="431" y="673"/>
			<point x="531" y="601"/>
			<point x="560" y="525" type="qcurve" smooth="yes"/>
			<point x="601" y="417"/>
			<point x="601" y="335" type="qcurve" smooth="yes"/>
			<point x="601" y="248"/>
			<point x="514" y="119"/>
			<point x="423" y="68" type="qcurve"/>
			<point x="417" y="65"/>
			<point x="412" y="56" type="qcurve"/>
			<point x="410" y="57"/>
			<point x="405" y="57" type="qcurve" smooth="yes"/>
			<point x="398" y="57"/>
			<point x="386" y="47"/>
			<point x="376" y="36"/>
			<point x="370" y="26"/>
			<point x="370" y="26" type="qcurve" smooth="yes"/>
			<point x="369" y="26" type="line"/>
			<point x="211" y="70"/>
			<point x="64" y="221"/>
			<point x="64" y="346" type="qcurve" smooth="yes"/>
			<point x="64" y="512"/>
			<point x="203" y="673"/>
		</contour>
	</outline>
</glyph>
<glyph name="R" format="2">
	<advance width="736"/>
	<unicode hex="0052"/>
	<note>
		R
  </note>
	<outline>
		<contour>
			<point x="702" y="-14" type="qcurve" smooth="yes"/>
			<point x="712" y="-14"/>
			<point x="726" y="0"/>
			<point x="726" y="10" type="qcurve" smooth="yes"/>
			<point x="726" y="20"/>
			<point x="712" y="34"/>
			<point x="702" y="34" type="qcurve" smooth="yes"/>
			<point x="657" y="34"/>
			<point x="592" y="65"/>
			<point x="544" y="116"/>
			<point x="507" y="182"/>
			<point x="489" y="217" type="qcurve" smooth="yes"/>
			<point x="474" y="246" type="line" smooth="yes"/>
			<point x="458" y="277"/>
			<point x="421" y="323"/>
			<point x="401" y="337" type="qcurve"/>
			<point x="409" y="337" type="line" smooth="yes"/>
			<point x="420" y="337"/>
			<point x="427" y="346"/>
			<point x="431" y="359"/>
			<point x="438" y="376"/>
			<point x="450" y="385" type="qcurve" smooth="yes"/>
			<point x="455" y="389"/>
			<point x="464" y="395"/>
			<point x="468" y="400" type="qcurve"/>
			<point x="482" y="414" type="line" smooth="yes"/>
			<point x="492" y="424"/>
			<point x="514" y="448"/>
			<point x="532" y="475"/>
			<point x="543" y="507"/>
			<point x="543" y="525" type="qcurve" smooth="yes"/>
			<point x="543" y="562"/>
			<point x="509" y="625"/>
			<point x="458" y="669"/>
			<point x="401" y="694"/>
			<point x="377" y="694" type="qcurve" smooth="yes"/>
			<point x="349" y="694"/>
			<point x="292" y="674"/>
			<point x="264" y="674" type="qcurve" smooth="yes"/>
			<point x="222" y="674"/>
			<point x="138" y="693"/>
			<point x="93" y="693" type="qcurve" smooth="yes"/>
			<point x="62" y="693"/>
			<point x="62" y="668" type="qcurve" smooth="yes"/>
			<point x="62" y="658"/>
			<point x="78" y="645"/>
			<point x="87" y="645" type="qcurve" smooth="yes"/>
			<point x="94" y="645" type="line" smooth="yes"/>
			<point x="132" y="645"/>
			<point x="219" y="626"/>
			<point x="264" y="626" type="qcurve" smooth="yes"/>
			<point x="284" y="626"/>
			<point x="326" y="633"/>
			<point x="349" y="641" type="qcurve"/>
			<point x="356" y="644"/>
			<point x="370" y="646"/>
			<point x="377" y="646" type="qcurve" smooth="yes"/>
			<point x="408" y="646"/>
			<point x="466" y="602"/>
			<point x="485" y="561" type="qcurve" smooth="yes"/>
			<point x="495" y="540"/>
			<point x="495" y="523" type="qcurve" smooth="yes"/>
			<point x="495" y="503"/>
			<point x="470" y="470"/>
			<point x="448" y="448" type="qcurve" smooth="yes"/>
			<point x="433" y="433" type="line" smooth="yes"/>
			<point x="429" y="429"/>
			<point x="413" y="417"/>
			<point x="396" y="401"/>
			<point x="384" y="377"/>
			<point x="384" y="361" type="qcurve" smooth="yes"/>
			<point x="384" y="350"/>
			<point x="388" y="346" type="qcurve"/>
			<point x="347" y="371"/>
			<point x="292" y="371" type="qcurve" smooth="yes"/>
			<point x="272" y="371"/>
			<point x="244" y="362"/>
			<point x="244" y="345" type="qcurve" smooth="yes"/>
			<point x="244" y="335"/>
			<point x="260" y="322"/>
			<point x="269" y="322" type="qcurve" smooth="yes"/>
			<point x="277" y="322"/>
			<point x="290" y="324"/>
			<point x="297" y="324" type="qcurve" smooth="yes"/>
			<point x="342" y="324"/>
			<point x="404" y="277"/>
			<point x="431" y="224" type="qcurve" smooth="yes"/>
			<point x="446" y="195" type="line" smooth="yes"/>
			<point x="465" y="159"/>
			<point x="506" y="84"/>
			<point x="564" y="24"/>
			<point x="645" y="-14"/>
		</contour>
		<contour>
			<point x="326" y="-13" type="qcurve" smooth="yes"/>
			<point x="341" y="-13"/>
			<point x="371" y="-5"/>
			<point x="371" y="12" type="qcurve" smooth="yes"/>
			<point x="371" y="23"/>
			<point x="358" y="36"/>
			<point x="349" y="36" type="qcurve" smooth="yes"/>
			<point x="344" y="36"/>
			<point x="332" y="35"/>
			<point x="327" y="35" type="qcurve" smooth="yes"/>
			<point x="259" y="35"/>
			<point x="207" y="74" type="qcurve"/>
			<point x="219" y="108"/>
			<point x="219" y="161" type="qcurve" smooth="yes"/>
			<point x="219" y="206"/>
			<point x="215" y="296"/>
			<point x="215" y="342" type="qcurve" smooth="yes"/>
			<point x="215" y="401"/>
			<point x="217" y="514"/>
			<point x="217" y="572" type="qcurve" smooth="yes"/>
			<point x="217" y="582"/>
			<point x="203" y="596"/>
			<point x="193" y="596" type="qcurve" smooth="yes"/>
			<point x="183" y="596"/>
			<point x="169" y="582"/>
			<point x="169" y="572" type="qcurve" smooth="yes"/>
			<point x="169" y="514"/>
			<point x="167" y="399"/>
			<point x="167" y="341" type="qcurve" smooth="yes"/>
			<point x="167" y="296"/>
			<point x="171" y="205"/>
			<point x="171" y="159" type="qcurve" smooth="yes"/>
			<point x="171" y="90"/>
			<point x="120" y="35"/>
			<point x="60" y="35" type="qcurve" smooth="yes"/>
			<point x="55" y="35"/>
			<point x="46" y="35"/>
			<point x="41" y="36" type="qcurve"/>
			<point x="32" y="36"/>
			<point x="15" y="25"/>
			<point x="15" y="14" type="qcurve" smooth="yes"/>
			<point x="15" y="-7"/>
			<point x="46" y="-13"/>
			<point x="62" y="-13" type="qcurve" smooth="yes"/>
			<point x="137" y="-13"/>
			<point x="177" y="27" type="qcurve" smooth="yes"/>
			<point x="179" y="29"/>
			<point x="181" y="30"/>
			<point x="182" y="32" type="qcurve"/>
			<point x="246" y="-13"/>
		</contour>
	</outline>
</glyph>
<glyph name="S" format="2">
	<advance width="494"/>
	<unicode hex="0053"/>
	<note>
		S
  </note>
	<outline>
		<contour>
			<point x="230" y="-7" type="qcurve" smooth="yes"/>
			<point x="336" y="-7"/>
			<point x="439" y="97"/>
			<point x="439" y="191" type="qcurve" smooth="yes"/>
			<point x="439" y="269"/>
			<point x="365" y="361"/>
			<point x="287" y="383" type="qcurve" smooth="yes"/>
			<point x="257" y="392"/>
			<point x="191" y="426"/>
			<point x="137" y="472"/>
			<point x="102" y="528"/>
			<point x="102" y="558" type="qcurve" smooth="yes"/>
			<point x="102" y="572"/>
			<point x="125" y="611"/>
			<point x="169" y="647"/>
			<point x="230" y="673"/>
			<point x="268" y="673" type="qcurve" smooth="yes"/>
			<point x="303" y="673"/>
			<point x="353" y="614"/>
			<point x="373" y="542" type="qcurve" smooth="yes"/>
			<point x="378" y="523"/>
			<point x="396" y="523" type="qcurve" smooth="yes"/>
			<point x="407" y="523"/>
			<point x="422" y="537"/>
			<point x="422" y="548" type="qcurve" smooth="yes"/>
			<point x="422" y="553"/>
			<point x="421" y="556" type="qcurve"/>
			<point x="395" y="646"/>
			<point x="322" y="724"/>
			<point x="268" y="724" type="qcurve" smooth="yes"/>
			<point x="233" y="724"/>
			<point x="184" y="705" type="qcurve" smooth="yes"/>
			<point x="141" y="688"/>
			<point x="89" y="648"/>
			<point x="60" y="609"/>
			<point x="51" y="573"/>
			<point x="51" y="559" type="qcurve" smooth="yes"/>
			<point x="51" y="533"/>
			<point x="78" y="465"/>
			<point x="116" y="427" type="qcurve" smooth="yes"/>
			<point x="180" y="361"/>
			<point x="274" y="335" type="qcurve" smooth="yes"/>
			<point x="336" y="318"/>
			<point x="389" y="253"/>
			<point x="389" y="194" type="qcurve" smooth="yes"/>
			<point x="389" y="119"/>
			<point x="317" y="44"/>
			<point x="230" y="44" type="qcurve" smooth="yes"/>
			<point x="167" y="44"/>
			<point x="98" y="117"/>
			<point x="84" y="199" type="qcurve"/>
			<point x="80" y="214"/>
			<point x="71" y="224" type="qcurve"/>
			<point x="71" y="227" type="line" smooth="yes"/>
			<point x="71" y="235"/>
			<point x="58" y="250"/>
			<point x="47" y="250" type="qcurve" smooth="yes"/>
			<point x="36" y="250"/>
			<point x="20" y="231"/>
			<point x="20" y="220" type="qcurve" smooth="yes"/>
			<point x="20" y="207"/>
			<point x="33" y="190"/>
			<point x="35" y="190" type="qcurve"/>
			<point x="52" y="88"/>
			<point x="148" y="-7"/>
		</contour>
	</outline>
</glyph>
<glyph name="T" format="2">
	<advance width="672"/>
	<unicode hex="0054"/>
	<note>
		T
  </note>
	<outline>
		<contour>
			<point x="52" y="511" type="qcurve" smooth="yes"/>
			<point x="67" y="511"/>
			<point x="75" y="526" type="qcurve"/>
			<point x="127" y="644"/>
			<point x="217" y="644" type="qcurve" smooth="yes"/>
			<point x="261" y="644"/>
			<point x="317" y="615" type="qcurve" smooth="yes"/>
			<point x="327" y="610"/>
			<point x="347" y="601"/>
			<point x="358" y="599" type="qcurve"/>
			<point x="351" y="595"/>
			<point x="345" y="569"/>
			<point x="344" y="535"/>
			<point x="345" y="499"/>
			<point x="345" y="486" type="qcurve" smooth="yes"/>
			<point x="345" y="438"/>
			<point x="349" y="346"/>
			<point x="349" y="298" type="qcurve" smooth="yes"/>
			<point x="349" y="243"/>
			<point x="342" y="134"/>
			<point x="332" y="80" type="qcurve"/>
			<point x="331" y="78"/>
			<point x="331" y="75" type="qcurve" smooth="yes"/>
			<point x="331" y="72"/>
			<point x="332" y="71" type="qcurve"/>
			<point x="323" y="71"/>
			<point x="275" y="67"/>
			<point x="225" y="55"/>
			<point x="186" y="33"/>
			<point x="186" y="16" type="qcurve" smooth="yes"/>
			<point x="186" y="5"/>
			<point x="200" y="-8"/>
			<point x="211" y="-8" type="qcurve" smooth="yes"/>
			<point x="217" y="-8"/>
			<point x="223" y="-5" type="qcurve"/>
			<point x="249" y="10"/>
			<point x="303" y="21"/>
			<point x="330" y="21" type="qcurve" smooth="yes"/>
			<point x="379" y="21"/>
			<point x="479" y="-3"/>
			<point x="529" y="-8" type="qcurve"/>
			<point x="540" y="-8"/>
			<point x="557" y="2"/>
			<point x="557" y="14" type="qcurve" smooth="yes"/>
			<point x="557" y="37"/>
			<point x="535" y="42" type="qcurve"/>
			<point x="497" y="46"/>
			<point x="421" y="63"/>
			<point x="380" y="68" type="qcurve"/>
			<point x="381" y="69"/>
			<point x="381" y="71" type="qcurve"/>
			<point x="392" y="128"/>
			<point x="399" y="241"/>
			<point x="399" y="298" type="qcurve" smooth="yes"/>
			<point x="399" y="346"/>
			<point x="395" y="439"/>
			<point x="395" y="486" type="qcurve" smooth="yes"/>
			<point x="395" y="509"/>
			<point x="395" y="553"/>
			<point x="397" y="576" type="qcurve"/>
			<point x="397" y="589"/>
			<point x="386" y="598" type="qcurve"/>
			<point x="407" y="601"/>
			<point x="432" y="618" type="qcurve" smooth="yes"/>
			<point x="454" y="633"/>
			<point x="500" y="645"/>
			<point x="523" y="645" type="qcurve" smooth="yes"/>
			<point x="546" y="645"/>
			<point x="592" y="636"/>
			<point x="615" y="630" type="qcurve"/>
			<point x="617" y="629"/>
			<point x="622" y="629" type="qcurve" smooth="yes"/>
			<point x="631" y="629"/>
			<point x="647" y="642"/>
			<point x="647" y="654" type="qcurve" smooth="yes"/>
			<point x="647" y="666"/>
			<point x="622" y="682"/>
			<point x="585" y="692"/>
			<point x="542" y="696"/>
			<point x="525" y="696" type="qcurve" smooth="yes"/>
			<point x="495" y="696"/>
			<point x="433" y="680"/>
			<point x="404" y="660" type="qcurve" smooth="yes"/>
			<point x="386" y="648"/>
			<point x="375" y="648" type="qcurve" smooth="yes"/>
			<point x="362" y="648"/>
			<point x="340" y="660" type="qcurve" smooth="yes"/>
			<point x="275" y="694"/>
			<point x="218" y="694" type="qcurve" smooth="yes"/>
			<point x="94" y="694"/>
			<point x="30" y="547" type="qcurve"/>
			<point x="27" y="541"/>
			<point x="27" y="536" type="qcurve" smooth="yes"/>
			<point x="27" y="526"/>
			<point x="42" y="511"/>
		</contour>
	</outline>
</glyph>
<glyph name="U" format="2">
	<advance width="687"/>
	<unicode hex="0055"/>
	<note>
		U
  </note>
	<outline>
		<contour>
			<point x="325" y="-16" type="qcurve" smooth="yes"/>
			<point x="375" y="-16"/>
			<point x="465" y="17"/>
			<point x="534" y="76"/>
			<point x="575" y="155"/>
			<point x="577" y="201" type="qcurve" smooth="yes"/>
			<point x="581" y="258" type="line" smooth="yes"/>
			<point x="587" y="339"/>
			<point x="587" y="422" type="qcurve" smooth="yes"/>
			<point x="587" y="472"/>
			<point x="579" y="571"/>
			<point x="568" y="622" type="qcurve"/>
			<point x="578" y="623"/>
			<point x="611" y="630"/>
			<point x="644" y="643"/>
			<point x="668" y="661"/>
			<point x="668" y="674" type="qcurve" smooth="yes"/>
			<point x="668" y="685"/>
			<point x="653" y="699"/>
			<point x="643" y="699" type="qcurve" smooth="yes"/>
			<point x="637" y="699"/>
			<point x="631" y="696" type="qcurve"/>
			<point x="609" y="682"/>
			<point x="566" y="672"/>
			<point x="543" y="672" type="qcurve" smooth="yes"/>
			<point x="511" y="672"/>
			<point x="449" y="688"/>
			<point x="418" y="698" type="qcurve" smooth="yes"/>
			<point x="415" y="699"/>
			<point x="410" y="699" type="qcurve" smooth="yes"/>
			<point x="400" y="699"/>
			<point x="385" y="686"/>
			<point x="385" y="673" type="qcurve" smooth="yes"/>
			<point x="385" y="662"/>
			<point x="413" y="645"/>
			<point x="453" y="632"/>
			<point x="499" y="624"/>
			<point x="517" y="622" type="qcurve"/>
			<point x="528" y="571"/>
			<point x="537" y="470"/>
			<point x="537" y="419" type="qcurve" smooth="yes"/>
			<point x="537" y="379"/>
			<point x="533" y="300"/>
			<point x="531" y="261" type="qcurve" smooth="yes"/>
			<point x="528" y="203" type="line" smooth="yes"/>
			<point x="526" y="165"/>
			<point x="491" y="103"/>
			<point x="435" y="58"/>
			<point x="363" y="34"/>
			<point x="326" y="34" type="qcurve" smooth="yes"/>
			<point x="271" y="34"/>
			<point x="200" y="65"/>
			<point x="159" y="129"/>
			<point x="143" y="226"/>
			<point x="143" y="292" type="qcurve" smooth="yes"/>
			<point x="143" y="326"/>
			<point x="145" y="395"/>
			<point x="145" y="430" type="qcurve" smooth="yes"/>
			<point x="145" y="461"/>
			<point x="141" y="522"/>
			<point x="141" y="553" type="qcurve" smooth="yes"/>
			<point x="141" y="601"/>
			<point x="175" y="639"/>
			<point x="215" y="639" type="qcurve" smooth="yes"/>
			<point x="226" y="639"/>
			<point x="251" y="633"/>
			<point x="265" y="633" type="qcurve" smooth="yes"/>
			<point x="274" y="633"/>
			<point x="289" y="648"/>
			<point x="289" y="660" type="qcurve" smooth="yes"/>
			<point x="289" y="671"/>
			<point x="273" y="683"/>
			<point x="250" y="688"/>
			<point x="226" y="689"/>
			<point x="217" y="689" type="qcurve" smooth="yes"/>
			<point x="154" y="689"/>
			<point x="90" y="620"/>
			<point x="90" y="554" type="qcurve" smooth="yes"/>
			<point x="90" y="524"/>
			<point x="95" y="461"/>
			<point x="95" y="430" type="qcurve" smooth="yes"/>
			<point x="95" y="395"/>
			<point x="93" y="327"/>
			<point x="93" y="292" type="qcurve" smooth="yes"/>
			<point x="93" y="217"/>
			<point x="116" y="102"/>
			<point x="170" y="24"/>
			<point x="259" y="-16"/>
		</contour>
	</outline>
</glyph>
<glyph name="V" format="2">
	<advance width="729"/>
	<unicode hex="0056"/>
	<note>
		V
  </note>
	<outline>
		<contour>
			<point x="602" y="665" type="line" smooth="yes"/>
			<point x="612" y="665"/>
			<point x="649" y="670"/>
			<point x="685" y="680"/>
			<point x="712" y="698"/>
			<point x="712" y="712" type="qcurve" smooth="yes"/>
			<point x="712" y="722"/>
			<point x="697" y="737"/>
			<point x="687" y="737" type="qcurve" smooth="yes"/>
			<point x="679" y="737"/>
			<point x="674" y="733" type="qcurve"/>
			<point x="656" y="723"/>
			<point x="621" y="715"/>
			<point x="602" y="715" type="qcurve" smooth="yes"/>
			<point x="562" y="715"/>
			<point x="477" y="737"/>
			<point x="432" y="737" type="qcurve" smooth="yes"/>
			<point x="417" y="737"/>
			<point x="398" y="725"/>
			<point x="398" y="712" type="qcurve" smooth="yes"/>
			<point x="398" y="701"/>
			<point x="412" y="687"/>
			<point x="423" y="687" type="qcurve" smooth="yes"/>
			<point x="449" y="687"/>
			<point x="514" y="678"/>
			<point x="543" y="670" type="qcurve"/>
			<point x="514" y="607"/>
			<point x="480" y="481"/>
			<point x="444" y="361"/>
			<point x="393" y="251"/>
			<point x="349" y="204" type="qcurve"/>
			<point x="341" y="225"/>
			<point x="322" y="265"/>
			<point x="313" y="284" type="qcurve" smooth="yes"/>
			<point x="262" y="390"/>
			<point x="194" y="562"/>
			<point x="171" y="643" type="qcurve"/>
			<point x="180" y="646"/>
			<point x="198" y="653"/>
			<point x="207" y="657" type="qcurve"/>
			<point x="217" y="661"/>
			<point x="240" y="668"/>
			<point x="260" y="675"/>
			<point x="273" y="687"/>
			<point x="273" y="698" type="qcurve" smooth="yes"/>
			<point x="273" y="709"/>
			<point x="259" y="722"/>
			<point x="248" y="722" type="qcurve" smooth="yes"/>
			<point x="242" y="722" type="line"/>
			<point x="208" y="713"/>
			<point x="143" y="684"/>
			<point x="119" y="684" type="qcurve" smooth="yes"/>
			<point x="104" y="684"/>
			<point x="76" y="697"/>
			<point x="62" y="714" type="qcurve"/>
			<point x="54" y="723"/>
			<point x="43" y="723" type="qcurve" smooth="yes"/>
			<point x="34" y="723"/>
			<point x="18" y="708"/>
			<point x="18" y="698" type="qcurve" smooth="yes"/>
			<point x="18" y="690"/>
			<point x="25" y="681" type="qcurve"/>
			<point x="48" y="655"/>
			<point x="95" y="634"/>
			<point x="119" y="634" type="qcurve" smooth="yes"/>
			<point x="120" y="634" type="line"/>
			<point x="120" y="633"/>
			<point x="121" y="632" type="qcurve"/>
			<point x="146" y="549"/>
			<point x="215" y="371"/>
			<point x="268" y="262" type="qcurve" smooth="yes"/>
			<point x="294" y="208"/>
			<point x="329" y="115"/>
			<point x="329" y="65" type="qcurve" smooth="yes"/>
			<point x="329" y="54"/>
			<point x="325" y="34"/>
			<point x="325" y="23" type="qcurve" smooth="yes"/>
			<point x="325" y="15"/>
			<point x="337" y="2"/>
			<point x="347" y="0" type="qcurve"/>
			<point x="351" y="0" type="line" smooth="yes"/>
			<point x="362" y="0"/>
			<point x="373" y="14"/>
			<point x="378" y="33"/>
			<point x="379" y="55"/>
			<point x="379" y="64" type="qcurve" smooth="yes"/>
			<point x="379" y="87"/>
			<point x="372" y="131"/>
			<point x="367" y="152" type="qcurve"/>
			<point x="425" y="205"/>
			<point x="488" y="332"/>
			<point x="529" y="465"/>
			<point x="563" y="598"/>
			<point x="593" y="657" type="qcurve"/>
			<point x="595" y="663"/>
			<point x="595" y="665" type="qcurve"/>
		</contour>
	</outline>
</glyph>
<glyph name="W" format="2">
	<advance width="1027"/>
	<unicode hex="0057"/>
	<note>
		W
  </note>
	<outline>
		<contour>
			<point x="685" y="125" type="qcurve"/>
			<point x="690" y="125" type="line" smooth="yes"/>
			<point x="696" y="125"/>
			<point x="712" y="130"/>
			<point x="728" y="141"/>
			<point x="739" y="156"/>
			<point x="739" y="165" type="qcurve" smooth="yes"/>
			<point x="739" y="167"/>
			<point x="738" y="169"/>
			<point x="738" y="171" type="qcurve"/>
			<point x="744" y="174"/>
			<point x="750" y="183" type="qcurve"/>
			<point x="769" y="225" type="line" smooth="yes"/>
			<point x="817" y="331"/>
			<point x="905" y="549"/>
			<point x="934" y="664" type="qcurve"/>
			<point x="935" y="666"/>
			<point x="935" y="674" type="qcurve"/>
			<point x="943" y="674"/>
			<point x="960" y="675"/>
			<point x="968" y="676" type="qcurve"/>
			<point x="1005" y="676" type="line"/>
			<point x="1017" y="685"/>
			<point x="1017" y="699" type="qcurve" smooth="yes"/>
			<point x="1017" y="717"/>
			<point x="997" y="725" type="qcurve"/>
			<point x="974" y="725" type="line" smooth="yes"/>
			<point x="931" y="725"/>
			<point x="846" y="718"/>
			<point x="804" y="718" type="qcurve" smooth="yes"/>
			<point x="754" y="718"/>
			<point x="657" y="725"/>
			<point x="606" y="735" type="qcurve"/>
			<point x="604" y="735"/>
			<point x="603" y="736"/>
			<point x="601" y="736" type="qcurve" smooth="yes"/>
			<point x="592" y="736"/>
			<point x="578" y="722"/>
			<point x="578" y="711" type="qcurve" smooth="yes"/>
			<point x="578" y="700"/>
			<point x="596" y="688"/>
			<point x="621" y="681"/>
			<point x="651" y="678"/>
			<point x="663" y="677" type="qcurve"/>
			<point x="651" y="651"/>
			<point x="635" y="596"/>
			<point x="617" y="544"/>
			<point x="592" y="496"/>
			<point x="571" y="477" type="qcurve"/>
			<point x="564" y="469"/>
			<point x="564" y="459" type="qcurve" smooth="yes"/>
			<point x="564" y="449"/>
			<point x="579" y="435"/>
			<point x="589" y="435" type="qcurve" smooth="yes"/>
			<point x="597" y="435"/>
			<point x="604" y="442" type="qcurve"/>
			<point x="629" y="465"/>
			<point x="660" y="519"/>
			<point x="682" y="576"/>
			<point x="698" y="634"/>
			<point x="708" y="661" type="qcurve"/>
			<point x="710" y="663"/>
			<point x="710" y="668" type="qcurve" smooth="yes"/>
			<point x="710" y="673" type="line"/>
			<point x="737" y="671"/>
			<point x="790" y="669"/>
			<point x="817" y="669" type="qcurve" smooth="yes"/>
			<point x="834" y="669"/>
			<point x="869" y="670"/>
			<point x="886" y="671" type="qcurve"/>
			<point x="859" y="559"/>
			<point x="771" y="349"/>
			<point x="726" y="244" type="qcurve"/>
			<point x="706" y="203" type="line"/>
			<point x="703" y="195"/>
			<point x="703" y="190" type="qcurve" smooth="yes"/>
			<point x="703" y="188"/>
			<point x="704" y="187"/>
			<point x="704" y="186" type="qcurve"/>
			<point x="698" y="184"/>
			<point x="693" y="175"/>
			<point x="691" y="175" type="qcurve"/>
			<point x="687" y="176"/>
			<point x="681" y="190" type="qcurve"/>
			<point x="660" y="234" type="line" smooth="yes"/>
			<point x="618" y="315"/>
			<point x="535" y="481"/>
			<point x="499" y="568" type="qcurve" smooth="yes"/>
			<point x="464" y="652"/>
			<point x="376" y="730"/>
			<point x="313" y="730" type="qcurve" smooth="yes"/>
			<point x="281" y="730"/>
			<point x="205" y="711"/>
			<point x="158" y="692" type="qcurve"/>
			<point x="149" y="687"/>
			<point x="146" y="680" type="qcurve"/>
			<point x="126" y="700"/>
			<point x="78" y="725"/>
			<point x="49" y="735" type="qcurve"/>
			<point x="47" y="735"/>
			<point x="44" y="736"/>
			<point x="42" y="736" type="qcurve" smooth="yes"/>
			<point x="31" y="736"/>
			<point x="17" y="722"/>
			<point x="17" y="711" type="qcurve" smooth="yes"/>
			<point x="17" y="694"/>
			<point x="34" y="689" type="qcurve"/>
			<point x="58" y="681"/>
			<point x="95" y="663"/>
			<point x="124" y="636"/>
			<point x="145" y="597"/>
			<point x="153" y="568" type="qcurve" smooth="yes"/>
			<point x="184" y="460"/>
			<point x="283" y="256"/>
			<point x="331" y="156" type="qcurve" smooth="yes"/>
			<point x="345" y="127"/>
			<point x="351" y="74"/>
			<point x="353" y="43" type="qcurve" smooth="yes"/>
			<point x="354" y="24" type="line"/>
			<point x="355" y="14"/>
			<point x="369" y="1"/>
			<point x="378" y="1" type="qcurve" smooth="yes"/>
			<point x="379" y="1" type="line"/>
			<point x="401" y="2"/>
			<point x="401" y="27" type="qcurve" smooth="yes"/>
			<point x="401" y="45" type="line"/>
			<point x="399" y="59"/>
			<point x="398" y="85"/>
			<point x="396" y="99" type="qcurve"/>
			<point x="401" y="100"/>
			<point x="406" y="105" type="qcurve"/>
			<point x="441" y="132"/>
			<point x="485" y="199"/>
			<point x="506" y="234" type="qcurve" smooth="yes"/>
			<point x="512" y="244"/>
			<point x="529" y="268"/>
			<point x="545" y="292"/>
			<point x="556" y="314"/>
			<point x="556" y="320" type="qcurve" smooth="yes"/>
			<point x="556" y="329"/>
			<point x="541" y="343"/>
			<point x="532" y="343" type="qcurve" smooth="yes"/>
			<point x="521" y="343"/>
			<point x="513" y="333" type="qcurve" smooth="yes"/>
			<point x="495" y="310"/>
			<point x="465" y="261"/>
			<point x="437" y="213"/>
			<point x="405" y="167"/>
			<point x="385" y="148" type="qcurve"/>
			<point x="383" y="155"/>
			<point x="377" y="168"/>
			<point x="374" y="176" type="qcurve"/>
			<point x="351" y="227"/>
			<point x="302" y="326"/>
			<point x="256" y="425"/>
			<point x="214" y="527"/>
			<point x="199" y="581" type="qcurve" smooth="yes"/>
			<point x="188" y="619"/>
			<point x="172" y="646" type="qcurve"/>
			<point x="176" y="646"/>
			<point x="177" y="647" type="qcurve"/>
			<point x="219" y="664"/>
			<point x="285" y="682"/>
			<point x="312" y="682" type="qcurve" smooth="yes"/>
			<point x="361" y="682"/>
			<point x="427" y="618"/>
			<point x="456" y="548" type="qcurve" smooth="yes"/>
			<point x="492" y="461"/>
			<point x="574" y="294"/>
			<point x="616" y="212" type="qcurve" smooth="yes"/>
			<point x="638" y="169" type="line" smooth="yes"/>
			<point x="643" y="160"/>
			<point x="665" y="128"/>
		</contour>
	</outline>
</glyph>
<glyph name="X" format="2">
	<advance width="813"/>
	<unicode hex="0058"/>
	<note>
		X
  </note>
	<outline>
		<contour>
			<point x="331" y="4" type="qcurve" smooth="yes"/>
			<point x="341" y="4"/>
			<point x="355" y="16"/>
			<point x="355" y="29" type="qcurve" smooth="yes"/>
			<point x="355" y="41"/>
			<point x="329" y="57"/>
			<point x="293" y="66"/>
			<point x="255" y="71"/>
			<point x="243" y="72" type="qcurve"/>
			<point x="283" y="216"/>
			<point x="411" y="291" type="qcurve"/>
			<point x="415" y="286"/>
			<point x="423" y="275"/>
			<point x="428" y="270" type="qcurve"/>
			<point x="470" y="219"/>
			<point x="550" y="117"/>
			<point x="584" y="60" type="qcurve" smooth="yes"/>
			<point x="601" y="31"/>
			<point x="652" y="15"/>
			<point x="678" y="15" type="qcurve" smooth="yes"/>
			<point x="692" y="15"/>
			<point x="718" y="18"/>
			<point x="731" y="18" type="qcurve" smooth="yes"/>
			<point x="750" y="18"/>
			<point x="779" y="4"/>
			<point x="788" y="4" type="qcurve" smooth="yes"/>
			<point x="797" y="4"/>
			<point x="813" y="16"/>
			<point x="813" y="27" type="qcurve" smooth="yes"/>
			<point x="813" y="39"/>
			<point x="795" y="54"/>
			<point x="769" y="63"/>
			<point x="742" y="67"/>
			<point x="732" y="67" type="qcurve" smooth="yes"/>
			<point x="717" y="67"/>
			<point x="686" y="63"/>
			<point x="674" y="63" type="qcurve"/>
			<point x="657" y="64"/>
			<point x="634" y="72"/>
			<point x="626" y="85" type="qcurve" smooth="yes"/>
			<point x="584" y="156"/>
			<point x="481" y="282"/>
			<point x="379" y="408"/>
			<point x="287" y="542"/>
			<point x="256" y="620" type="qcurve"/>
			<point x="266" y="620"/>
			<point x="309" y="625"/>
			<point x="352" y="638"/>
			<point x="384" y="658"/>
			<point x="384" y="673" type="qcurve" smooth="yes"/>
			<point x="384" y="683"/>
			<point x="369" y="698"/>
			<point x="360" y="698" type="qcurve" smooth="yes"/>
			<point x="355" y="698"/>
			<point x="347" y="694" type="qcurve"/>
			<point x="324" y="679"/>
			<point x="278" y="668"/>
			<point x="255" y="668" type="qcurve" smooth="yes"/>
			<point x="229" y="668"/>
			<point x="177" y="677"/>
			<point x="125" y="688"/>
			<point x="73" y="697"/>
			<point x="46" y="697" type="qcurve" smooth="yes"/>
			<point x="45" y="697" type="line" smooth="yes"/>
			<point x="35" y="697"/>
			<point x="21" y="684"/>
			<point x="21" y="673" type="qcurve" smooth="yes"/>
			<point x="21" y="662"/>
			<point x="35" y="649"/>
			<point x="45" y="649" type="qcurve"/>
			<point x="83" y="647"/>
			<point x="163" y="629"/>
			<point x="207" y="623" type="qcurve"/>
			<point x="206" y="620"/>
			<point x="206" y="616" type="qcurve" smooth="yes"/>
			<point x="206" y="613"/>
			<point x="208" y="607" type="qcurve"/>
			<point x="239" y="529"/>
			<point x="329" y="393"/>
			<point x="380" y="330" type="qcurve"/>
			<point x="239" y="243"/>
			<point x="194" y="78" type="qcurve"/>
			<point x="193" y="77"/>
			<point x="193" y="74" type="qcurve"/>
			<point x="178" y="74"/>
			<point x="120" y="70"/>
			<point x="63" y="60"/>
			<point x="21" y="42"/>
			<point x="21" y="29" type="qcurve" smooth="yes"/>
			<point x="21" y="18"/>
			<point x="34" y="4"/>
			<point x="44" y="4" type="qcurve" smooth="yes"/>
			<point x="49" y="4"/>
			<point x="51" y="5" type="qcurve"/>
			<point x="92" y="15"/>
			<point x="164" y="25"/>
			<point x="198" y="25" type="qcurve" smooth="yes"/>
			<point x="232" y="25"/>
			<point x="294" y="15"/>
			<point x="324" y="5" type="qcurve"/>
			<point x="326" y="5"/>
			<point x="329" y="4"/>
		</contour>
		<contour>
			<point x="431" y="376" type="qcurve" smooth="yes"/>
			<point x="440" y="376"/>
			<point x="448" y="383" type="qcurve"/>
			<point x="482" y="417"/>
			<point x="535" y="497"/>
			<point x="588" y="573"/>
			<point x="651" y="635"/>
			<point x="696" y="650" type="qcurve"/>
			<point x="713" y="657"/>
			<point x="713" y="674" type="qcurve" smooth="yes"/>
			<point x="713" y="685"/>
			<point x="698" y="698"/>
			<point x="689" y="698" type="qcurve" smooth="yes"/>
			<point x="686" y="698"/>
			<point x="680" y="696" type="qcurve" smooth="yes"/>
			<point x="627" y="677"/>
			<point x="556" y="609"/>
			<point x="500" y="530"/>
			<point x="448" y="450"/>
			<point x="414" y="419" type="qcurve"/>
			<point x="407" y="411"/>
			<point x="407" y="400" type="qcurve" smooth="yes"/>
			<point x="407" y="391"/>
			<point x="420" y="376"/>
		</contour>
	</outline>
</glyph>
<glyph name="Y" format="2">
	<advance width="833"/>
	<unicode hex="0059"/>
	<note>
		Y
  </note>
	<outline>
		<contour>
			<point x="581" y="-28" type="qcurve" smooth="yes"/>
			<point x="592" y="-28"/>
			<point x="607" y="-12"/>
			<point x="607" y="0" type="qcurve" smooth="yes"/>
			<point x="607" y="19"/>
			<point x="588" y="24" type="qcurve" smooth="yes"/>
			<point x="549" y="34"/>
			<point x="474" y="57"/>
			<point x="434" y="65" type="qcurve"/>
			<point x="437" y="71" type="line"/>
			<point x="441" y="91"/>
			<point x="444" y="129"/>
			<point x="444" y="148" type="qcurve" smooth="yes"/>
			<point x="444" y="196"/>
			<point x="422" y="285"/>
			<point x="387" y="369"/>
			<point x="342" y="450"/>
			<point x="318" y="489" type="qcurve" smooth="yes"/>
			<point x="297" y="524" type="line" smooth="yes"/>
			<point x="275" y="561"/>
			<point x="225" y="632"/>
			<point x="161" y="687"/>
			<point x="79" y="721"/>
			<point x="24" y="721" type="qcurve" smooth="yes"/>
			<point x="13" y="721"/>
			<point x="-3" y="706"/>
			<point x="-3" y="695" type="qcurve" smooth="yes"/>
			<point x="-3" y="684"/>
			<point x="12" y="669"/>
			<point x="23" y="669" type="qcurve" smooth="yes"/>
			<point x="63" y="668"/>
			<point x="127" y="645"/>
			<point x="180" y="602"/>
			<point x="227" y="539"/>
			<point x="251" y="498" type="qcurve" smooth="yes"/>
			<point x="273" y="462" type="line" smooth="yes"/>
			<point x="296" y="424"/>
			<point x="339" y="348"/>
			<point x="372" y="271"/>
			<point x="391" y="190"/>
			<point x="391" y="147" type="qcurve" smooth="yes"/>
			<point x="391" y="130"/>
			<point x="384" y="94"/>
			<point x="384" y="75" type="qcurve" smooth="yes"/>
			<point x="384" y="71"/>
			<point x="385" y="70" type="qcurve"/>
			<point x="344" y="70"/>
			<point x="265" y="49"/>
			<point x="225" y="20" type="qcurve"/>
			<point x="214" y="11"/>
			<point x="214" y="-2" type="qcurve" smooth="yes"/>
			<point x="214" y="-13"/>
			<point x="230" y="-28"/>
			<point x="240" y="-28" type="qcurve" smooth="yes"/>
			<point x="248" y="-28"/>
			<point x="256" y="-23" type="qcurve"/>
			<point x="286" y="-1"/>
			<point x="346" y="16"/>
			<point x="376" y="16" type="qcurve" smooth="yes"/>
			<point x="413" y="16"/>
			<point x="487" y="-2"/>
			<point x="526" y="-13" type="qcurve" smooth="yes"/>
			<point x="539" y="-17"/>
			<point x="569" y="-28"/>
		</contour>
		<contour>
			<point x="761" y="690" type="line"/>
			<point x="761" y="704" type="line" smooth="yes"/>
			<point x="761" y="707"/>
			<point x="766" y="712"/>
			<point x="766" y="714" type="qcurve"/>
			<point x="769" y="717" type="line"/>
			<point x="715" y="697"/>
			<point x="666" y="697" type="qcurve" smooth="yes"/>
			<point x="611" y="697"/>
			<point x="560" y="719" type="qcurve"/>
			<point x="554" y="722"/>
			<point x="548" y="722" type="qcurve" smooth="yes"/>
			<point x="540" y="722"/>
			<point x="523" y="707"/>
			<point x="523" y="695" type="qcurve" smooth="yes"/>
			<point x="523" y="683"/>
			<point x="546" y="666"/>
			<point x="579" y="655"/>
			<point x="615" y="648"/>
			<point x="629" y="647" type="qcurve"/>
			<point x="613" y="606"/>
			<point x="564" y="534"/>
			<point x="507" y="465"/>
			<point x="447" y="394"/>
			<point x="419" y="354" type="qcurve"/>
			<point x="415" y="349"/>
			<point x="415" y="340" type="qcurve" smooth="yes"/>
			<point x="415" y="330"/>
			<point x="428" y="313"/>
			<point x="441" y="313" type="qcurve" smooth="yes"/>
			<point x="455" y="313"/>
			<point x="464" y="324" type="qcurve"/>
			<point x="491" y="364"/>
			<point x="554" y="437"/>
			<point x="614" y="512"/>
			<point x="666" y="592"/>
			<point x="683" y="640" type="qcurve"/>
			<point x="683" y="641"/>
			<point x="709" y="648"/>
			<point x="743" y="657"/>
			<point x="777" y="665"/>
			<point x="785" y="668" type="qcurve"/>
			<point x="782" y="668" type="line" smooth="yes"/>
			<point x="779" y="668"/>
			<point x="767" y="676"/>
			<point x="763" y="684" type="qcurve"/>
			<point x="762" y="685" type="line"/>
			<point x="762" y="688"/>
			<point x="761" y="689" type="qcurve"/>
		</contour>
		<contour>
			<point x="793" y="727" type="qcurve"/>
			<point x="788" y="725"/>
			<point x="769" y="719"/>
			<point x="769" y="717" type="qcurve"/>
			<point x="766" y="714" type="line" smooth="yes"/>
			<point x="764" y="712"/>
			<point x="763" y="710" type="qcurve" smooth="yes"/>
			<point x="761" y="706"/>
			<point x="761" y="704" type="qcurve" smooth="yes"/>
			<point x="761" y="689" type="line"/>
			<point x="762" y="688"/>
			<point x="762" y="685" type="qcurve"/>
			<point x="763" y="684" type="line"/>
			<point x="765" y="679"/>
			<point x="777" y="668"/>
			<point x="782" y="668" type="qcurve" smooth="yes"/>
			<point x="785" y="668" type="line" smooth="yes"/>
			<point x="795" y="668"/>
			<point x="821" y="683"/>
			<point x="821" y="697" type="qcurve" smooth="yes"/>
			<point x="821" y="709"/>
			<point x="805" y="726"/>
		</contour>
	</outline>
</glyph>
<glyph name="Z" format="2">
	<advance width="693"/>
	<unicode hex="005A"/>
	<note>
		Z
  </note>
	<outline>
		<contour>
			<point x="645" y="225" type="qcurve" smooth="yes"/>
			<point x="640" y="225" type="line"/>
			<point x="640" y="224" type="line"/>
			<point x="619" y="224"/>
			<point x="619" y="197" type="qcurve"/>
			<point x="621" y="183"/>
			<point x="623" y="157"/>
			<point x="623" y="146" type="qcurve" smooth="yes"/>
			<point x="623" y="110"/>
			<point x="591" y="70"/>
			<point x="535" y="52"/>
			<point x="460" y="49"/>
			<point x="417" y="49" type="qcurve" smooth="yes"/>
			<point x="351" y="49"/>
			<point x="247" y="60"/>
			<point x="201" y="73" type="qcurve" smooth="yes"/>
			<point x="193" y="75" type="line"/>
			<point x="198" y="81" type="line"/>
			<point x="205" y="88"/>
			<point x="217" y="105"/>
			<point x="224" y="115" type="qcurve" smooth="yes"/>
			<point x="299" y="227"/>
			<point x="455" y="440"/>
			<point x="528" y="534" type="qcurve" smooth="yes"/>
			<point x="550" y="563"/>
			<point x="606" y="602"/>
			<point x="635" y="612" type="qcurve"/>
			<point x="654" y="621" type="line"/>
			<point x="668" y="626"/>
			<point x="668" y="641" type="qcurve" smooth="yes"/>
			<point x="668" y="651"/>
			<point x="653" y="667"/>
			<point x="644" y="667" type="qcurve" smooth="yes"/>
			<point x="637" y="667"/>
			<point x="633" y="664" type="qcurve"/>
			<point x="615" y="655" type="line" smooth="yes"/>
			<point x="593" y="644"/>
			<point x="553" y="626"/>
			<point x="533" y="609" type="qcurve" smooth="yes"/>
			<point x="525" y="602" type="line"/>
			<point x="525" y="613" type="line" smooth="yes"/>
			<point x="525" y="628"/>
			<point x="485" y="650"/>
			<point x="428" y="664"/>
			<point x="365" y="671"/>
			<point x="342" y="671" type="qcurve" smooth="yes"/>
			<point x="310" y="671"/>
			<point x="247" y="666"/>
			<point x="215" y="662" type="qcurve"/>
			<point x="211" y="662" type="line"/>
			<point x="197" y="658"/>
			<point x="170" y="655"/>
			<point x="156" y="654" type="qcurve"/>
			<point x="150" y="653" type="line"/>
			<point x="151" y="669" type="line"/>
			<point x="152" y="671"/>
			<point x="155" y="703"/>
			<point x="155" y="715" type="qcurve" smooth="yes"/>
			<point x="155" y="727"/>
			<point x="137" y="739"/>
			<point x="131" y="739" type="qcurve" smooth="yes"/>
			<point x="121" y="739"/>
			<point x="107" y="727"/>
			<point x="105" y="718" type="qcurve"/>
			<point x="102" y="681"/>
			<point x="98" y="624"/>
			<point x="86" y="581"/>
			<point x="61" y="548"/>
			<point x="36" y="536" type="qcurve"/>
			<point x="35" y="536" type="line"/>
			<point x="19" y="529"/>
			<point x="19" y="513" type="qcurve" smooth="yes"/>
			<point x="19" y="502"/>
			<point x="37" y="489"/>
			<point x="44" y="489" type="qcurve" smooth="yes"/>
			<point x="50" y="489"/>
			<point x="56" y="491" type="qcurve"/>
			<point x="126" y="524"/>
			<point x="143" y="600" type="qcurve"/>
			<point x="144" y="603" type="line"/>
			<point x="147" y="603" type="line"/>
			<point x="166" y="604"/>
			<point x="198" y="608"/>
			<point x="215" y="612" type="qcurve"/>
			<point x="216" y="612" type="line"/>
			<point x="248" y="617"/>
			<point x="311" y="623"/>
			<point x="343" y="623" type="qcurve" smooth="yes"/>
			<point x="425" y="623"/>
			<point x="489" y="591" type="qcurve"/>
			<point x="497" y="589"/>
			<point x="500" y="589" type="qcurve" smooth="yes"/>
			<point x="511" y="589" type="line"/>
			<point x="504" y="581" type="line"/>
			<point x="496" y="573"/>
			<point x="489" y="563" type="qcurve"/>
			<point x="454" y="518"/>
			<point x="377" y="418"/>
			<point x="297" y="311"/>
			<point x="219" y="200"/>
			<point x="183" y="144" type="qcurve" smooth="yes"/>
			<point x="152" y="96"/>
			<point x="84" y="49"/>
			<point x="41" y="42" type="qcurve"/>
			<point x="31" y="39"/>
			<point x="19" y="25"/>
			<point x="19" y="17" type="qcurve" smooth="yes"/>
			<point x="19" y="13"/>
			<point x="30" y="-8"/>
			<point x="44" y="-8" type="qcurve" smooth="yes"/>
			<point x="51" y="-8" type="line"/>
			<point x="105" y="3"/>
			<point x="148" y="34" type="qcurve"/>
			<point x="153" y="35" type="line"/>
			<point x="222" y="12"/>
			<point x="354" y="-1"/>
			<point x="411" y="-1" type="qcurve" smooth="yes"/>
			<point x="434" y="-1"/>
			<point x="478" y="0"/>
			<point x="501" y="2" type="qcurve"/>
			<point x="552" y="3"/>
			<point x="618" y="28"/>
			<point x="657" y="69"/>
			<point x="673" y="123"/>
			<point x="673" y="153" type="qcurve" smooth="yes"/>
			<point x="673" y="164"/>
			<point x="672" y="190"/>
			<point x="666" y="211"/>
			<point x="655" y="225"/>
		</contour>
	</outline>
</glyph>
<glyph name="bracketleft" format="2">
	<advance width="310"/>
	<unicode hex="005B"/>
	<note>
		bracketleft
  </note>
	<outline>
		<contour>
			<point x="114" y="740" type="line"/>
			<point x="104" y="739"/>
			<point x="83" y="732"/>
			<point x="65" y="718"/>
			<point x="54" y="697"/>
			<point x="54" y="682" type="qcurve" smooth="yes"/>
			<point x="54" y="659"/>
			<point x="60" y="615"/>
			<point x="60" y="593" type="qcurve" smooth="yes"/>
			<point x="60" y="547"/>
			<point x="50" y="447"/>
			<point x="50" y="396" type="qcurve" smooth="yes"/>
			<point x="50" y="370"/>
			<point x="57" y="315"/>
			<point x="65" y="259"/>
			<point x="72" y="202"/>
			<point x="72" y="175" type="qcurve" smooth="yes"/>
			<point x="72" y="140"/>
			<point x="56" y="73"/>
			<point x="34" y="44" type="qcurve"/>
			<point x="28" y="35"/>
			<point x="28" y="27" type="qcurve" smooth="yes"/>
			<point x="28" y="16"/>
			<point x="46" y="-4"/>
			<point x="57" y="-4" type="qcurve" smooth="yes"/>
			<point x="69" y="-4"/>
			<point x="77" y="7" type="qcurve" smooth="yes"/>
			<point x="105" y="47"/>
			<point x="125" y="133"/>
			<point x="125" y="177" type="qcurve" smooth="yes"/>
			<point x="125" y="207"/>
			<point x="118" y="264"/>
			<point x="111" y="319"/>
			<point x="104" y="375"/>
			<point x="104" y="405" type="qcurve" smooth="yes"/>
			<point x="104" y="450"/>
			<point x="113" y="546"/>
			<point x="113" y="594" type="qcurve" smooth="yes"/>
			<point x="113" y="614"/>
			<point x="110" y="654"/>
			<point x="108" y="674" type="qcurve"/>
			<point x="108" y="682" type="line"/>
			<point x="109" y="683"/>
			<point x="113" y="683" type="qcurve" smooth="yes"/>
			<point x="116" y="683"/>
			<point x="122" y="682"/>
			<point x="124" y="682" type="qcurve" smooth="yes"/>
			<point x="149" y="682" type="line"/>
			<point x="174" y="687"/>
			<point x="174" y="711" type="qcurve" smooth="yes"/>
			<point x="174" y="725"/>
			<point x="155" y="740"/>
			<point x="144" y="740" type="qcurve" smooth="yes"/>
			<point x="142" y="740"/>
			<point x="137" y="738"/>
			<point x="134" y="738" type="qcurve" smooth="yes"/>
			<point x="128" y="738"/>
			<point x="126" y="740" type="qcurve"/>
		</contour>
		<contour>
			<point x="243" y="50" type="qcurve"/>
			<point x="245" y="50"/>
			<point x="247" y="51"/>
			<point x="249" y="51" type="qcurve" smooth="yes"/>
			<point x="260" y="51"/>
			<point x="272" y="33"/>
			<point x="272" y="22" type="qcurve" smooth="yes"/>
			<point x="272" y="13"/>
			<point x="263" y="2"/>
			<point x="249" y="-3"/>
			<point x="232" y="-4"/>
			<point x="224" y="-4" type="qcurve" smooth="yes"/>
			<point x="198" y="-4"/>
			<point x="149" y="5"/>
			<point x="125" y="5" type="qcurve" smooth="yes"/>
			<point x="113" y="5"/>
			<point x="100" y="21"/>
			<point x="100" y="31" type="qcurve" smooth="yes"/>
			<point x="100" y="40"/>
			<point x="112" y="55"/>
			<point x="124" y="55" type="qcurve" smooth="yes"/>
			<point x="144" y="55"/>
			<point x="189" y="46"/>
			<point x="212" y="46" type="qcurve" smooth="yes"/>
			<point x="230" y="46"/>
		</contour>
	</outline>
</glyph>
<glyph name="backslash" format="2">
	<advance width="463"/>
	<unicode hex="005C"/>
	<note>
		backslash
  </note>
	<outline>
		<contour>
			<point x="381" y="-8" type="qcurve" smooth="yes"/>
			<point x="396" y="-8" type="line"/>
			<point x="405" y="3"/>
			<point x="408" y="22"/>
			<point x="408" y="32" type="qcurve"/>
			<point x="384" y="96"/>
			<point x="323" y="203"/>
			<point x="258" y="301"/>
			<point x="192" y="394"/>
			<point x="134" y="493"/>
			<point x="88" y="604"/>
			<point x="76" y="670" type="qcurve"/>
			<point x="66" y="680"/>
			<point x="47" y="683"/>
			<point x="37" y="683" type="qcurve" smooth="yes"/>
			<point x="26" y="683"/>
			<point x="10" y="663"/>
			<point x="10" y="643" type="qcurve"/>
			<point x="38" y="547"/>
			<point x="131" y="382"/>
			<point x="231" y="231"/>
			<point x="325" y="90"/>
			<point x="356" y="19" type="qcurve"/>
			<point x="356" y="9"/>
			<point x="371" y="-8"/>
		</contour>
	</outline>
</glyph>
<glyph name="bracketright" format="2">
	<advance width="318"/>
	<unicode hex="005D"/>
	<note>
		bracketright
  </note>
	<outline>
		<contour>
			<point x="173" y="-1" type="line" smooth="yes"/>
			<point x="183" y="-1"/>
			<point x="204" y="5"/>
			<point x="222" y="19"/>
			<point x="234" y="41"/>
			<point x="234" y="56" type="qcurve" smooth="yes"/>
			<point x="234" y="76"/>
			<point x="229" y="117"/>
			<point x="229" y="137" type="qcurve" smooth="yes"/>
			<point x="229" y="189"/>
			<point x="244" y="293"/>
			<point x="244" y="347" type="qcurve" smooth="yes"/>
			<point x="244" y="395"/>
			<point x="225" y="498"/>
			<point x="225" y="549" type="qcurve" smooth="yes"/>
			<point x="225" y="588"/>
			<point x="243" y="661"/>
			<point x="267" y="693" type="qcurve"/>
			<point x="273" y="702"/>
			<point x="273" y="710" type="qcurve" smooth="yes"/>
			<point x="273" y="720"/>
			<point x="255" y="741"/>
			<point x="244" y="741" type="qcurve" smooth="yes"/>
			<point x="231" y="741"/>
			<point x="224" y="731" type="qcurve" smooth="yes"/>
			<point x="194" y="689"/>
			<point x="172" y="600"/>
			<point x="172" y="554" type="qcurve" smooth="yes"/>
			<point x="172" y="501"/>
			<point x="189" y="406"/>
			<point x="189" y="357" type="qcurve" smooth="yes"/>
			<point x="189" y="303"/>
			<point x="176" y="191"/>
			<point x="176" y="134" type="qcurve" smooth="yes"/>
			<point x="176" y="117"/>
			<point x="178" y="82"/>
			<point x="180" y="65" type="qcurve"/>
			<point x="180" y="57" type="line"/>
			<point x="179" y="56"/>
			<point x="175" y="56" type="qcurve" smooth="yes"/>
			<point x="172" y="56"/>
			<point x="166" y="57"/>
			<point x="164" y="57" type="qcurve" smooth="yes"/>
			<point x="139" y="57" type="line"/>
			<point x="113" y="52"/>
			<point x="113" y="27" type="qcurve"/>
			<point x="119" y="-1"/>
			<point x="145" y="-1" type="qcurve"/>
			<point x="149" y="1"/>
			<point x="153" y="1" type="qcurve" smooth="yes"/>
			<point x="155" y="1"/>
			<point x="161" y="-1" type="qcurve"/>
		</contour>
		<contour>
			<point x="57" y="691" type="qcurve"/>
			<point x="70" y="694"/>
			<point x="85" y="694" type="qcurve" smooth="yes"/>
			<point x="109" y="694"/>
			<point x="155" y="684"/>
			<point x="176" y="684" type="qcurve" smooth="yes"/>
			<point x="188" y="684"/>
			<point x="200" y="699"/>
			<point x="200" y="709" type="qcurve" smooth="yes"/>
			<point x="200" y="718"/>
			<point x="188" y="734"/>
			<point x="176" y="734" type="qcurve" smooth="yes"/>
			<point x="151" y="734"/>
			<point x="100" y="744"/>
			<point x="74" y="744" type="qcurve" smooth="yes"/>
			<point x="57" y="744"/>
			<point x="28" y="736"/>
			<point x="28" y="718" type="qcurve" smooth="yes"/>
			<point x="28" y="707"/>
			<point x="40" y="690"/>
			<point x="51" y="690" type="qcurve" smooth="yes"/>
			<point x="55" y="690"/>
		</contour>
	</outline>
</glyph>
<glyph name="underscore" format="2">
	<advance width="575"/>
	<unicode hex="005F"/>
	<note>
		underscore
  </note>
	<outline>
		<contour>
			<point x="146" y="-210" type="qcurve" smooth="yes"/>
			<point x="153" y="-210"/>
			<point x="205" y="-210"/>
			<point x="278" y="-210"/>
			<point x="364" y="-207"/>
			<point x="444" y="-203"/>
			<point x="511" y="-195"/>
			<point x="528" y="-189" type="qcurve"/>
			<point x="545" y="-184"/>
			<point x="545" y="-167" type="qcurve" smooth="yes"/>
			<point x="545" y="-157"/>
			<point x="531" y="-143"/>
			<point x="523" y="-143" type="qcurve" smooth="yes"/>
			<point x="518" y="-143"/>
			<point x="516" y="-144" type="qcurve"/>
			<point x="502" y="-147"/>
			<point x="432" y="-153"/>
			<point x="339" y="-158"/>
			<point x="235" y="-161"/>
			<point x="187" y="-161" type="qcurve" smooth="yes"/>
			<point x="135" y="-161"/>
			<point x="56" y="-152"/>
			<point x="40" y="-152" type="qcurve" smooth="yes"/>
			<point x="32" y="-152"/>
			<point x="17" y="-165"/>
			<point x="17" y="-176" type="qcurve" smooth="yes"/>
			<point x="17" y="-188"/>
			<point x="47" y="-202"/>
			<point x="89" y="-209"/>
			<point x="133" y="-210"/>
		</contour>
	</outline>
</glyph>
<glyph name="a" format="2">
	<advance width="418"/>
	<unicode hex="0061"/>
	<note>
		a
  </note>
	<outline>
		<contour>
			<point x="343" y="-8" type="qcurve" smooth="yes"/>
			<point x="350" y="-8"/>
			<point x="373" y="-1"/>
			<point x="393" y="11"/>
			<point x="408" y="25"/>
			<point x="408" y="33" type="qcurve" smooth="yes"/>
			<point x="408" y="46"/>
			<point x="392" y="59"/>
			<point x="383" y="59" type="qcurve" smooth="yes"/>
			<point x="376" y="59"/>
			<point x="356" y="47"/>
			<point x="345" y="45" type="qcurve"/>
			<point x="312" y="65"/>
			<point x="286" y="115"/>
			<point x="286" y="147" type="qcurve" smooth="yes"/>
			<point x="286" y="169"/>
			<point x="295" y="218"/>
			<point x="303" y="247" type="qcurve"/>
			<point x="305" y="256" type="line" smooth="yes"/>
			<point x="309" y="274"/>
			<point x="317" y="315"/>
			<point x="317" y="335" type="qcurve" smooth="yes"/>
			<point x="317" y="353"/>
			<point x="303" y="392"/>
			<point x="273" y="423"/>
			<point x="226" y="444"/>
			<point x="193" y="444" type="qcurve" smooth="yes"/>
			<point x="158" y="444"/>
			<point x="100" y="398"/>
			<point x="86" y="360" type="qcurve" smooth="yes"/>
			<point x="83" y="352"/>
			<point x="68" y="340"/>
			<point x="52" y="328"/>
			<point x="40" y="314"/>
			<point x="40" y="306" type="qcurve" smooth="yes"/>
			<point x="40" y="296"/>
			<point x="56" y="280"/>
			<point x="66" y="280" type="qcurve" smooth="yes"/>
			<point x="76" y="280"/>
			<point x="84" y="288" type="qcurve"/>
			<point x="115" y="312"/>
			<point x="142" y="350"/>
			<point x="157" y="378"/>
			<point x="174" y="393"/>
			<point x="197" y="393" type="qcurve" smooth="yes"/>
			<point x="226" y="393"/>
			<point x="266" y="360"/>
			<point x="266" y="336" type="qcurve" smooth="yes"/>
			<point x="266" y="323"/>
			<point x="259" y="290"/>
			<point x="254" y="268" type="qcurve"/>
			<point x="280" y="263" type="line"/>
			<point x="253" y="259" type="line"/>
			<point x="250" y="247"/>
			<point x="244" y="223"/>
			<point x="242" y="210" type="qcurve"/>
			<point x="231" y="210" type="line" smooth="yes"/>
			<point x="150" y="210"/>
			<point x="59" y="121"/>
			<point x="55" y="36" type="qcurve"/>
			<point x="55" y="20"/>
			<point x="79" y="-2"/>
			<point x="109" y="-16"/>
			<point x="139" y="-22"/>
			<point x="145" y="-22" type="qcurve" smooth="yes"/>
			<point x="171" y="-22"/>
			<point x="213" y="-3"/>
			<point x="243" y="21"/>
			<point x="259" y="44"/>
			<point x="259" y="48" type="qcurve" smooth="yes"/>
			<point x="259" y="58"/>
			<point x="243" y="75"/>
			<point x="233" y="75" type="qcurve" smooth="yes"/>
			<point x="223" y="75"/>
			<point x="215" y="67" type="qcurve"/>
			<point x="193" y="47"/>
			<point x="161" y="29"/>
			<point x="146" y="29" type="qcurve" smooth="yes"/>
			<point x="127" y="29"/>
			<point x="107" y="45" type="qcurve"/>
			<point x="115" y="108"/>
			<point x="177" y="159"/>
			<point x="235" y="159" type="qcurve"/>
			<point x="235" y="146" type="line" smooth="yes"/>
			<point x="235" y="104"/>
			<point x="271" y="27"/>
			<point x="325" y="-3" type="qcurve"/>
			<point x="337" y="-8"/>
		</contour>
	</outline>
</glyph>
<glyph name="b" format="2">
	<advance width="460"/>
	<unicode hex="0062"/>
	<note>
		b
  </note>
	<outline>
		<contour>
			<point x="248" y="-2" type="qcurve" smooth="yes"/>
			<point x="293" y="-2"/>
			<point x="358" y="30"/>
			<point x="400" y="89"/>
			<point x="420" y="170"/>
			<point x="420" y="218" type="qcurve" smooth="yes"/>
			<point x="420" y="316"/>
			<point x="326" y="416"/>
			<point x="226" y="416" type="qcurve" smooth="yes"/>
			<point x="203" y="416"/>
			<point x="152" y="410"/>
			<point x="123" y="405" type="qcurve"/>
			<point x="120" y="541"/>
			<point x="120" y="679" type="qcurve" smooth="yes"/>
			<point x="120" y="689"/>
			<point x="107" y="702"/>
			<point x="97" y="702" type="qcurve" smooth="yes"/>
			<point x="87" y="702"/>
			<point x="74" y="689"/>
			<point x="74" y="679" type="qcurve" smooth="yes"/>
			<point x="74" y="605"/>
			<point x="77" y="459"/>
			<point x="77" y="384" type="qcurve" smooth="yes"/>
			<point x="77" y="326"/>
			<point x="70" y="210"/>
			<point x="70" y="151" type="qcurve" smooth="yes"/>
			<point x="70" y="127"/>
			<point x="85" y="73"/>
			<point x="125" y="28"/>
			<point x="194" y="-2"/>
		</contour>
		<contour>
			<point x="123" y="359" type="qcurve"/>
			<point x="128" y="359" type="line"/>
			<point x="186" y="370"/>
			<point x="226" y="370" type="qcurve" smooth="yes"/>
			<point x="302" y="370"/>
			<point x="374" y="300"/>
			<point x="374" y="215" type="qcurve" smooth="yes"/>
			<point x="374" y="124"/>
			<point x="307" y="44"/>
			<point x="246" y="44" type="qcurve" smooth="yes"/>
			<point x="179" y="44"/>
			<point x="117" y="102"/>
			<point x="117" y="154" type="qcurve" smooth="yes"/>
			<point x="117" y="205"/>
			<point x="122" y="307"/>
		</contour>
	</outline>
</glyph>
<glyph name="c" format="2">
	<advance width="428"/>
	<unicode hex="0063"/>
	<note>
		c
  </note>
	<outline>
		<contour>
			<point x="251" y="-10" type="qcurve" smooth="yes"/>
			<point x="302" y="-10"/>
			<point x="370" y="49"/>
			<point x="387" y="103" type="qcurve" smooth="yes"/>
			<point x="388" y="106"/>
			<point x="388" y="111" type="qcurve" smooth="yes"/>
			<point x="388" y="120"/>
			<point x="376" y="135"/>
			<point x="364" y="135" type="qcurve" smooth="yes"/>
			<point x="345" y="135"/>
			<point x="340" y="118" type="qcurve"/>
			<point x="327" y="80"/>
			<point x="285" y="39"/>
			<point x="253" y="39" type="qcurve" smooth="yes"/>
			<point x="223" y="39"/>
			<point x="164" y="58"/>
			<point x="118" y="101"/>
			<point x="89" y="170"/>
			<point x="89" y="219" type="qcurve" smooth="yes"/>
			<point x="89" y="265"/>
			<point x="119" y="334"/>
			<point x="163" y="379"/>
			<point x="213" y="401"/>
			<point x="233" y="401" type="qcurve" smooth="yes"/>
			<point x="285" y="401"/>
			<point x="326" y="360"/>
			<point x="326" y="329" type="qcurve" smooth="yes"/>
			<point x="326" y="324"/>
			<point x="324" y="315"/>
			<point x="324" y="310" type="qcurve" smooth="yes"/>
			<point x="324" y="301"/>
			<point x="337" y="288"/>
			<point x="346" y="286" type="qcurve"/>
			<point x="363" y="286"/>
			<point x="375" y="309"/>
			<point x="375" y="330" type="qcurve" smooth="yes"/>
			<point x="375" y="384"/>
			<point x="300" y="449"/>
			<point x="231" y="449" type="qcurve" smooth="yes"/>
			<point x="199" y="449"/>
			<point x="149" y="428"/>
			<point x="110" y="395"/>
			<point x="81" y="356"/>
			<point x="70" y="338" type="qcurve" smooth="yes"/>
			<point x="55" y="313"/>
			<point x="40" y="250"/>
			<point x="40" y="218" type="qcurve" smooth="yes"/>
			<point x="40" y="151"/>
			<point x="85" y="63"/>
			<point x="149" y="11"/>
			<point x="222" y="-10"/>
		</contour>
	</outline>
</glyph>
<glyph name="d" format="2">
	<advance width="469"/>
	<unicode hex="0064"/>
	<note>
		d
  </note>
	<outline>
		<contour>
			<point x="262" y="620" type="qcurve" smooth="yes"/>
			<point x="269" y="620"/>
			<point x="282" y="621"/>
			<point x="289" y="622" type="qcurve"/>
			<point x="293" y="578"/>
			<point x="297" y="492"/>
			<point x="297" y="448" type="qcurve" smooth="yes"/>
			<point x="297" y="433"/>
			<point x="297" y="403"/>
			<point x="296" y="387" type="qcurve"/>
			<point x="276" y="390"/>
			<point x="240" y="392"/>
			<point x="223" y="392" type="qcurve" smooth="yes"/>
			<point x="177" y="392"/>
			<point x="103" y="369"/>
			<point x="52" y="319"/>
			<point x="25" y="240"/>
			<point x="25" y="184" type="qcurve" smooth="yes"/>
			<point x="25" y="142"/>
			<point x="53" y="74"/>
			<point x="104" y="26"/>
			<point x="174" y="0"/>
			<point x="215" y="0" type="qcurve" smooth="yes"/>
			<point x="422" y="0" type="line" smooth="yes"/>
			<point x="430" y="0"/>
			<point x="444" y="13"/>
			<point x="444" y="23" type="qcurve" smooth="yes"/>
			<point x="444" y="33"/>
			<point x="430" y="46"/>
			<point x="422" y="46" type="qcurve" smooth="yes"/>
			<point x="335" y="46" type="line"/>
			<point x="335" y="82" type="line" smooth="yes"/>
			<point x="335" y="171"/>
			<point x="343" y="346"/>
			<point x="343" y="435" type="qcurve" smooth="yes"/>
			<point x="343" y="485"/>
			<point x="340" y="583"/>
			<point x="335" y="634" type="qcurve"/>
			<point x="335" y="635" type="line"/>
			<point x="343" y="638"/>
			<point x="362" y="644"/>
			<point x="378" y="652"/>
			<point x="389" y="665"/>
			<point x="389" y="674" type="qcurve" smooth="yes"/>
			<point x="389" y="684"/>
			<point x="373" y="696"/>
			<point x="365" y="696" type="qcurve" smooth="yes"/>
			<point x="363" y="696"/>
			<point x="357" y="694" type="qcurve"/>
			<point x="334" y="683"/>
			<point x="287" y="668"/>
			<point x="264" y="668" type="qcurve" smooth="yes"/>
			<point x="251" y="668"/>
			<point x="226" y="673"/>
			<point x="214" y="680" type="qcurve" smooth="yes"/>
			<point x="209" y="683"/>
			<point x="204" y="683" type="qcurve" smooth="yes"/>
			<point x="195" y="683"/>
			<point x="179" y="668"/>
			<point x="179" y="658" type="qcurve" smooth="yes"/>
			<point x="179" y="648"/>
			<point x="199" y="633"/>
			<point x="226" y="624"/>
			<point x="254" y="620"/>
		</contour>
		<contour>
			<point x="121" y="322" type="qcurve" smooth="yes"/>
			<point x="138" y="334"/>
			<point x="185" y="347"/>
			<point x="217" y="347" type="qcurve" smooth="yes"/>
			<point x="234" y="347"/>
			<point x="272" y="343"/>
			<point x="295" y="339" type="qcurve"/>
			<point x="292" y="252" type="line" smooth="yes"/>
			<point x="290" y="201"/>
			<point x="287" y="97"/>
			<point x="288" y="46" type="qcurve"/>
			<point x="215" y="46" type="line" smooth="yes"/>
			<point x="149" y="46"/>
			<point x="70" y="117"/>
			<point x="70" y="181" type="qcurve" smooth="yes"/>
			<point x="70" y="232"/>
			<point x="98" y="305"/>
		</contour>
	</outline>
</glyph>
<glyph name="e" format="2">
	<advance width="414"/>
	<unicode hex="0065"/>
	<note>
		e
  </note>
	<outline>
		<contour>
			<point x="197" y="282" type="qcurve" smooth="yes"/>
			<point x="218" y="282"/>
			<point x="260" y="287"/>
			<point x="280" y="290" type="qcurve" smooth="yes"/>
			<point x="293" y="292"/>
			<point x="325" y="294"/>
			<point x="353" y="298"/>
			<point x="373" y="309"/>
			<point x="373" y="320" type="qcurve" smooth="yes"/>
			<point x="373" y="333"/>
			<point x="358" y="345"/>
			<point x="349" y="347" type="qcurve"/>
			<point x="347" y="347"/>
			<point x="345" y="346"/>
			<point x="343" y="346" type="qcurve"/>
			<point x="329" y="392"/>
			<point x="260" y="451"/>
			<point x="214" y="451" type="qcurve" smooth="yes"/>
			<point x="187" y="451"/>
			<point x="163" y="439" type="qcurve" smooth="yes"/>
			<point x="122" y="419"/>
			<point x="74" y="353"/>
			<point x="48" y="282"/>
			<point x="40" y="215"/>
			<point x="40" y="194" type="qcurve" smooth="yes"/>
			<point x="40" y="130"/>
			<point x="73" y="53"/>
			<point x="121" y="13"/>
			<point x="177" y="0"/>
			<point x="201" y="0" type="qcurve" smooth="yes"/>
			<point x="212" y="0"/>
			<point x="269" y="9"/>
			<point x="328" y="26"/>
			<point x="374" y="50"/>
			<point x="374" y="66" type="qcurve" smooth="yes"/>
			<point x="374" y="77"/>
			<point x="357" y="91"/>
			<point x="349" y="91" type="qcurve" smooth="yes"/>
			<point x="343" y="91"/>
			<point x="339" y="88" type="qcurve"/>
			<point x="259" y="48"/>
			<point x="201" y="48" type="qcurve" smooth="yes"/>
			<point x="164" y="48"/>
			<point x="119" y="76"/>
			<point x="95" y="120"/>
			<point x="87" y="171"/>
			<point x="87" y="194" type="qcurve" smooth="yes"/>
			<point x="87" y="211"/>
			<point x="94" y="269"/>
			<point x="105" y="300" type="qcurve"/>
			<point x="105" y="295"/>
			<point x="131" y="289"/>
			<point x="163" y="284"/>
			<point x="193" y="282"/>
		</contour>
		<contour>
			<point x="247" y="395" type="qcurve"/>
			<point x="279" y="377"/>
			<point x="295" y="341" type="qcurve"/>
			<point x="274" y="338" type="line" smooth="yes"/>
			<point x="253" y="335"/>
			<point x="214" y="330"/>
			<point x="194" y="330" type="qcurve" smooth="yes"/>
			<point x="177" y="330"/>
			<point x="143" y="335"/>
			<point x="127" y="343" type="qcurve"/>
			<point x="141" y="363"/>
			<point x="185" y="402"/>
			<point x="214" y="402" type="qcurve" smooth="yes"/>
			<point x="222" y="402"/>
			<point x="238" y="398"/>
		</contour>
	</outline>
</glyph>
<glyph name="f" format="2">
	<advance width="444"/>
	<unicode hex="0066"/>
	<note>
		f
  </note>
	<outline>
		<contour>
			<point x="462" y="699" type="qcurve" smooth="yes"/>
			<point x="461" y="699" type="line"/>
			<point x="453" y="700"/>
			<point x="436" y="700"/>
			<point x="428" y="700" type="qcurve" smooth="yes"/>
			<point x="336" y="700"/>
			<point x="227" y="661"/>
			<point x="171" y="585"/>
			<point x="154" y="470"/>
			<point x="153" y="395" type="qcurve" smooth="yes"/>
			<point x="153" y="390" type="line"/>
			<point x="148" y="390" type="line" smooth="yes"/>
			<point x="131" y="390"/>
			<point x="94" y="385"/>
			<point x="62" y="376"/>
			<point x="41" y="361"/>
			<point x="41" y="350" type="qcurve" smooth="yes"/>
			<point x="41" y="345"/>
			<point x="42" y="343" type="qcurve"/>
			<point x="42" y="342" type="line"/>
			<point x="44" y="335"/>
			<point x="58" y="325"/>
			<point x="66" y="325" type="qcurve" smooth="yes"/>
			<point x="74" y="325" type="line"/>
			<point x="91" y="332"/>
			<point x="127" y="338"/>
			<point x="147" y="339" type="qcurve"/>
			<point x="153" y="340" type="line"/>
			<point x="153" y="22" type="line"/>
			<point x="148" y="21" type="line"/>
			<point x="133" y="20"/>
			<point x="105" y="20"/>
			<point x="91" y="20" type="qcurve" smooth="yes"/>
			<point x="65" y="20" type="line"/>
			<point x="64" y="21"/>
			<point x="62" y="21" type="qcurve" smooth="yes"/>
			<point x="53" y="21"/>
			<point x="40" y="6"/>
			<point x="40" y="-2" type="qcurve" smooth="yes"/>
			<point x="40" y="-22"/>
			<point x="69" y="-30"/>
			<point x="83" y="-30" type="qcurve" smooth="yes"/>
			<point x="138" y="-30"/>
			<point x="244" y="-17"/>
			<point x="295" y="-12" type="qcurve"/>
			<point x="296" y="-12" type="line" smooth="yes"/>
			<point x="312" y="-12"/>
			<point x="344" y="-5"/>
			<point x="361" y="-5" type="qcurve" smooth="yes"/>
			<point x="374" y="-5" type="line"/>
			<point x="387" y="7"/>
			<point x="387" y="20" type="qcurve" smooth="yes"/>
			<point x="387" y="28"/>
			<point x="378" y="41"/>
			<point x="373" y="46" type="qcurve"/>
			<point x="363" y="42"/>
			<point x="342" y="42"/>
			<point x="334" y="40" type="qcurve"/>
			<point x="303" y="40"/>
			<point x="234" y="28"/>
			<point x="208" y="26" type="qcurve"/>
			<point x="203" y="25" type="line"/>
			<point x="203" y="340" type="line"/>
			<point x="208" y="339" type="line"/>
			<point x="213" y="339"/>
			<point x="224" y="339"/>
			<point x="229" y="338" type="qcurve"/>
			<point x="259" y="338" type="line" smooth="yes"/>
			<point x="267" y="338"/>
			<point x="282" y="337"/>
			<point x="290" y="337" type="qcurve" smooth="yes"/>
			<point x="316" y="337"/>
			<point x="343" y="346"/>
			<point x="343" y="361" type="qcurve" smooth="yes"/>
			<point x="343" y="365" type="line"/>
			<point x="343" y="366" type="line" smooth="yes"/>
			<point x="343" y="375"/>
			<point x="328" y="389"/>
			<point x="318" y="389" type="qcurve"/>
			<point x="295" y="386"/>
			<point x="274" y="386" type="qcurve" smooth="yes"/>
			<point x="252" y="386"/>
			<point x="230" y="389" type="qcurve"/>
			<point x="203" y="390" type="line"/>
			<point x="203" y="395" type="line" smooth="yes"/>
			<point x="203" y="472"/>
			<point x="216" y="570"/>
			<point x="264" y="627"/>
			<point x="357" y="649"/>
			<point x="437" y="649" type="qcurve" smooth="yes"/>
			<point x="462" y="649" type="line" smooth="yes"/>
			<point x="470" y="649"/>
			<point x="484" y="664"/>
			<point x="484" y="674" type="qcurve" smooth="yes"/>
			<point x="484" y="675" type="line" smooth="yes"/>
			<point x="484" y="685"/>
			<point x="471" y="699"/>
		</contour>
	</outline>
</glyph>
<glyph name="g" format="2">
	<advance width="482"/>
	<unicode hex="0067"/>
	<note>
		g
  </note>
	<outline>
		<contour>
			<point x="462" y="-93" type="line"/>
			<point x="459" y="-59"/>
			<point x="431" y="-19"/>
			<point x="393" y="2"/>
			<point x="348" y="9"/>
			<point x="329" y="11" type="qcurve"/>
			<point x="325" y="11" type="line"/>
			<point x="305" y="12"/>
			<point x="268" y="18"/>
			<point x="242" y="19" type="qcurve"/>
			<point x="219" y="19"/>
			<point x="183" y="23"/>
			<point x="153" y="34"/>
			<point x="131" y="56"/>
			<point x="124" y="76" type="qcurve"/>
			<point x="116" y="93"/>
			<point x="100" y="93" type="qcurve" smooth="yes"/>
			<point x="88" y="93"/>
			<point x="73" y="77"/>
			<point x="73" y="66" type="qcurve" smooth="yes"/>
			<point x="73" y="57"/>
			<point x="83" y="36"/>
			<point x="97" y="18"/>
			<point x="113" y="2"/>
			<point x="119" y="-3" type="qcurve"/>
			<point x="114" y="-4"/>
			<point x="110" y="-8" type="qcurve"/>
			<point x="78" y="-35"/>
			<point x="40" y="-99"/>
			<point x="40" y="-130" type="qcurve" smooth="yes"/>
			<point x="40" y="-163"/>
			<point x="76" y="-214"/>
			<point x="131" y="-250"/>
			<point x="196" y="-269"/>
			<point x="224" y="-269" type="qcurve" smooth="yes"/>
			<point x="272" y="-269"/>
			<point x="329" y="-243" type="qcurve"/>
			<point x="330" y="-243" type="line"/>
			<point x="349" y="-229"/>
			<point x="396" y="-208"/>
			<point x="435" y="-180"/>
			<point x="462" y="-139"/>
			<point x="462" y="-106" type="qcurve" smooth="yes"/>
		</contour>
		<contour>
			<point x="218" y="95" type="qcurve" smooth="yes"/>
			<point x="255" y="95"/>
			<point x="312" y="116"/>
			<point x="351" y="154"/>
			<point x="370" y="203"/>
			<point x="370" y="232" type="qcurve" smooth="yes"/>
			<point x="370" y="248" type="line" smooth="yes"/>
			<point x="370" y="262"/>
			<point x="376" y="279" type="qcurve"/>
			<point x="377" y="281" type="line"/>
			<point x="379" y="288"/>
			<point x="383" y="305"/>
			<point x="383" y="311" type="qcurve" smooth="yes"/>
			<point x="383" y="313"/>
			<point x="382" y="315"/>
			<point x="382" y="317" type="qcurve"/>
			<point x="383" y="319"/>
			<point x="383" y="324" type="qcurve" smooth="yes"/>
			<point x="383" y="330"/>
			<point x="378" y="338" type="qcurve" smooth="yes"/>
			<point x="314" y="435"/>
			<point x="229" y="435" type="qcurve" smooth="yes"/>
			<point x="202" y="435"/>
			<point x="147" y="413"/>
			<point x="102" y="373"/>
			<point x="74" y="317"/>
			<point x="74" y="283" type="qcurve" smooth="yes"/>
			<point x="74" y="260"/>
			<point x="91" y="196"/>
			<point x="127" y="137"/>
			<point x="181" y="95"/>
		</contour>
		<contour>
			<point x="144" y="-48" type="qcurve"/>
			<point x="153" y="-39"/>
			<point x="153" y="-29" type="qcurve" smooth="yes"/>
			<point x="153" y="-24"/>
			<point x="152" y="-21" type="qcurve"/>
			<point x="173" y="-29"/>
			<point x="218" y="-32"/>
			<point x="239" y="-33" type="qcurve"/>
			<point x="240" y="-33" type="line"/>
			<point x="252" y="-34"/>
			<point x="274" y="-35"/>
			<point x="285" y="-37" type="qcurve" smooth="yes"/>
			<point x="314" y="-43"/>
			<point x="360" y="-46"/>
			<point x="393" y="-55"/>
			<point x="410" y="-79"/>
			<point x="410" y="-106" type="qcurve" smooth="yes"/>
			<point x="410" y="-131"/>
			<point x="393" y="-148" type="qcurve"/>
			<point x="383" y="-157"/>
			<point x="342" y="-181"/>
			<point x="293" y="-202"/>
			<point x="243" y="-216"/>
			<point x="224" y="-216" type="qcurve" smooth="yes"/>
			<point x="208" y="-216"/>
			<point x="163" y="-204"/>
			<point x="121" y="-183"/>
			<point x="92" y="-153"/>
			<point x="92" y="-134" type="qcurve" smooth="yes"/>
			<point x="92" y="-114"/>
			<point x="118" y="-70"/>
		</contour>
		<contour>
			<point x="318" y="241" type="line"/>
			<point x="318" y="233" type="line" smooth="yes"/>
			<point x="318" y="197"/>
			<point x="270" y="147"/>
			<point x="217" y="147" type="qcurve" smooth="yes"/>
			<point x="197" y="147"/>
			<point x="166" y="175"/>
			<point x="146" y="212" type="qcurve" smooth="yes"/>
			<point x="126" y="249"/>
			<point x="126" y="281" type="qcurve" smooth="yes"/>
			<point x="126" y="304"/>
			<point x="146" y="341"/>
			<point x="176" y="368"/>
			<point x="212" y="383"/>
			<point x="229" y="383" type="qcurve" smooth="yes"/>
			<point x="238" y="383"/>
			<point x="240" y="382" type="qcurve"/>
			<point x="241" y="382" type="line"/>
			<point x="289" y="376"/>
			<point x="331" y="314" type="qcurve"/>
			<point x="328" y="303"/>
			<point x="318" y="264"/>
			<point x="318" y="250" type="qcurve" smooth="yes"/>
		</contour>
	</outline>
</glyph>
<glyph name="h" format="2">
	<advance width="499"/>
	<unicode hex="0068"/>
	<note>
		h
  </note>
	<outline>
		<contour>
			<point x="203" y="-29" type="qcurve" smooth="yes"/>
			<point x="219" y="-29"/>
			<point x="249" y="-21"/>
			<point x="276" y="-9"/>
			<point x="299" y="5"/>
			<point x="307" y="10" type="qcurve" smooth="yes"/>
			<point x="312" y="13" type="line" smooth="yes"/>
			<point x="339" y="30"/>
			<point x="360" y="30" type="qcurve" smooth="yes"/>
			<point x="379" y="30"/>
			<point x="409" y="6"/>
			<point x="429" y="-14" type="qcurve"/>
			<point x="431" y="-17" type="line"/>
			<point x="439" y="-25"/>
			<point x="448" y="-25" type="qcurve" smooth="yes"/>
			<point x="457" y="-25"/>
			<point x="474" y="-9"/>
			<point x="474" y="1" type="qcurve" smooth="yes"/>
			<point x="474" y="10"/>
			<point x="456" y="33"/>
			<point x="429" y="55"/>
			<point x="399" y="74"/>
			<point x="387" y="77" type="qcurve"/>
			<point x="387" y="78" type="line"/>
			<point x="375" y="135"/>
			<point x="371" y="250"/>
			<point x="371" y="311" type="qcurve" smooth="yes"/>
			<point x="371" y="359" type="line"/>
			<point x="371" y="384" type="line" smooth="yes"/>
			<point x="371" y="398"/>
			<point x="340" y="418"/>
			<point x="299" y="432"/>
			<point x="259" y="438"/>
			<point x="249" y="438" type="qcurve" smooth="yes"/>
			<point x="209" y="438"/>
			<point x="139" y="411"/>
			<point x="110" y="395" type="qcurve"/>
			<point x="110" y="421" type="line" smooth="yes"/>
			<point x="110" y="475"/>
			<point x="102" y="581"/>
			<point x="91" y="635" type="qcurve"/>
			<point x="90" y="636"/>
			<point x="90" y="640" type="qcurve" smooth="yes"/>
			<point x="90" y="646"/>
			<point x="99" y="661"/>
			<point x="111" y="680"/>
			<point x="121" y="702"/>
			<point x="121" y="716" type="qcurve" smooth="yes"/>
			<point x="121" y="727"/>
			<point x="108" y="742"/>
			<point x="97" y="742" type="qcurve" smooth="yes"/>
			<point x="86" y="742"/>
			<point x="71" y="730"/>
			<point x="71" y="719" type="qcurve"/>
			<point x="70" y="712"/>
			<point x="60" y="696"/>
			<point x="49" y="677"/>
			<point x="40" y="654"/>
			<point x="40" y="641" type="qcurve" smooth="yes"/>
			<point x="40" y="637"/>
			<point x="41" y="630"/>
			<point x="42" y="625" type="qcurve" smooth="yes"/>
			<point x="53" y="571"/>
			<point x="60" y="462"/>
			<point x="60" y="407" type="qcurve" smooth="yes"/>
			<point x="60" y="349"/>
			<point x="56" y="235"/>
			<point x="56" y="176" type="qcurve" smooth="yes"/>
			<point x="56" y="139" type="line" smooth="yes"/>
			<point x="56" y="129"/>
			<point x="55" y="112"/>
			<point x="55" y="102" type="qcurve" smooth="yes"/>
			<point x="55" y="81"/>
			<point x="71" y="38"/>
			<point x="98" y="23" type="qcurve"/>
			<point x="105" y="20"/>
			<point x="110" y="20" type="qcurve" smooth="yes"/>
			<point x="116" y="20" type="line"/>
			<point x="117" y="17"/>
			<point x="120" y="14" type="qcurve"/>
			<point x="140" y="-10"/>
			<point x="183" y="-29"/>
		</contour>
		<contour>
			<point x="321" y="311" type="line" smooth="yes"/>
			<point x="321" y="254"/>
			<point x="324" y="137"/>
			<point x="334" y="77" type="qcurve"/>
			<point x="310" y="71"/>
			<point x="286" y="55" type="qcurve"/>
			<point x="280" y="52" type="line"/>
			<point x="257" y="38"/>
			<point x="220" y="21"/>
			<point x="205" y="21" type="qcurve" smooth="yes"/>
			<point x="196" y="21"/>
			<point x="178" y="32"/>
			<point x="162" y="44"/>
			<point x="148" y="55"/>
			<point x="142" y="55" type="qcurve" smooth="yes"/>
			<point x="137" y="55"/>
			<point x="134" y="54" type="qcurve"/>
			<point x="131" y="61"/>
			<point x="123" y="66" type="qcurve"/>
			<point x="112" y="72"/>
			<point x="105" y="87"/>
			<point x="105" y="100" type="qcurve" smooth="yes"/>
			<point x="105" y="109"/>
			<point x="107" y="135"/>
			<point x="107" y="147" type="qcurve" smooth="yes"/>
			<point x="107" y="158"/>
			<point x="106" y="181"/>
			<point x="106" y="192" type="qcurve" smooth="yes"/>
			<point x="106" y="229"/>
			<point x="106" y="305"/>
			<point x="109" y="341" type="qcurve"/>
			<point x="116" y="341"/>
			<point x="123" y="345" type="qcurve" smooth="yes"/>
			<point x="195" y="387"/>
			<point x="248" y="387" type="qcurve" smooth="yes"/>
			<point x="286" y="387"/>
			<point x="321" y="368" type="qcurve"/>
		</contour>
	</outline>
</glyph>
<glyph name="i" format="2">
	<advance width="318"/>
	<unicode hex="0069"/>
	<note>
		i
  </note>
	<outline>
		<contour>
			<point x="96" y="-7" type="qcurve" smooth="yes"/>
			<point x="104" y="-7"/>
			<point x="124" y="1"/>
			<point x="146" y="10"/>
			<point x="169" y="18"/>
			<point x="180" y="18" type="qcurve" smooth="yes"/>
			<point x="197" y="18"/>
			<point x="233" y="7"/>
			<point x="254" y="-1" type="qcurve" smooth="yes"/>
			<point x="264" y="-5" type="line"/>
			<point x="270" y="-7"/>
			<point x="273" y="-7" type="qcurve" smooth="yes"/>
			<point x="281" y="-7"/>
			<point x="298" y="6"/>
			<point x="298" y="17" type="qcurve" smooth="yes"/>
			<point x="298" y="25"/>
			<point x="290" y="40"/>
			<point x="282" y="42" type="qcurve"/>
			<point x="274" y="46" type="line"/>
			<point x="256" y="52"/>
			<point x="217" y="65"/>
			<point x="197" y="68" type="qcurve"/>
			<point x="197" y="119"/>
			<point x="184" y="215"/>
			<point x="184" y="263" type="qcurve" smooth="yes"/>
			<point x="184" y="295"/>
			<point x="194" y="355"/>
			<point x="208" y="384" type="qcurve"/>
			<point x="211" y="388"/>
			<point x="211" y="395" type="qcurve" smooth="yes"/>
			<point x="211" y="406"/>
			<point x="195" y="420"/>
			<point x="184" y="420" type="qcurve" smooth="yes"/>
			<point x="169" y="420"/>
			<point x="150" y="382"/>
			<point x="139" y="331"/>
			<point x="135" y="279"/>
			<point x="135" y="264" type="qcurve" smooth="yes"/>
			<point x="135" y="213"/>
			<point x="148" y="111"/>
			<point x="148" y="65" type="qcurve"/>
			<point x="134" y="61"/>
			<point x="102" y="43"/>
			<point x="95" y="43" type="qcurve" smooth="yes"/>
			<point x="91" y="43"/>
			<point x="83" y="51"/>
			<point x="73" y="60"/>
			<point x="62" y="68"/>
			<point x="55" y="68" type="qcurve" smooth="yes"/>
			<point x="42" y="68"/>
			<point x="30" y="51"/>
			<point x="30" y="42" type="qcurve" smooth="yes"/>
			<point x="30" y="34"/>
			<point x="42" y="17"/>
			<point x="61" y="2"/>
			<point x="84" y="-7"/>
		</contour>
		<contour>
			<point x="217" y="501" type="qcurve" smooth="yes"/>
			<point x="224" y="501"/>
			<point x="242" y="513"/>
			<point x="242" y="526" type="qcurve" smooth="yes"/>
			<point x="242" y="542"/>
			<point x="227" y="550" type="qcurve"/>
			<point x="220" y="553"/>
			<point x="209" y="577"/>
			<point x="197" y="604"/>
			<point x="181" y="625"/>
			<point x="169" y="625" type="qcurve" smooth="yes"/>
			<point x="158" y="625"/>
			<point x="143" y="610"/>
			<point x="143" y="600" type="qcurve" smooth="yes"/>
			<point x="143" y="591"/>
			<point x="154" y="573"/>
			<point x="158" y="562" type="qcurve" smooth="yes"/>
			<point x="160" y="557"/>
			<point x="169" y="536"/>
			<point x="184" y="516"/>
			<point x="204" y="501"/>
		</contour>
	</outline>
</glyph>
<glyph name="j" format="2">
	<advance width="248"/>
	<unicode hex="006A"/>
	<note>
		j
  </note>
	<outline>
		<contour>
			<point x="156" y="392" type="qcurve"/>
			<point x="155" y="393"/>
			<point x="150" y="393" type="qcurve" smooth="yes"/>
			<point x="134" y="393"/>
			<point x="116" y="349"/>
			<point x="107" y="288"/>
			<point x="105" y="224"/>
			<point x="105" y="204" type="qcurve" smooth="yes"/>
			<point x="105" y="151"/>
			<point x="117" y="35"/>
			<point x="117" y="-20" type="qcurve" smooth="yes"/>
			<point x="117" y="-106"/>
			<point x="70" y="-242"/>
			<point x="20" y="-302" type="qcurve"/>
			<point x="15" y="-310"/>
			<point x="15" y="-318" type="qcurve" smooth="yes"/>
			<point x="15" y="-328"/>
			<point x="29" y="-342"/>
			<point x="38" y="-342" type="qcurve" smooth="yes"/>
			<point x="49" y="-342"/>
			<point x="58" y="-333" type="qcurve"/>
			<point x="113" y="-266"/>
			<point x="164" y="-112"/>
			<point x="164" y="-14" type="qcurve" smooth="yes"/>
			<point x="164" y="39"/>
			<point x="153" y="149"/>
			<point x="153" y="203" type="qcurve" smooth="yes"/>
			<point x="153" y="244"/>
			<point x="160" y="323"/>
			<point x="170" y="362" type="qcurve"/>
			<point x="170" y="363" type="line"/>
			<point x="171" y="365"/>
			<point x="171" y="370" type="qcurve" smooth="yes"/>
			<point x="171" y="375"/>
			<point x="165" y="390"/>
		</contour>
		<contour>
			<point x="184" y="555" type="qcurve"/>
			<point x="183" y="556" type="line"/>
			<point x="175" y="561"/>
			<point x="167" y="572"/>
			<point x="162" y="583" type="qcurve"/>
			<point x="161" y="585"/>
			<point x="160" y="591"/>
			<point x="158" y="593" type="qcurve"/>
			<point x="158" y="594" type="line"/>
			<point x="156" y="600"/>
			<point x="150" y="616"/>
			<point x="141" y="631"/>
			<point x="128" y="641"/>
			<point x="121" y="641" type="qcurve" smooth="yes"/>
			<point x="112" y="641"/>
			<point x="96" y="628"/>
			<point x="96" y="619" type="qcurve" smooth="yes"/>
			<point x="96" y="612"/>
			<point x="103" y="602" type="qcurve"/>
			<point x="103" y="601" type="line"/>
			<point x="105" y="596"/>
			<point x="111" y="583"/>
			<point x="113" y="576" type="qcurve"/>
			<point x="116" y="570" type="line" smooth="yes"/>
			<point x="123" y="555"/>
			<point x="143" y="523"/>
			<point x="166" y="513" type="qcurve"/>
			<point x="167" y="513" type="line"/>
			<point x="171" y="511"/>
			<point x="174" y="511" type="qcurve" smooth="yes"/>
			<point x="185" y="511"/>
			<point x="198" y="525"/>
			<point x="198" y="536" type="qcurve" smooth="yes"/>
			<point x="198" y="542"/>
			<point x="192" y="553"/>
		</contour>
	</outline>
</glyph>
<glyph name="k" format="2">
	<advance width="474"/>
	<unicode hex="006B"/>
	<note>
		k
  </note>
	<outline>
		<contour>
			<point x="436" y="46" type="qcurve"/>
			<point x="405" y="62"/>
			<point x="369" y="62" type="qcurve" smooth="yes"/>
			<point x="363" y="62"/>
			<point x="351" y="61"/>
			<point x="344" y="60" type="qcurve"/>
			<point x="340" y="62" type="line"/>
			<point x="340" y="64"/>
			<point x="337" y="65"/>
			<point x="336" y="69" type="qcurve"/>
			<point x="314" y="104"/>
			<point x="275" y="172"/>
			<point x="244" y="198" type="qcurve"/>
			<point x="241" y="200" type="line"/>
			<point x="243" y="203" type="line"/>
			<point x="272" y="270"/>
			<point x="359" y="341"/>
			<point x="424" y="341" type="qcurve" smooth="yes"/>
			<point x="434" y="341"/>
			<point x="449" y="357"/>
			<point x="449" y="368" type="qcurve" smooth="yes"/>
			<point x="449" y="376"/>
			<point x="434" y="390"/>
			<point x="424" y="390" type="qcurve" smooth="yes"/>
			<point x="269" y="385"/>
			<point x="203" y="228" type="qcurve"/>
			<point x="201" y="225" type="line"/>
			<point x="198" y="226" type="line"/>
			<point x="169" y="237"/>
			<point x="142" y="240" type="qcurve"/>
			<point x="138" y="240" type="line"/>
			<point x="138" y="323" type="line"/>
			<point x="136" y="355"/>
			<point x="133" y="422"/>
			<point x="133" y="457" type="qcurve" smooth="yes"/>
			<point x="133" y="507"/>
			<point x="140" y="610"/>
			<point x="151" y="664" type="qcurve"/>
			<point x="151" y="671"/>
			<point x="141" y="689"/>
			<point x="132" y="692" type="qcurve"/>
			<point x="129" y="692" type="line" smooth="yes"/>
			<point x="113" y="692"/>
			<point x="96" y="635"/>
			<point x="88" y="558"/>
			<point x="87" y="479"/>
			<point x="87" y="457" type="qcurve" smooth="yes"/>
			<point x="87" y="391"/>
			<point x="90" y="322" type="qcurve"/>
			<point x="90" y="321" type="line" smooth="yes"/>
			<point x="90" y="286"/>
			<point x="94" y="215"/>
			<point x="94" y="180" type="qcurve" smooth="yes"/>
			<point x="94" y="161"/>
			<point x="93" y="125"/>
			<point x="92" y="106" type="qcurve"/>
			<point x="92" y="96" type="line"/>
			<point x="90" y="77"/>
			<point x="88" y="60"/>
			<point x="84" y="55" type="qcurve"/>
			<point x="81" y="50"/>
			<point x="66" y="48"/>
			<point x="51" y="45"/>
			<point x="40" y="36"/>
			<point x="40" y="24" type="qcurve" smooth="yes"/>
			<point x="40" y="0"/>
			<point x="63" y="0" type="qcurve" smooth="yes"/>
			<point x="95" y="0"/>
			<point x="112" y="15" type="qcurve"/>
			<point x="117" y="18" type="line"/>
			<point x="118" y="13" type="line"/>
			<point x="122" y="4"/>
			<point x="142" y="-7"/>
			<point x="166" y="-13"/>
			<point x="190" y="-16"/>
			<point x="199" y="-16" type="qcurve" smooth="yes"/>
			<point x="218" y="-16"/>
			<point x="252" y="-7"/>
			<point x="289" y="4"/>
			<point x="332" y="13"/>
			<point x="360" y="13" type="qcurve" smooth="yes"/>
			<point x="379" y="13"/>
			<point x="409" y="-2"/>
			<point x="424" y="-2" type="qcurve" smooth="yes"/>
			<point x="434" y="-2"/>
			<point x="448" y="9"/>
			<point x="448" y="23" type="qcurve" smooth="yes"/>
			<point x="448" y="38"/>
		</contour>
		<contour>
			<point x="295" y="50" type="line"/>
			<point x="286" y="48" type="line"/>
			<point x="284" y="48"/>
			<point x="278" y="46" type="qcurve"/>
			<point x="257" y="41"/>
			<point x="220" y="33"/>
			<point x="202" y="33" type="qcurve" smooth="yes"/>
			<point x="187" y="33"/>
			<point x="161" y="40"/>
			<point x="149" y="46" type="qcurve"/>
			<point x="141" y="48"/>
			<point x="140" y="48" type="qcurve" smooth="yes"/>
			<point x="137" y="48" type="line"/>
			<point x="132" y="47" type="line"/>
			<point x="133" y="53" type="line"/>
			<point x="135" y="62"/>
			<point x="136" y="91"/>
			<point x="138" y="93" type="qcurve"/>
			<point x="138" y="103" type="line"/>
			<point x="139" y="122"/>
			<point x="139" y="162"/>
			<point x="139" y="186" type="qcurve" smooth="yes"/>
			<point x="139" y="190" type="line"/>
			<point x="143" y="190" type="line"/>
			<point x="172" y="187"/>
			<point x="214" y="163"/>
			<point x="248" y="126"/>
			<point x="277" y="80"/>
			<point x="292" y="55" type="qcurve" smooth="yes"/>
		</contour>
	</outline>
</glyph>
<glyph name="l" format="2">
	<advance width="308"/>
	<unicode hex="006C"/>
	<note>
		l
  </note>
	<outline>
		<contour>
			<point x="43" y="-7" type="qcurve" smooth="yes"/>
			<point x="45" y="-7"/>
			<point x="53" y="-5" type="qcurve"/>
			<point x="114" y="22"/>
			<point x="171" y="22" type="qcurve" smooth="yes"/>
			<point x="212" y="22"/>
			<point x="252" y="8" type="qcurve"/>
			<point x="254" y="7"/>
			<point x="259" y="7" type="qcurve" smooth="yes"/>
			<point x="269" y="7"/>
			<point x="283" y="20"/>
			<point x="283" y="31" type="qcurve" smooth="yes"/>
			<point x="283" y="41"/>
			<point x="262" y="55"/>
			<point x="232" y="64"/>
			<point x="199" y="68"/>
			<point x="188" y="68" type="qcurve"/>
			<point x="196" y="106"/>
			<point x="202" y="183"/>
			<point x="202" y="222" type="qcurve" smooth="yes"/>
			<point x="202" y="301"/>
			<point x="186" y="450"/>
			<point x="186" y="528" type="qcurve" smooth="yes"/>
			<point x="186" y="553"/>
			<point x="191" y="602"/>
			<point x="191" y="626" type="qcurve" smooth="yes"/>
			<point x="191" y="635"/>
			<point x="177" y="648"/>
			<point x="168" y="648" type="qcurve" smooth="yes"/>
			<point x="70" y="648" type="line" smooth="yes"/>
			<point x="61" y="648"/>
			<point x="47" y="634"/>
			<point x="47" y="624" type="qcurve" smooth="yes"/>
			<point x="47" y="615"/>
			<point x="61" y="601"/>
			<point x="70" y="601" type="qcurve" smooth="yes"/>
			<point x="143" y="601" type="line"/>
			<point x="140" y="566"/>
			<point x="140" y="532" type="qcurve" smooth="yes"/>
			<point x="140" y="454"/>
			<point x="155" y="298"/>
			<point x="155" y="220" type="qcurve" smooth="yes"/>
			<point x="155" y="183"/>
			<point x="150" y="111"/>
			<point x="142" y="75" type="qcurve"/>
			<point x="141" y="73"/>
			<point x="141" y="71" type="qcurve" smooth="yes"/>
			<point x="141" y="68"/>
			<point x="142" y="67" type="qcurve"/>
			<point x="131" y="66"/>
			<point x="90" y="59"/>
			<point x="50" y="47"/>
			<point x="20" y="28"/>
			<point x="20" y="16" type="qcurve" smooth="yes"/>
			<point x="20" y="5"/>
			<point x="35" y="-7"/>
		</contour>
	</outline>
</glyph>
